%TF.GenerationSoftware,KiCad,Pcbnew,7.0.10*%
%TF.CreationDate,2026-05-05T12:34:12+02:00*%
%TF.ProjectId,FT I2C Hub,46542049-3243-4204-9875-622e6b696361,rev?*%
%TF.SameCoordinates,Original*%
%TF.FileFunction,Copper,L1,Top*%
%TF.FilePolarity,Positive*%
%FSLAX46Y46*%
G04 Gerber Fmt 4.6, Leading zero omitted, Abs format (unit mm)*
G04 Created by KiCad (PCBNEW 7.0.10) date 2026-05-05 12:34:12*
%MOMM*%
%LPD*%
G01*
G04 APERTURE LIST*
G04 Aperture macros list*
%AMRoundRect*
0 Rectangle with rounded corners*
0 $1 Rounding radius*
0 $2 $3 $4 $5 $6 $7 $8 $9 X,Y pos of 4 corners*
0 Add a 4 corners polygon primitive as box body*
4,1,4,$2,$3,$4,$5,$6,$7,$8,$9,$2,$3,0*
0 Add four circle primitives for the rounded corners*
1,1,$1+$1,$2,$3*
1,1,$1+$1,$4,$5*
1,1,$1+$1,$6,$7*
1,1,$1+$1,$8,$9*
0 Add four rect primitives between the rounded corners*
20,1,$1+$1,$2,$3,$4,$5,0*
20,1,$1+$1,$4,$5,$6,$7,0*
20,1,$1+$1,$6,$7,$8,$9,0*
20,1,$1+$1,$8,$9,$2,$3,0*%
G04 Aperture macros list end*
%TA.AperFunction,ComponentPad*%
%ADD10RoundRect,0.250000X0.625000X-0.350000X0.625000X0.350000X-0.625000X0.350000X-0.625000X-0.350000X0*%
%TD*%
%TA.AperFunction,ComponentPad*%
%ADD11O,1.750000X1.200000*%
%TD*%
%TA.AperFunction,ComponentPad*%
%ADD12R,1.700000X1.700000*%
%TD*%
%TA.AperFunction,ComponentPad*%
%ADD13O,1.700000X1.700000*%
%TD*%
%TA.AperFunction,ComponentPad*%
%ADD14R,1.800000X1.800000*%
%TD*%
%TA.AperFunction,ComponentPad*%
%ADD15C,1.800000*%
%TD*%
%TA.AperFunction,ComponentPad*%
%ADD16C,4.000000*%
%TD*%
%TA.AperFunction,ViaPad*%
%ADD17C,0.800000*%
%TD*%
%TA.AperFunction,Conductor*%
%ADD18C,1.000000*%
%TD*%
%TA.AperFunction,Conductor*%
%ADD19C,0.800000*%
%TD*%
%TA.AperFunction,Conductor*%
%ADD20C,0.500000*%
%TD*%
G04 APERTURE END LIST*
D10*
%TO.P,J4,1,Pin_1*%
%TO.N,GND*%
X99292000Y-101083000D03*
D11*
%TO.P,J4,2,Pin_2*%
%TO.N,+5V*%
X99292000Y-99083000D03*
%TO.P,J4,3,Pin_3*%
%TO.N,SDA5*%
X99292000Y-97083000D03*
%TO.P,J4,4,Pin_4*%
%TO.N,SCL5*%
X99292000Y-95083000D03*
%TD*%
D10*
%TO.P,J2,1,Pin_1*%
%TO.N,GND*%
X140948000Y-101083000D03*
D11*
%TO.P,J2,2,Pin_2*%
%TO.N,+3.3V*%
X140948000Y-99083000D03*
%TO.P,J2,3,Pin_3*%
%TO.N,SDA3*%
X140948000Y-97083000D03*
%TO.P,J2,4,Pin_4*%
%TO.N,SCL3*%
X140948000Y-95083000D03*
%TD*%
D10*
%TO.P,J3,1,Pin_1*%
%TO.N,GND*%
X148568000Y-101083000D03*
D11*
%TO.P,J3,2,Pin_2*%
%TO.N,+3.3V*%
X148568000Y-99083000D03*
%TO.P,J3,3,Pin_3*%
%TO.N,SDA3*%
X148568000Y-97083000D03*
%TO.P,J3,4,Pin_4*%
%TO.N,SCL3*%
X148568000Y-95083000D03*
%TD*%
D12*
%TO.P,J9,1,Pin_1*%
%TO.N,unconnected-(J9-Pin_1-Pad1)*%
X157734000Y-115365000D03*
D13*
%TO.P,J9,2,Pin_2*%
%TO.N,GND*%
X157734000Y-112825000D03*
%TO.P,J9,3,Pin_3*%
%TO.N,unconnected-(J9-Pin_3-Pad3)*%
X160274000Y-115365000D03*
%TO.P,J9,4,Pin_4*%
%TO.N,unconnected-(J9-Pin_4-Pad4)*%
X160274000Y-112825000D03*
%TO.P,J9,5,Pin_5*%
%TO.N,SCL3*%
X162814000Y-115365000D03*
%TO.P,J9,6,Pin_6*%
%TO.N,SDA3*%
X162814000Y-112825000D03*
%TD*%
D14*
%TO.P,D1,1,K*%
%TO.N,GND*%
X160000000Y-99365000D03*
D15*
%TO.P,D1,2,A*%
%TO.N,Net-(D1-A)*%
X160000000Y-96825000D03*
%TD*%
D12*
%TO.P,J8,1,Pin_1*%
%TO.N,GND*%
X126863000Y-115365000D03*
D13*
%TO.P,J8,2,Pin_2*%
%TO.N,unconnected-(J8-Pin_2-Pad2)*%
X126863000Y-112825000D03*
%TO.P,J8,3,Pin_3*%
%TO.N,unconnected-(J8-Pin_3-Pad3)*%
X129403000Y-115365000D03*
%TO.P,J8,4,Pin_4*%
%TO.N,unconnected-(J8-Pin_4-Pad4)*%
X129403000Y-112825000D03*
%TO.P,J8,5,Pin_5*%
%TO.N,SDA3*%
X131943000Y-115365000D03*
%TO.P,J8,6,Pin_6*%
%TO.N,SCL3*%
X131943000Y-112825000D03*
%TO.P,J8,7,Pin_7*%
%TO.N,unconnected-(J8-Pin_7-Pad7)*%
X134483000Y-115365000D03*
%TO.P,J8,8,Pin_8*%
%TO.N,unconnected-(J8-Pin_8-Pad8)*%
X134483000Y-112825000D03*
%TO.P,J8,9,Pin_9*%
%TO.N,unconnected-(J8-Pin_9-Pad9)*%
X137023000Y-115365000D03*
%TO.P,J8,10,Pin_10*%
%TO.N,unconnected-(J8-Pin_10-Pad10)*%
X137023000Y-112825000D03*
%TD*%
D16*
%TO.P,O1,1*%
%TO.N,+9V*%
X167620000Y-94740000D03*
%TD*%
D10*
%TO.P,J6,1,Pin_1*%
%TO.N,GND*%
X114532000Y-101083000D03*
D11*
%TO.P,J6,2,Pin_2*%
%TO.N,+5V*%
X114532000Y-99083000D03*
%TO.P,J6,3,Pin_3*%
%TO.N,SDA5*%
X114532000Y-97083000D03*
%TO.P,J6,4,Pin_4*%
%TO.N,SCL5*%
X114532000Y-95083000D03*
%TD*%
D10*
%TO.P,J5,1,Pin_1*%
%TO.N,GND*%
X106912000Y-101083000D03*
D11*
%TO.P,J5,2,Pin_2*%
%TO.N,+5V*%
X106912000Y-99083000D03*
%TO.P,J5,3,Pin_3*%
%TO.N,SDA5*%
X106912000Y-97083000D03*
%TO.P,J5,4,Pin_4*%
%TO.N,SCL5*%
X106912000Y-95083000D03*
%TD*%
D12*
%TO.P,J7,1,Pin_1*%
%TO.N,GND*%
X101092000Y-115365000D03*
D13*
%TO.P,J7,2,Pin_2*%
%TO.N,unconnected-(J7-Pin_2-Pad2)*%
X101092000Y-112825000D03*
%TO.P,J7,3,Pin_3*%
%TO.N,unconnected-(J7-Pin_3-Pad3)*%
X103632000Y-115365000D03*
%TO.P,J7,4,Pin_4*%
%TO.N,unconnected-(J7-Pin_4-Pad4)*%
X103632000Y-112825000D03*
%TO.P,J7,5,Pin_5*%
%TO.N,SDA5*%
X106172000Y-115365000D03*
%TO.P,J7,6,Pin_6*%
%TO.N,SCL5*%
X106172000Y-112825000D03*
%TD*%
D10*
%TO.P,J1,1,Pin_1*%
%TO.N,GND*%
X133328000Y-101083000D03*
D11*
%TO.P,J1,2,Pin_2*%
%TO.N,+3.3V*%
X133328000Y-99083000D03*
%TO.P,J1,3,Pin_3*%
%TO.N,SDA3*%
X133328000Y-97083000D03*
%TO.P,J1,4,Pin_4*%
%TO.N,SCL3*%
X133328000Y-95083000D03*
%TD*%
D16*
%TO.P,O2,1*%
%TO.N,+9V*%
X167620000Y-102106000D03*
%TD*%
D17*
%TO.N,+9V*%
X123907039Y-109776319D03*
X123903575Y-110577712D03*
%TO.N,+3.3V*%
X126118607Y-105214535D03*
X137225000Y-105225000D03*
X120650000Y-110325000D03*
X122301000Y-93599000D03*
%TO.N,Net-(D1-A)*%
X123825000Y-91440000D03*
%TO.N,SDA3*%
X123825000Y-95631000D03*
%TO.N,SCL3*%
X117983000Y-92583000D03*
%TD*%
D18*
%TO.N,+9V*%
X129411564Y-106317178D02*
X126213456Y-106317178D01*
X126213456Y-106317178D02*
X123903575Y-108627059D01*
X167620000Y-102106000D02*
X163400571Y-106325429D01*
X167620000Y-94740000D02*
X167620000Y-102106000D01*
X129419815Y-106325429D02*
X129411564Y-106317178D01*
X163400571Y-106325429D02*
X129419815Y-106325429D01*
X123903575Y-108627059D02*
X123903575Y-110577712D01*
D19*
%TO.N,GND*%
X99292000Y-101083000D02*
X114532000Y-101083000D01*
X158282000Y-101083000D02*
X160000000Y-99365000D01*
X148568000Y-101083000D02*
X158282000Y-101083000D01*
X133328000Y-101083000D02*
X148568000Y-101083000D01*
X114532000Y-101083000D02*
X133328000Y-101083000D01*
%TO.N,+3.3V*%
X125769000Y-105206000D02*
X126118607Y-105214535D01*
D20*
X126074918Y-99083000D02*
X133328000Y-99083000D01*
X122301000Y-93599000D02*
X122301000Y-95309082D01*
D19*
X137225000Y-105225000D02*
X137225000Y-105206000D01*
X120650000Y-110325000D02*
X125769000Y-105206000D01*
D20*
X122301000Y-95309082D02*
X126074918Y-99083000D01*
D19*
X133328000Y-99083000D02*
X148568000Y-99083000D01*
X126118607Y-105214535D02*
X137225000Y-105225000D01*
%TO.N,+5V*%
X99292000Y-99083000D02*
X114532000Y-99083000D01*
D20*
%TO.N,Net-(D1-A)*%
X123825000Y-91440000D02*
X154615000Y-91440000D01*
X154615000Y-91440000D02*
X160000000Y-96825000D01*
D18*
%TO.N,SDA5*%
X99292000Y-97083000D02*
X114532000Y-97083000D01*
D19*
%TO.N,SCL5*%
X99292000Y-95083000D02*
X114532000Y-95083000D01*
D20*
%TO.N,SDA3*%
X123825000Y-95631000D02*
X125277000Y-97083000D01*
D19*
X133328000Y-97083000D02*
X148568000Y-97083000D01*
D20*
X125277000Y-97083000D02*
X133328000Y-97083000D01*
D19*
%TO.N,SCL3*%
X133328000Y-95083000D02*
X148568000Y-95083000D01*
D20*
X133328000Y-95083000D02*
X133328000Y-94974000D01*
X133328000Y-94974000D02*
X131318000Y-92964000D01*
X130937000Y-92583000D02*
X117983000Y-92583000D01*
X131318000Y-92964000D02*
X130937000Y-92583000D01*
%TD*%
%TA.AperFunction,Conductor*%
%TO.N,GND*%
G36*
X174343288Y-88920185D02*
G01*
X174389043Y-88972989D01*
X174400248Y-89024320D01*
X174406685Y-93532990D01*
X174407500Y-94103766D01*
X174407500Y-123750901D01*
X174387815Y-123817940D01*
X174335011Y-123863695D01*
X174283427Y-123874901D01*
X89532427Y-123825076D01*
X89465399Y-123805352D01*
X89419675Y-123752521D01*
X89408500Y-123701076D01*
X89408500Y-121398330D01*
X90505710Y-121398330D01*
X90535925Y-121621387D01*
X90535926Y-121621390D01*
X90605483Y-121835465D01*
X90712146Y-122033678D01*
X90712148Y-122033681D01*
X90852489Y-122209663D01*
X90852491Y-122209664D01*
X90852492Y-122209666D01*
X91022004Y-122357765D01*
X91215236Y-122473215D01*
X91425976Y-122552307D01*
X91647450Y-122592500D01*
X91647453Y-122592500D01*
X91816148Y-122592500D01*
X91816155Y-122592500D01*
X91984188Y-122577377D01*
X91984192Y-122577376D01*
X92201160Y-122517496D01*
X92201162Y-122517495D01*
X92201170Y-122517493D01*
X92403973Y-122419829D01*
X92586078Y-122287522D01*
X92741632Y-122124825D01*
X92865635Y-121936968D01*
X92954103Y-121729988D01*
X92973197Y-121646330D01*
X170805710Y-121646330D01*
X170835925Y-121869387D01*
X170835926Y-121869390D01*
X170905483Y-122083465D01*
X171012146Y-122281678D01*
X171012148Y-122281681D01*
X171152489Y-122457663D01*
X171152491Y-122457664D01*
X171152492Y-122457666D01*
X171322004Y-122605765D01*
X171515236Y-122721215D01*
X171725976Y-122800307D01*
X171947450Y-122840500D01*
X171947453Y-122840500D01*
X172116148Y-122840500D01*
X172116155Y-122840500D01*
X172284188Y-122825377D01*
X172284192Y-122825376D01*
X172501160Y-122765496D01*
X172501162Y-122765495D01*
X172501170Y-122765493D01*
X172703973Y-122667829D01*
X172886078Y-122535522D01*
X173041632Y-122372825D01*
X173165635Y-122184968D01*
X173191342Y-122124825D01*
X173254100Y-121977995D01*
X173254099Y-121977995D01*
X173254103Y-121977988D01*
X173304191Y-121758537D01*
X173314290Y-121533670D01*
X173284075Y-121310613D01*
X173214517Y-121096536D01*
X173107852Y-120898319D01*
X172967508Y-120722334D01*
X172797996Y-120574235D01*
X172604764Y-120458785D01*
X172486775Y-120414503D01*
X172394023Y-120379692D01*
X172172550Y-120339500D01*
X172172547Y-120339500D01*
X172003845Y-120339500D01*
X171965399Y-120342960D01*
X171835813Y-120354622D01*
X171835807Y-120354623D01*
X171618839Y-120414503D01*
X171618826Y-120414508D01*
X171416033Y-120512167D01*
X171416025Y-120512171D01*
X171233927Y-120644473D01*
X171233925Y-120644474D01*
X171078366Y-120807176D01*
X170954363Y-120995033D01*
X170865899Y-121202004D01*
X170865895Y-121202017D01*
X170815810Y-121421457D01*
X170815808Y-121421468D01*
X170810769Y-121533674D01*
X170805710Y-121646330D01*
X92973197Y-121646330D01*
X93004191Y-121510537D01*
X93014290Y-121285670D01*
X92984075Y-121062613D01*
X92914517Y-120848536D01*
X92807852Y-120650319D01*
X92667508Y-120474334D01*
X92497996Y-120326235D01*
X92304764Y-120210785D01*
X92186775Y-120166503D01*
X92094023Y-120131692D01*
X91872550Y-120091500D01*
X91872547Y-120091500D01*
X91703845Y-120091500D01*
X91665399Y-120094960D01*
X91535813Y-120106622D01*
X91535807Y-120106623D01*
X91318839Y-120166503D01*
X91318826Y-120166508D01*
X91116033Y-120264167D01*
X91116025Y-120264171D01*
X90933927Y-120396473D01*
X90933925Y-120396474D01*
X90778366Y-120559176D01*
X90654363Y-120747033D01*
X90565899Y-120954004D01*
X90565895Y-120954017D01*
X90515810Y-121173457D01*
X90515808Y-121173468D01*
X90509649Y-121310613D01*
X90505710Y-121398330D01*
X89408500Y-121398330D01*
X89408500Y-112825000D01*
X99736341Y-112825000D01*
X99756936Y-113060403D01*
X99756938Y-113060413D01*
X99818094Y-113288655D01*
X99818096Y-113288659D01*
X99818097Y-113288663D01*
X99897801Y-113459588D01*
X99917965Y-113502830D01*
X99917967Y-113502834D01*
X100026281Y-113657521D01*
X100053504Y-113696400D01*
X100053506Y-113696402D01*
X100175818Y-113818714D01*
X100209303Y-113880037D01*
X100204319Y-113949729D01*
X100162447Y-114005662D01*
X100131471Y-114022577D01*
X99999912Y-114071646D01*
X99999906Y-114071649D01*
X99884812Y-114157809D01*
X99884809Y-114157812D01*
X99798649Y-114272906D01*
X99798645Y-114272913D01*
X99748403Y-114407620D01*
X99748401Y-114407627D01*
X99742000Y-114467155D01*
X99742000Y-115115000D01*
X100658314Y-115115000D01*
X100632507Y-115155156D01*
X100592000Y-115293111D01*
X100592000Y-115436889D01*
X100632507Y-115574844D01*
X100658314Y-115615000D01*
X99742000Y-115615000D01*
X99742000Y-116262844D01*
X99748401Y-116322372D01*
X99748403Y-116322379D01*
X99798645Y-116457086D01*
X99798649Y-116457093D01*
X99884809Y-116572187D01*
X99884812Y-116572190D01*
X99999906Y-116658350D01*
X99999913Y-116658354D01*
X100134620Y-116708596D01*
X100134627Y-116708598D01*
X100194155Y-116714999D01*
X100194172Y-116715000D01*
X100842000Y-116715000D01*
X100842000Y-115800501D01*
X100949685Y-115849680D01*
X101056237Y-115865000D01*
X101127763Y-115865000D01*
X101234315Y-115849680D01*
X101342000Y-115800501D01*
X101342000Y-116715000D01*
X101989828Y-116715000D01*
X101989844Y-116714999D01*
X102049372Y-116708598D01*
X102049379Y-116708596D01*
X102184086Y-116658354D01*
X102184093Y-116658350D01*
X102299187Y-116572190D01*
X102299190Y-116572187D01*
X102385350Y-116457093D01*
X102385354Y-116457086D01*
X102434422Y-116325529D01*
X102476293Y-116269595D01*
X102541757Y-116245178D01*
X102610030Y-116260030D01*
X102638285Y-116281181D01*
X102760599Y-116403495D01*
X102857384Y-116471265D01*
X102954165Y-116539032D01*
X102954167Y-116539033D01*
X102954170Y-116539035D01*
X103168337Y-116638903D01*
X103396592Y-116700063D01*
X103573034Y-116715500D01*
X103631999Y-116720659D01*
X103632000Y-116720659D01*
X103632001Y-116720659D01*
X103690966Y-116715500D01*
X103867408Y-116700063D01*
X104095663Y-116638903D01*
X104309830Y-116539035D01*
X104503401Y-116403495D01*
X104670495Y-116236401D01*
X104800425Y-116050842D01*
X104855002Y-116007217D01*
X104924500Y-116000023D01*
X104986855Y-116031546D01*
X105003575Y-116050842D01*
X105133500Y-116236395D01*
X105133505Y-116236401D01*
X105300599Y-116403495D01*
X105397384Y-116471265D01*
X105494165Y-116539032D01*
X105494167Y-116539033D01*
X105494170Y-116539035D01*
X105708337Y-116638903D01*
X105936592Y-116700063D01*
X106113034Y-116715500D01*
X106171999Y-116720659D01*
X106172000Y-116720659D01*
X106172001Y-116720659D01*
X106230966Y-116715500D01*
X106407408Y-116700063D01*
X106635663Y-116638903D01*
X106849830Y-116539035D01*
X107043401Y-116403495D01*
X107210495Y-116236401D01*
X107346035Y-116042830D01*
X107445903Y-115828663D01*
X107507063Y-115600408D01*
X107527659Y-115365000D01*
X107507063Y-115129592D01*
X107445903Y-114901337D01*
X107346035Y-114687171D01*
X107340425Y-114679158D01*
X107210494Y-114493597D01*
X107043402Y-114326506D01*
X107043396Y-114326501D01*
X106857842Y-114196575D01*
X106814217Y-114141998D01*
X106807023Y-114072500D01*
X106838546Y-114010145D01*
X106857842Y-113993425D01*
X106920246Y-113949729D01*
X107043401Y-113863495D01*
X107210495Y-113696401D01*
X107346035Y-113502830D01*
X107445903Y-113288663D01*
X107507063Y-113060408D01*
X107527659Y-112825000D01*
X125507341Y-112825000D01*
X125527936Y-113060403D01*
X125527938Y-113060413D01*
X125589094Y-113288655D01*
X125589096Y-113288659D01*
X125589097Y-113288663D01*
X125668801Y-113459588D01*
X125688965Y-113502830D01*
X125688967Y-113502834D01*
X125797281Y-113657521D01*
X125824504Y-113696400D01*
X125824506Y-113696402D01*
X125946818Y-113818714D01*
X125980303Y-113880037D01*
X125975319Y-113949729D01*
X125933447Y-114005662D01*
X125902471Y-114022577D01*
X125770912Y-114071646D01*
X125770906Y-114071649D01*
X125655812Y-114157809D01*
X125655809Y-114157812D01*
X125569649Y-114272906D01*
X125569645Y-114272913D01*
X125519403Y-114407620D01*
X125519401Y-114407627D01*
X125513000Y-114467155D01*
X125513000Y-115115000D01*
X126429314Y-115115000D01*
X126403507Y-115155156D01*
X126363000Y-115293111D01*
X126363000Y-115436889D01*
X126403507Y-115574844D01*
X126429314Y-115615000D01*
X125513000Y-115615000D01*
X125513000Y-116262844D01*
X125519401Y-116322372D01*
X125519403Y-116322379D01*
X125569645Y-116457086D01*
X125569649Y-116457093D01*
X125655809Y-116572187D01*
X125655812Y-116572190D01*
X125770906Y-116658350D01*
X125770913Y-116658354D01*
X125905620Y-116708596D01*
X125905627Y-116708598D01*
X125965155Y-116714999D01*
X125965172Y-116715000D01*
X126613000Y-116715000D01*
X126613000Y-115800501D01*
X126720685Y-115849680D01*
X126827237Y-115865000D01*
X126898763Y-115865000D01*
X127005315Y-115849680D01*
X127113000Y-115800501D01*
X127113000Y-116715000D01*
X127760828Y-116715000D01*
X127760844Y-116714999D01*
X127820372Y-116708598D01*
X127820379Y-116708596D01*
X127955086Y-116658354D01*
X127955093Y-116658350D01*
X128070187Y-116572190D01*
X128070190Y-116572187D01*
X128156350Y-116457093D01*
X128156354Y-116457086D01*
X128205422Y-116325529D01*
X128247293Y-116269595D01*
X128312757Y-116245178D01*
X128381030Y-116260030D01*
X128409285Y-116281181D01*
X128531599Y-116403495D01*
X128628384Y-116471265D01*
X128725165Y-116539032D01*
X128725167Y-116539033D01*
X128725170Y-116539035D01*
X128939337Y-116638903D01*
X129167592Y-116700063D01*
X129344034Y-116715500D01*
X129402999Y-116720659D01*
X129403000Y-116720659D01*
X129403001Y-116720659D01*
X129461966Y-116715500D01*
X129638408Y-116700063D01*
X129866663Y-116638903D01*
X130080830Y-116539035D01*
X130274401Y-116403495D01*
X130441495Y-116236401D01*
X130571425Y-116050842D01*
X130626002Y-116007217D01*
X130695500Y-116000023D01*
X130757855Y-116031546D01*
X130774575Y-116050842D01*
X130904500Y-116236395D01*
X130904505Y-116236401D01*
X131071599Y-116403495D01*
X131168384Y-116471265D01*
X131265165Y-116539032D01*
X131265167Y-116539033D01*
X131265170Y-116539035D01*
X131479337Y-116638903D01*
X131707592Y-116700063D01*
X131884034Y-116715500D01*
X131942999Y-116720659D01*
X131943000Y-116720659D01*
X131943001Y-116720659D01*
X132001966Y-116715500D01*
X132178408Y-116700063D01*
X132406663Y-116638903D01*
X132620830Y-116539035D01*
X132814401Y-116403495D01*
X132981495Y-116236401D01*
X133111425Y-116050842D01*
X133166002Y-116007217D01*
X133235500Y-116000023D01*
X133297855Y-116031546D01*
X133314575Y-116050842D01*
X133444500Y-116236395D01*
X133444505Y-116236401D01*
X133611599Y-116403495D01*
X133708384Y-116471265D01*
X133805165Y-116539032D01*
X133805167Y-116539033D01*
X133805170Y-116539035D01*
X134019337Y-116638903D01*
X134247592Y-116700063D01*
X134424034Y-116715500D01*
X134482999Y-116720659D01*
X134483000Y-116720659D01*
X134483001Y-116720659D01*
X134541966Y-116715500D01*
X134718408Y-116700063D01*
X134946663Y-116638903D01*
X135160830Y-116539035D01*
X135354401Y-116403495D01*
X135521495Y-116236401D01*
X135651425Y-116050842D01*
X135706002Y-116007217D01*
X135775500Y-116000023D01*
X135837855Y-116031546D01*
X135854575Y-116050842D01*
X135984500Y-116236395D01*
X135984505Y-116236401D01*
X136151599Y-116403495D01*
X136248384Y-116471265D01*
X136345165Y-116539032D01*
X136345167Y-116539033D01*
X136345170Y-116539035D01*
X136559337Y-116638903D01*
X136787592Y-116700063D01*
X136964034Y-116715500D01*
X137022999Y-116720659D01*
X137023000Y-116720659D01*
X137023001Y-116720659D01*
X137081966Y-116715500D01*
X137258408Y-116700063D01*
X137486663Y-116638903D01*
X137700830Y-116539035D01*
X137894401Y-116403495D01*
X138035026Y-116262870D01*
X156383500Y-116262870D01*
X156383501Y-116262876D01*
X156389908Y-116322483D01*
X156440202Y-116457328D01*
X156440206Y-116457335D01*
X156526452Y-116572544D01*
X156526455Y-116572547D01*
X156641664Y-116658793D01*
X156641671Y-116658797D01*
X156776517Y-116709091D01*
X156776516Y-116709091D01*
X156783444Y-116709835D01*
X156836127Y-116715500D01*
X158631872Y-116715499D01*
X158691483Y-116709091D01*
X158826331Y-116658796D01*
X158941546Y-116572546D01*
X159027796Y-116457331D01*
X159076810Y-116325916D01*
X159118681Y-116269984D01*
X159184145Y-116245566D01*
X159252418Y-116260417D01*
X159280673Y-116281569D01*
X159402599Y-116403495D01*
X159499384Y-116471265D01*
X159596165Y-116539032D01*
X159596167Y-116539033D01*
X159596170Y-116539035D01*
X159810337Y-116638903D01*
X160038592Y-116700063D01*
X160215034Y-116715500D01*
X160273999Y-116720659D01*
X160274000Y-116720659D01*
X160274001Y-116720659D01*
X160332966Y-116715500D01*
X160509408Y-116700063D01*
X160737663Y-116638903D01*
X160951830Y-116539035D01*
X161145401Y-116403495D01*
X161312495Y-116236401D01*
X161442425Y-116050842D01*
X161497002Y-116007217D01*
X161566500Y-116000023D01*
X161628855Y-116031546D01*
X161645575Y-116050842D01*
X161775500Y-116236395D01*
X161775505Y-116236401D01*
X161942599Y-116403495D01*
X162039384Y-116471265D01*
X162136165Y-116539032D01*
X162136167Y-116539033D01*
X162136170Y-116539035D01*
X162350337Y-116638903D01*
X162578592Y-116700063D01*
X162755034Y-116715500D01*
X162813999Y-116720659D01*
X162814000Y-116720659D01*
X162814001Y-116720659D01*
X162872966Y-116715500D01*
X163049408Y-116700063D01*
X163277663Y-116638903D01*
X163491830Y-116539035D01*
X163685401Y-116403495D01*
X163852495Y-116236401D01*
X163988035Y-116042830D01*
X164087903Y-115828663D01*
X164149063Y-115600408D01*
X164169659Y-115365000D01*
X164149063Y-115129592D01*
X164087903Y-114901337D01*
X163988035Y-114687171D01*
X163982425Y-114679158D01*
X163852494Y-114493597D01*
X163685402Y-114326506D01*
X163685396Y-114326501D01*
X163499842Y-114196575D01*
X163456217Y-114141998D01*
X163449023Y-114072500D01*
X163480546Y-114010145D01*
X163499842Y-113993425D01*
X163562246Y-113949729D01*
X163685401Y-113863495D01*
X163852495Y-113696401D01*
X163988035Y-113502830D01*
X164087903Y-113288663D01*
X164149063Y-113060408D01*
X164169659Y-112825000D01*
X164149063Y-112589592D01*
X164087903Y-112361337D01*
X163988035Y-112147171D01*
X163982731Y-112139595D01*
X163852494Y-111953597D01*
X163685402Y-111786506D01*
X163685395Y-111786501D01*
X163491834Y-111650967D01*
X163491830Y-111650965D01*
X163491828Y-111650964D01*
X163277663Y-111551097D01*
X163277659Y-111551096D01*
X163277655Y-111551094D01*
X163049413Y-111489938D01*
X163049403Y-111489936D01*
X162814001Y-111469341D01*
X162813999Y-111469341D01*
X162578596Y-111489936D01*
X162578586Y-111489938D01*
X162350344Y-111551094D01*
X162350335Y-111551098D01*
X162136171Y-111650964D01*
X162136169Y-111650965D01*
X161942597Y-111786505D01*
X161775505Y-111953597D01*
X161645575Y-112139158D01*
X161590998Y-112182783D01*
X161521500Y-112189977D01*
X161459145Y-112158454D01*
X161442425Y-112139158D01*
X161312494Y-111953597D01*
X161145402Y-111786506D01*
X161145395Y-111786501D01*
X160951834Y-111650967D01*
X160951830Y-111650965D01*
X160951828Y-111650964D01*
X160737663Y-111551097D01*
X160737659Y-111551096D01*
X160737655Y-111551094D01*
X160509413Y-111489938D01*
X160509403Y-111489936D01*
X160274001Y-111469341D01*
X160273999Y-111469341D01*
X160038596Y-111489936D01*
X160038586Y-111489938D01*
X159810344Y-111551094D01*
X159810335Y-111551098D01*
X159596171Y-111650964D01*
X159596169Y-111650965D01*
X159402597Y-111786505D01*
X159235508Y-111953594D01*
X159105269Y-112139595D01*
X159050692Y-112183219D01*
X158981193Y-112190412D01*
X158918839Y-112158890D01*
X158902119Y-112139594D01*
X158772113Y-111953926D01*
X158772108Y-111953920D01*
X158605082Y-111786894D01*
X158411578Y-111651399D01*
X158197492Y-111551570D01*
X158197486Y-111551567D01*
X157984000Y-111494364D01*
X157984000Y-112389498D01*
X157876315Y-112340320D01*
X157769763Y-112325000D01*
X157698237Y-112325000D01*
X157591685Y-112340320D01*
X157484000Y-112389498D01*
X157484000Y-111494364D01*
X157483999Y-111494364D01*
X157270513Y-111551567D01*
X157270507Y-111551570D01*
X157056422Y-111651399D01*
X157056420Y-111651400D01*
X156862926Y-111786886D01*
X156862920Y-111786891D01*
X156695891Y-111953920D01*
X156695886Y-111953926D01*
X156560400Y-112147420D01*
X156560399Y-112147422D01*
X156460570Y-112361507D01*
X156460567Y-112361513D01*
X156403364Y-112574999D01*
X156403364Y-112575000D01*
X157300314Y-112575000D01*
X157274507Y-112615156D01*
X157234000Y-112753111D01*
X157234000Y-112896889D01*
X157274507Y-113034844D01*
X157300314Y-113075000D01*
X156403364Y-113075000D01*
X156460567Y-113288486D01*
X156460570Y-113288492D01*
X156560399Y-113502578D01*
X156695894Y-113696082D01*
X156817946Y-113818134D01*
X156851431Y-113879457D01*
X156846447Y-113949149D01*
X156804575Y-114005082D01*
X156773598Y-114021997D01*
X156641671Y-114071202D01*
X156641664Y-114071206D01*
X156526455Y-114157452D01*
X156526452Y-114157455D01*
X156440206Y-114272664D01*
X156440202Y-114272671D01*
X156389908Y-114407517D01*
X156383501Y-114467116D01*
X156383500Y-114467135D01*
X156383500Y-116262870D01*
X138035026Y-116262870D01*
X138061495Y-116236401D01*
X138197035Y-116042830D01*
X138296903Y-115828663D01*
X138358063Y-115600408D01*
X138378659Y-115365000D01*
X138358063Y-115129592D01*
X138296903Y-114901337D01*
X138197035Y-114687171D01*
X138191425Y-114679158D01*
X138061494Y-114493597D01*
X137894402Y-114326506D01*
X137894396Y-114326501D01*
X137708842Y-114196575D01*
X137665217Y-114141998D01*
X137658023Y-114072500D01*
X137689546Y-114010145D01*
X137708842Y-113993425D01*
X137771246Y-113949729D01*
X137894401Y-113863495D01*
X138061495Y-113696401D01*
X138197035Y-113502830D01*
X138296903Y-113288663D01*
X138358063Y-113060408D01*
X138378659Y-112825000D01*
X138358063Y-112589592D01*
X138296903Y-112361337D01*
X138197035Y-112147171D01*
X138191731Y-112139595D01*
X138061494Y-111953597D01*
X137894402Y-111786506D01*
X137894395Y-111786501D01*
X137700834Y-111650967D01*
X137700830Y-111650965D01*
X137700828Y-111650964D01*
X137486663Y-111551097D01*
X137486659Y-111551096D01*
X137486655Y-111551094D01*
X137258413Y-111489938D01*
X137258403Y-111489936D01*
X137023001Y-111469341D01*
X137022999Y-111469341D01*
X136787596Y-111489936D01*
X136787586Y-111489938D01*
X136559344Y-111551094D01*
X136559335Y-111551098D01*
X136345171Y-111650964D01*
X136345169Y-111650965D01*
X136151597Y-111786505D01*
X135984505Y-111953597D01*
X135854575Y-112139158D01*
X135799998Y-112182783D01*
X135730500Y-112189977D01*
X135668145Y-112158454D01*
X135651425Y-112139158D01*
X135521494Y-111953597D01*
X135354402Y-111786506D01*
X135354395Y-111786501D01*
X135160834Y-111650967D01*
X135160830Y-111650965D01*
X135160828Y-111650964D01*
X134946663Y-111551097D01*
X134946659Y-111551096D01*
X134946655Y-111551094D01*
X134718413Y-111489938D01*
X134718403Y-111489936D01*
X134483001Y-111469341D01*
X134482999Y-111469341D01*
X134247596Y-111489936D01*
X134247586Y-111489938D01*
X134019344Y-111551094D01*
X134019335Y-111551098D01*
X133805171Y-111650964D01*
X133805169Y-111650965D01*
X133611597Y-111786505D01*
X133444505Y-111953597D01*
X133314575Y-112139158D01*
X133259998Y-112182783D01*
X133190500Y-112189977D01*
X133128145Y-112158454D01*
X133111425Y-112139158D01*
X132981494Y-111953597D01*
X132814402Y-111786506D01*
X132814395Y-111786501D01*
X132620834Y-111650967D01*
X132620830Y-111650965D01*
X132620828Y-111650964D01*
X132406663Y-111551097D01*
X132406659Y-111551096D01*
X132406655Y-111551094D01*
X132178413Y-111489938D01*
X132178403Y-111489936D01*
X131943001Y-111469341D01*
X131942999Y-111469341D01*
X131707596Y-111489936D01*
X131707586Y-111489938D01*
X131479344Y-111551094D01*
X131479335Y-111551098D01*
X131265171Y-111650964D01*
X131265169Y-111650965D01*
X131071597Y-111786505D01*
X130904505Y-111953597D01*
X130774575Y-112139158D01*
X130719998Y-112182783D01*
X130650500Y-112189977D01*
X130588145Y-112158454D01*
X130571425Y-112139158D01*
X130441494Y-111953597D01*
X130274402Y-111786506D01*
X130274395Y-111786501D01*
X130080834Y-111650967D01*
X130080830Y-111650965D01*
X130080828Y-111650964D01*
X129866663Y-111551097D01*
X129866659Y-111551096D01*
X129866655Y-111551094D01*
X129638413Y-111489938D01*
X129638403Y-111489936D01*
X129403001Y-111469341D01*
X129402999Y-111469341D01*
X129167596Y-111489936D01*
X129167586Y-111489938D01*
X128939344Y-111551094D01*
X128939335Y-111551098D01*
X128725171Y-111650964D01*
X128725169Y-111650965D01*
X128531597Y-111786505D01*
X128364505Y-111953597D01*
X128234575Y-112139158D01*
X128179998Y-112182783D01*
X128110500Y-112189977D01*
X128048145Y-112158454D01*
X128031425Y-112139158D01*
X127901494Y-111953597D01*
X127734402Y-111786506D01*
X127734395Y-111786501D01*
X127540834Y-111650967D01*
X127540830Y-111650965D01*
X127540828Y-111650964D01*
X127326663Y-111551097D01*
X127326659Y-111551096D01*
X127326655Y-111551094D01*
X127098413Y-111489938D01*
X127098403Y-111489936D01*
X126863001Y-111469341D01*
X126862999Y-111469341D01*
X126627596Y-111489936D01*
X126627586Y-111489938D01*
X126399344Y-111551094D01*
X126399335Y-111551098D01*
X126185171Y-111650964D01*
X126185169Y-111650965D01*
X125991597Y-111786505D01*
X125824505Y-111953597D01*
X125688965Y-112147169D01*
X125688964Y-112147171D01*
X125589098Y-112361335D01*
X125589094Y-112361344D01*
X125527938Y-112589586D01*
X125527936Y-112589596D01*
X125507341Y-112824999D01*
X125507341Y-112825000D01*
X107527659Y-112825000D01*
X107507063Y-112589592D01*
X107445903Y-112361337D01*
X107346035Y-112147171D01*
X107340731Y-112139595D01*
X107210494Y-111953597D01*
X107043402Y-111786506D01*
X107043395Y-111786501D01*
X106849834Y-111650967D01*
X106849830Y-111650965D01*
X106849828Y-111650964D01*
X106635663Y-111551097D01*
X106635659Y-111551096D01*
X106635655Y-111551094D01*
X106407413Y-111489938D01*
X106407403Y-111489936D01*
X106172001Y-111469341D01*
X106171999Y-111469341D01*
X105936596Y-111489936D01*
X105936586Y-111489938D01*
X105708344Y-111551094D01*
X105708335Y-111551098D01*
X105494171Y-111650964D01*
X105494169Y-111650965D01*
X105300597Y-111786505D01*
X105133505Y-111953597D01*
X105003575Y-112139158D01*
X104948998Y-112182783D01*
X104879500Y-112189977D01*
X104817145Y-112158454D01*
X104800425Y-112139158D01*
X104670494Y-111953597D01*
X104503402Y-111786506D01*
X104503395Y-111786501D01*
X104309834Y-111650967D01*
X104309830Y-111650965D01*
X104309828Y-111650964D01*
X104095663Y-111551097D01*
X104095659Y-111551096D01*
X104095655Y-111551094D01*
X103867413Y-111489938D01*
X103867403Y-111489936D01*
X103632001Y-111469341D01*
X103631999Y-111469341D01*
X103396596Y-111489936D01*
X103396586Y-111489938D01*
X103168344Y-111551094D01*
X103168335Y-111551098D01*
X102954171Y-111650964D01*
X102954169Y-111650965D01*
X102760597Y-111786505D01*
X102593505Y-111953597D01*
X102463575Y-112139158D01*
X102408998Y-112182783D01*
X102339500Y-112189977D01*
X102277145Y-112158454D01*
X102260425Y-112139158D01*
X102130494Y-111953597D01*
X101963402Y-111786506D01*
X101963395Y-111786501D01*
X101769834Y-111650967D01*
X101769830Y-111650965D01*
X101769828Y-111650964D01*
X101555663Y-111551097D01*
X101555659Y-111551096D01*
X101555655Y-111551094D01*
X101327413Y-111489938D01*
X101327403Y-111489936D01*
X101092001Y-111469341D01*
X101091999Y-111469341D01*
X100856596Y-111489936D01*
X100856586Y-111489938D01*
X100628344Y-111551094D01*
X100628335Y-111551098D01*
X100414171Y-111650964D01*
X100414169Y-111650965D01*
X100220597Y-111786505D01*
X100053505Y-111953597D01*
X99917965Y-112147169D01*
X99917964Y-112147171D01*
X99818098Y-112361335D01*
X99818094Y-112361344D01*
X99756938Y-112589586D01*
X99756936Y-112589596D01*
X99736341Y-112824999D01*
X99736341Y-112825000D01*
X89408500Y-112825000D01*
X89408500Y-110325002D01*
X119744540Y-110325002D01*
X119746005Y-110338945D01*
X119746514Y-110358389D01*
X119745780Y-110372386D01*
X119756388Y-110439367D01*
X119757234Y-110445798D01*
X119764325Y-110513248D01*
X119764326Y-110513255D01*
X119768661Y-110526599D01*
X119773199Y-110545504D01*
X119775392Y-110559348D01*
X119775394Y-110559354D01*
X119799690Y-110622648D01*
X119801857Y-110628766D01*
X119822820Y-110693283D01*
X119829827Y-110705418D01*
X119838206Y-110722985D01*
X119843227Y-110736067D01*
X119880164Y-110792946D01*
X119883555Y-110798479D01*
X119917469Y-110857219D01*
X119917470Y-110857220D01*
X119926848Y-110867635D01*
X119938697Y-110883077D01*
X119946326Y-110894826D01*
X119994274Y-110942773D01*
X119998744Y-110947483D01*
X120044129Y-110997888D01*
X120055468Y-111006126D01*
X120070265Y-111018764D01*
X120080176Y-111028675D01*
X120137054Y-111065612D01*
X120142388Y-111069277D01*
X120197270Y-111109151D01*
X120209418Y-111114559D01*
X120210073Y-111114851D01*
X120227174Y-111124137D01*
X120238925Y-111131768D01*
X120238930Y-111131771D01*
X120251860Y-111136734D01*
X120302243Y-111156074D01*
X120308234Y-111158555D01*
X120370197Y-111186144D01*
X120383918Y-111189060D01*
X120402564Y-111194583D01*
X120415650Y-111199607D01*
X120482653Y-111210218D01*
X120488988Y-111211393D01*
X120555354Y-111225500D01*
X120569373Y-111225500D01*
X120588772Y-111227027D01*
X120602612Y-111229219D01*
X120670337Y-111225670D01*
X120676826Y-111225500D01*
X120744643Y-111225500D01*
X120744646Y-111225500D01*
X120758359Y-111222584D01*
X120777647Y-111220046D01*
X120791646Y-111219313D01*
X120857200Y-111201747D01*
X120863442Y-111200249D01*
X120929803Y-111186144D01*
X120942604Y-111180443D01*
X120960954Y-111173946D01*
X120960964Y-111173943D01*
X120974488Y-111170320D01*
X121034948Y-111139512D01*
X121040752Y-111136744D01*
X121102730Y-111109151D01*
X121114059Y-111100918D01*
X121130656Y-111090747D01*
X121143149Y-111084383D01*
X121195866Y-111041691D01*
X121200983Y-111037764D01*
X121255871Y-110997888D01*
X121301273Y-110947462D01*
X121305706Y-110942791D01*
X122691395Y-109557102D01*
X122752717Y-109523619D01*
X122822409Y-109528603D01*
X122878342Y-109570475D01*
X122902759Y-109635939D01*
X122903075Y-109644785D01*
X122903075Y-110628455D01*
X122918500Y-110780151D01*
X122979412Y-110974291D01*
X122979419Y-110974306D01*
X123078164Y-111152211D01*
X123078167Y-111152216D01*
X123210707Y-111306605D01*
X123210709Y-111306607D01*
X123371612Y-111431157D01*
X123371613Y-111431157D01*
X123371617Y-111431160D01*
X123554304Y-111520772D01*
X123751290Y-111571775D01*
X123954511Y-111582081D01*
X124155646Y-111551268D01*
X124346462Y-111480598D01*
X124519146Y-111372964D01*
X124666628Y-111232771D01*
X124782870Y-111065761D01*
X124863115Y-110878770D01*
X124904075Y-110679453D01*
X124904075Y-109092841D01*
X124923760Y-109025802D01*
X124940394Y-109005160D01*
X126591557Y-107353997D01*
X126652880Y-107320512D01*
X126679238Y-107317678D01*
X129265313Y-107317678D01*
X129290274Y-107320215D01*
X129318074Y-107325929D01*
X129377057Y-107325929D01*
X129386471Y-107326286D01*
X129394825Y-107326923D01*
X129445291Y-107330766D01*
X129445291Y-107330765D01*
X129445292Y-107330766D01*
X129475467Y-107326922D01*
X129491134Y-107325929D01*
X163386292Y-107325929D01*
X163389434Y-107325969D01*
X163476929Y-107328186D01*
X163476929Y-107328185D01*
X163476934Y-107328186D01*
X163534996Y-107317778D01*
X163544325Y-107316470D01*
X163603009Y-107310503D01*
X163632042Y-107301393D01*
X163647271Y-107297655D01*
X163677224Y-107292287D01*
X163677228Y-107292285D01*
X163677230Y-107292285D01*
X163731994Y-107270409D01*
X163740863Y-107267250D01*
X163797159Y-107249588D01*
X163823771Y-107234816D01*
X163837933Y-107228091D01*
X163866188Y-107216806D01*
X163915450Y-107184338D01*
X163923481Y-107179472D01*
X163975073Y-107150838D01*
X163975080Y-107150831D01*
X163975083Y-107150830D01*
X163998154Y-107131023D01*
X164010696Y-107121566D01*
X164036090Y-107104831D01*
X164077808Y-107063111D01*
X164084693Y-107056730D01*
X164129466Y-107018295D01*
X164148091Y-106994231D01*
X164158451Y-106982468D01*
X166649439Y-104491480D01*
X166710760Y-104457997D01*
X166780452Y-104462981D01*
X166782654Y-104463827D01*
X166845775Y-104488819D01*
X166845778Y-104488820D01*
X167150523Y-104567065D01*
X167150527Y-104567066D01*
X167216010Y-104575338D01*
X167462670Y-104606499D01*
X167462679Y-104606499D01*
X167462682Y-104606500D01*
X167462684Y-104606500D01*
X167777316Y-104606500D01*
X167777318Y-104606500D01*
X167777321Y-104606499D01*
X167777329Y-104606499D01*
X167963593Y-104582968D01*
X168089473Y-104567066D01*
X168394225Y-104488819D01*
X168457237Y-104463871D01*
X168686757Y-104372998D01*
X168686758Y-104372997D01*
X168686756Y-104372997D01*
X168686766Y-104372994D01*
X168962484Y-104221416D01*
X169217030Y-104036478D01*
X169446390Y-103821094D01*
X169646947Y-103578663D01*
X169815537Y-103313007D01*
X169949503Y-103028315D01*
X170046731Y-102729079D01*
X170105688Y-102420015D01*
X170121260Y-102172505D01*
X170125444Y-102106005D01*
X170125444Y-102105994D01*
X170105689Y-101791995D01*
X170105688Y-101791988D01*
X170105688Y-101791985D01*
X170046731Y-101482921D01*
X169949503Y-101183685D01*
X169815537Y-100898993D01*
X169726439Y-100758596D01*
X169646948Y-100633338D01*
X169646945Y-100633334D01*
X169446393Y-100390909D01*
X169446391Y-100390907D01*
X169363245Y-100312827D01*
X169217030Y-100175522D01*
X169217027Y-100175520D01*
X169217021Y-100175515D01*
X168962495Y-99990591D01*
X168962483Y-99990583D01*
X168684762Y-99837904D01*
X168635498Y-99788357D01*
X168620500Y-99729242D01*
X168620500Y-97116757D01*
X168640185Y-97049718D01*
X168684762Y-97008095D01*
X168686761Y-97006995D01*
X168686766Y-97006994D01*
X168962484Y-96855416D01*
X169217030Y-96670478D01*
X169446390Y-96455094D01*
X169646947Y-96212663D01*
X169815537Y-95947007D01*
X169949503Y-95662315D01*
X170046731Y-95363079D01*
X170105688Y-95054015D01*
X170111722Y-94958111D01*
X170125444Y-94740005D01*
X170125444Y-94739994D01*
X170105689Y-94425995D01*
X170105688Y-94425988D01*
X170105688Y-94425985D01*
X170046731Y-94116921D01*
X169949503Y-93817685D01*
X169815537Y-93532993D01*
X169751861Y-93432656D01*
X169646948Y-93267338D01*
X169646945Y-93267334D01*
X169446393Y-93024909D01*
X169446391Y-93024907D01*
X169217031Y-92809523D01*
X169217021Y-92809515D01*
X168962495Y-92624591D01*
X168962488Y-92624586D01*
X168962484Y-92624584D01*
X168686766Y-92473006D01*
X168686763Y-92473004D01*
X168686758Y-92473002D01*
X168686757Y-92473001D01*
X168394228Y-92357181D01*
X168394225Y-92357180D01*
X168089476Y-92278934D01*
X168089463Y-92278932D01*
X167777329Y-92239500D01*
X167777318Y-92239500D01*
X167462682Y-92239500D01*
X167462670Y-92239500D01*
X167150536Y-92278932D01*
X167150523Y-92278934D01*
X166845774Y-92357180D01*
X166845771Y-92357181D01*
X166553242Y-92473001D01*
X166553241Y-92473002D01*
X166277516Y-92624584D01*
X166277504Y-92624591D01*
X166022978Y-92809515D01*
X166022968Y-92809523D01*
X165793608Y-93024907D01*
X165793606Y-93024909D01*
X165593054Y-93267334D01*
X165593051Y-93267338D01*
X165424464Y-93532990D01*
X165424461Y-93532996D01*
X165290499Y-93817678D01*
X165290497Y-93817683D01*
X165193270Y-94116916D01*
X165134311Y-94425988D01*
X165134310Y-94425995D01*
X165114556Y-94739994D01*
X165114556Y-94740005D01*
X165134310Y-95054004D01*
X165134311Y-95054011D01*
X165163790Y-95208547D01*
X165191306Y-95352791D01*
X165193270Y-95363083D01*
X165290497Y-95662316D01*
X165290499Y-95662321D01*
X165424461Y-95947003D01*
X165424464Y-95947009D01*
X165593051Y-96212661D01*
X165593054Y-96212665D01*
X165793606Y-96455090D01*
X165793608Y-96455092D01*
X165793610Y-96455094D01*
X165941201Y-96593691D01*
X166022968Y-96670476D01*
X166022978Y-96670484D01*
X166277504Y-96855408D01*
X166277509Y-96855410D01*
X166277516Y-96855416D01*
X166553234Y-97006994D01*
X166553238Y-97006995D01*
X166555238Y-97008095D01*
X166604502Y-97057641D01*
X166619500Y-97116757D01*
X166619500Y-99729242D01*
X166599815Y-99796281D01*
X166555238Y-99837904D01*
X166277516Y-99990583D01*
X166277504Y-99990591D01*
X166022978Y-100175515D01*
X166022968Y-100175523D01*
X165793608Y-100390907D01*
X165793606Y-100390909D01*
X165593054Y-100633334D01*
X165593051Y-100633338D01*
X165424464Y-100898990D01*
X165424461Y-100898996D01*
X165290499Y-101183678D01*
X165290497Y-101183683D01*
X165193270Y-101482916D01*
X165134311Y-101791988D01*
X165134310Y-101791995D01*
X165114556Y-102105994D01*
X165114556Y-102106005D01*
X165134310Y-102420004D01*
X165134311Y-102420011D01*
X165134312Y-102420015D01*
X165193269Y-102729079D01*
X165193270Y-102729083D01*
X165193271Y-102729086D01*
X165265118Y-102950212D01*
X165267113Y-103020053D01*
X165234868Y-103076210D01*
X163022470Y-105288610D01*
X162961147Y-105322095D01*
X162934789Y-105324929D01*
X138252613Y-105324929D01*
X138185574Y-105305244D01*
X138139819Y-105252440D01*
X138129292Y-105213891D01*
X138126229Y-105184749D01*
X138125550Y-105171668D01*
X138125589Y-105131203D01*
X138120976Y-105109403D01*
X138118973Y-105096719D01*
X138110674Y-105017744D01*
X138052179Y-104837716D01*
X137957533Y-104673784D01*
X137830871Y-104533112D01*
X137830870Y-104533111D01*
X137677734Y-104421851D01*
X137677729Y-104421848D01*
X137504807Y-104344857D01*
X137504802Y-104344855D01*
X137348754Y-104311687D01*
X137319646Y-104305500D01*
X137130354Y-104305500D01*
X137080987Y-104315993D01*
X137054583Y-104321605D01*
X137028687Y-104324314D01*
X126220538Y-104314130D01*
X126218733Y-104314035D01*
X126213253Y-104314035D01*
X126131111Y-104314035D01*
X126128084Y-104313998D01*
X125859013Y-104307428D01*
X125842646Y-104305939D01*
X125816387Y-104301780D01*
X125761168Y-104304674D01*
X125751664Y-104304807D01*
X125743810Y-104304615D01*
X125743794Y-104304616D01*
X125710980Y-104307256D01*
X125707529Y-104307485D01*
X125627357Y-104311687D01*
X125627349Y-104311688D01*
X125625968Y-104312059D01*
X125603853Y-104315878D01*
X125602423Y-104315993D01*
X125602412Y-104315995D01*
X125525440Y-104338943D01*
X125522109Y-104339886D01*
X125444512Y-104360679D01*
X125444507Y-104360681D01*
X125443227Y-104361334D01*
X125422400Y-104369665D01*
X125421016Y-104370077D01*
X125421011Y-104370079D01*
X125350489Y-104408531D01*
X125347427Y-104410146D01*
X125275847Y-104446619D01*
X125275840Y-104446623D01*
X125274720Y-104447531D01*
X125256093Y-104460001D01*
X125254833Y-104460688D01*
X125254819Y-104460697D01*
X125193837Y-104512967D01*
X125191180Y-104515181D01*
X125165625Y-104535876D01*
X125165609Y-104535890D01*
X125160065Y-104541434D01*
X125153096Y-104547888D01*
X125111097Y-104583888D01*
X125111096Y-104583890D01*
X125094946Y-104605013D01*
X125084121Y-104617378D01*
X120070263Y-109631236D01*
X120055474Y-109643869D01*
X120044126Y-109652114D01*
X119998751Y-109702508D01*
X119994288Y-109707211D01*
X119979891Y-109721609D01*
X119979875Y-109721627D01*
X119967058Y-109737452D01*
X119962852Y-109742376D01*
X119917469Y-109792781D01*
X119917466Y-109792785D01*
X119910458Y-109804923D01*
X119899444Y-109820948D01*
X119890626Y-109831837D01*
X119890616Y-109831853D01*
X119859819Y-109892294D01*
X119856722Y-109897997D01*
X119822821Y-109956713D01*
X119818487Y-109970053D01*
X119811045Y-109988020D01*
X119804680Y-110000512D01*
X119787126Y-110066018D01*
X119785284Y-110072234D01*
X119764326Y-110136742D01*
X119764325Y-110136745D01*
X119762860Y-110150686D01*
X119759315Y-110169812D01*
X119755686Y-110183352D01*
X119752137Y-110251083D01*
X119751628Y-110257553D01*
X119744540Y-110325000D01*
X119744540Y-110325002D01*
X89408500Y-110325002D01*
X89408500Y-99030401D01*
X97912746Y-99030401D01*
X97922745Y-99240327D01*
X97972296Y-99444578D01*
X97972298Y-99444582D01*
X98059598Y-99635743D01*
X98059601Y-99635748D01*
X98059602Y-99635750D01*
X98059604Y-99635753D01*
X98176747Y-99800257D01*
X98181515Y-99806953D01*
X98284456Y-99905107D01*
X98319391Y-99965616D01*
X98316066Y-100035406D01*
X98275538Y-100092321D01*
X98263983Y-100100388D01*
X98198659Y-100140680D01*
X98198655Y-100140683D01*
X98074684Y-100264654D01*
X97982643Y-100413875D01*
X97982641Y-100413880D01*
X97927494Y-100580302D01*
X97927493Y-100580309D01*
X97917000Y-100683013D01*
X97917000Y-100833000D01*
X99012440Y-100833000D01*
X98973722Y-100875059D01*
X98923449Y-100989670D01*
X98913114Y-101114395D01*
X98943837Y-101235719D01*
X99007394Y-101333000D01*
X97917001Y-101333000D01*
X97917001Y-101482986D01*
X97927494Y-101585697D01*
X97982641Y-101752119D01*
X97982643Y-101752124D01*
X98074684Y-101901345D01*
X98198654Y-102025315D01*
X98347875Y-102117356D01*
X98347880Y-102117358D01*
X98514302Y-102172505D01*
X98514309Y-102172506D01*
X98617019Y-102182999D01*
X99041999Y-102182999D01*
X99042000Y-102182998D01*
X99042000Y-101363617D01*
X99111052Y-101417363D01*
X99229424Y-101458000D01*
X99323073Y-101458000D01*
X99415446Y-101442586D01*
X99525514Y-101383019D01*
X99542000Y-101365110D01*
X99542000Y-102182999D01*
X99966972Y-102182999D01*
X99966986Y-102182998D01*
X100069697Y-102172505D01*
X100236119Y-102117358D01*
X100236124Y-102117356D01*
X100385345Y-102025315D01*
X100509315Y-101901345D01*
X100601356Y-101752124D01*
X100601358Y-101752119D01*
X100656505Y-101585697D01*
X100656506Y-101585690D01*
X100666999Y-101482986D01*
X100667000Y-101482973D01*
X100667000Y-101333000D01*
X99571560Y-101333000D01*
X99610278Y-101290941D01*
X99660551Y-101176330D01*
X99670886Y-101051605D01*
X99640163Y-100930281D01*
X99576606Y-100833000D01*
X100666999Y-100833000D01*
X100666999Y-100683028D01*
X100666998Y-100683013D01*
X100656505Y-100580302D01*
X100601358Y-100413880D01*
X100601356Y-100413875D01*
X100509315Y-100264654D01*
X100439842Y-100195181D01*
X100406357Y-100133858D01*
X100411341Y-100064166D01*
X100453213Y-100008233D01*
X100518677Y-99983816D01*
X100527523Y-99983500D01*
X105676477Y-99983500D01*
X105743516Y-100003185D01*
X105789271Y-100055989D01*
X105799215Y-100125147D01*
X105770190Y-100188703D01*
X105764158Y-100195181D01*
X105694684Y-100264654D01*
X105602643Y-100413875D01*
X105602641Y-100413880D01*
X105547494Y-100580302D01*
X105547493Y-100580309D01*
X105537000Y-100683013D01*
X105537000Y-100833000D01*
X106632440Y-100833000D01*
X106593722Y-100875059D01*
X106543449Y-100989670D01*
X106533114Y-101114395D01*
X106563837Y-101235719D01*
X106627394Y-101333000D01*
X105537001Y-101333000D01*
X105537001Y-101482986D01*
X105547494Y-101585697D01*
X105602641Y-101752119D01*
X105602643Y-101752124D01*
X105694684Y-101901345D01*
X105818654Y-102025315D01*
X105967875Y-102117356D01*
X105967880Y-102117358D01*
X106134302Y-102172505D01*
X106134309Y-102172506D01*
X106237019Y-102182999D01*
X106661999Y-102182999D01*
X106662000Y-102182998D01*
X106662000Y-101363617D01*
X106731052Y-101417363D01*
X106849424Y-101458000D01*
X106943073Y-101458000D01*
X107035446Y-101442586D01*
X107145514Y-101383019D01*
X107162000Y-101365110D01*
X107162000Y-102182999D01*
X107586972Y-102182999D01*
X107586986Y-102182998D01*
X107689697Y-102172505D01*
X107856119Y-102117358D01*
X107856124Y-102117356D01*
X108005345Y-102025315D01*
X108129315Y-101901345D01*
X108221356Y-101752124D01*
X108221358Y-101752119D01*
X108276505Y-101585697D01*
X108276506Y-101585690D01*
X108286999Y-101482986D01*
X108287000Y-101482973D01*
X108287000Y-101333000D01*
X107191560Y-101333000D01*
X107230278Y-101290941D01*
X107280551Y-101176330D01*
X107290886Y-101051605D01*
X107260163Y-100930281D01*
X107196606Y-100833000D01*
X108286999Y-100833000D01*
X108286999Y-100683028D01*
X108286998Y-100683013D01*
X108276505Y-100580302D01*
X108221358Y-100413880D01*
X108221356Y-100413875D01*
X108129315Y-100264654D01*
X108059842Y-100195181D01*
X108026357Y-100133858D01*
X108031341Y-100064166D01*
X108073213Y-100008233D01*
X108138677Y-99983816D01*
X108147523Y-99983500D01*
X113296477Y-99983500D01*
X113363516Y-100003185D01*
X113409271Y-100055989D01*
X113419215Y-100125147D01*
X113390190Y-100188703D01*
X113384158Y-100195181D01*
X113314684Y-100264654D01*
X113222643Y-100413875D01*
X113222641Y-100413880D01*
X113167494Y-100580302D01*
X113167493Y-100580309D01*
X113157000Y-100683013D01*
X113157000Y-100833000D01*
X114252440Y-100833000D01*
X114213722Y-100875059D01*
X114163449Y-100989670D01*
X114153114Y-101114395D01*
X114183837Y-101235719D01*
X114247394Y-101333000D01*
X113157001Y-101333000D01*
X113157001Y-101482986D01*
X113167494Y-101585697D01*
X113222641Y-101752119D01*
X113222643Y-101752124D01*
X113314684Y-101901345D01*
X113438654Y-102025315D01*
X113587875Y-102117356D01*
X113587880Y-102117358D01*
X113754302Y-102172505D01*
X113754309Y-102172506D01*
X113857019Y-102182999D01*
X114281999Y-102182999D01*
X114282000Y-102182998D01*
X114282000Y-101363617D01*
X114351052Y-101417363D01*
X114469424Y-101458000D01*
X114563073Y-101458000D01*
X114655446Y-101442586D01*
X114765514Y-101383019D01*
X114782000Y-101365110D01*
X114782000Y-102182999D01*
X115206972Y-102182999D01*
X115206986Y-102182998D01*
X115309697Y-102172505D01*
X115476119Y-102117358D01*
X115476124Y-102117356D01*
X115625345Y-102025315D01*
X115749315Y-101901345D01*
X115841356Y-101752124D01*
X115841358Y-101752119D01*
X115896505Y-101585697D01*
X115896506Y-101585690D01*
X115906999Y-101482986D01*
X115907000Y-101482973D01*
X115907000Y-101333000D01*
X114811560Y-101333000D01*
X114850278Y-101290941D01*
X114900551Y-101176330D01*
X114910886Y-101051605D01*
X114880163Y-100930281D01*
X114816606Y-100833000D01*
X115906999Y-100833000D01*
X115906999Y-100683028D01*
X115906998Y-100683013D01*
X115896505Y-100580302D01*
X115841358Y-100413880D01*
X115841356Y-100413875D01*
X115749315Y-100264654D01*
X115625344Y-100140683D01*
X115625340Y-100140680D01*
X115561841Y-100101513D01*
X115515116Y-100049565D01*
X115503895Y-99980603D01*
X115531738Y-99916521D01*
X115550289Y-99898503D01*
X115569882Y-99883095D01*
X115569881Y-99883095D01*
X115569886Y-99883092D01*
X115707519Y-99724256D01*
X115710404Y-99719260D01*
X115812601Y-99542249D01*
X115812600Y-99542249D01*
X115812604Y-99542244D01*
X115881344Y-99343633D01*
X115911254Y-99135602D01*
X115901254Y-98925670D01*
X115851704Y-98721424D01*
X115851701Y-98721417D01*
X115764401Y-98530256D01*
X115764398Y-98530251D01*
X115764397Y-98530250D01*
X115764396Y-98530247D01*
X115642486Y-98359048D01*
X115642484Y-98359046D01*
X115642479Y-98359040D01*
X115490379Y-98214014D01*
X115449057Y-98187458D01*
X115403302Y-98134654D01*
X115393359Y-98065496D01*
X115422384Y-98001940D01*
X115439445Y-97985673D01*
X115518389Y-97923590D01*
X115569886Y-97883092D01*
X115707519Y-97724256D01*
X115812604Y-97542244D01*
X115881344Y-97343633D01*
X115911254Y-97135602D01*
X115901254Y-96925670D01*
X115851704Y-96721424D01*
X115851701Y-96721417D01*
X115764401Y-96530256D01*
X115764398Y-96530251D01*
X115764397Y-96530250D01*
X115764396Y-96530247D01*
X115642486Y-96359048D01*
X115642484Y-96359046D01*
X115642479Y-96359040D01*
X115490379Y-96214014D01*
X115449057Y-96187458D01*
X115403302Y-96134654D01*
X115393359Y-96065496D01*
X115422384Y-96001940D01*
X115439445Y-95985673D01*
X115569883Y-95883094D01*
X115569886Y-95883092D01*
X115707519Y-95724256D01*
X115714385Y-95712365D01*
X115812601Y-95542249D01*
X115812600Y-95542249D01*
X115812604Y-95542244D01*
X115881344Y-95343633D01*
X115911254Y-95135602D01*
X115901254Y-94925670D01*
X115851704Y-94721424D01*
X115851701Y-94721417D01*
X115764401Y-94530256D01*
X115764398Y-94530251D01*
X115764397Y-94530250D01*
X115764396Y-94530247D01*
X115642486Y-94359048D01*
X115642484Y-94359046D01*
X115642479Y-94359040D01*
X115490379Y-94214014D01*
X115313574Y-94100388D01*
X115118455Y-94022274D01*
X114912086Y-93982500D01*
X114912085Y-93982500D01*
X114204575Y-93982500D01*
X114047782Y-93997472D01*
X114047778Y-93997473D01*
X113846127Y-94056683D01*
X113659315Y-94152990D01*
X113655530Y-94155968D01*
X113590666Y-94181938D01*
X113578875Y-94182500D01*
X107857752Y-94182500D01*
X107790713Y-94162815D01*
X107693576Y-94100389D01*
X107693573Y-94100388D01*
X107693572Y-94100387D01*
X107498457Y-94022275D01*
X107498455Y-94022274D01*
X107292086Y-93982500D01*
X107292085Y-93982500D01*
X106584575Y-93982500D01*
X106427782Y-93997472D01*
X106427778Y-93997473D01*
X106226127Y-94056683D01*
X106039315Y-94152990D01*
X106035530Y-94155968D01*
X105970666Y-94181938D01*
X105958875Y-94182500D01*
X100237752Y-94182500D01*
X100170713Y-94162815D01*
X100073576Y-94100389D01*
X100073573Y-94100388D01*
X100073572Y-94100387D01*
X99878457Y-94022275D01*
X99878455Y-94022274D01*
X99672086Y-93982500D01*
X99672085Y-93982500D01*
X98964575Y-93982500D01*
X98807782Y-93997472D01*
X98807778Y-93997473D01*
X98606127Y-94056683D01*
X98419313Y-94152991D01*
X98254116Y-94282905D01*
X98254112Y-94282909D01*
X98116478Y-94441746D01*
X98011398Y-94623750D01*
X97942656Y-94822365D01*
X97942656Y-94822367D01*
X97917374Y-94998214D01*
X97912746Y-95030401D01*
X97922745Y-95240327D01*
X97972296Y-95444578D01*
X97972298Y-95444582D01*
X98059598Y-95635743D01*
X98059601Y-95635748D01*
X98059602Y-95635750D01*
X98059604Y-95635753D01*
X98170217Y-95791087D01*
X98181515Y-95806953D01*
X98181520Y-95806959D01*
X98333619Y-95951984D01*
X98374941Y-95978540D01*
X98420696Y-96031344D01*
X98430640Y-96100503D01*
X98401615Y-96164059D01*
X98384555Y-96180326D01*
X98254112Y-96282909D01*
X98116478Y-96441746D01*
X98011398Y-96623750D01*
X97942656Y-96822365D01*
X97942656Y-96822367D01*
X97927804Y-96925670D01*
X97912746Y-97030401D01*
X97922745Y-97240327D01*
X97972296Y-97444578D01*
X97972298Y-97444582D01*
X98059598Y-97635743D01*
X98059601Y-97635748D01*
X98059602Y-97635750D01*
X98059604Y-97635753D01*
X98122627Y-97724256D01*
X98181515Y-97806953D01*
X98181520Y-97806959D01*
X98333619Y-97951984D01*
X98333621Y-97951985D01*
X98333622Y-97951986D01*
X98373705Y-97977746D01*
X98374941Y-97978540D01*
X98420696Y-98031344D01*
X98430640Y-98100503D01*
X98401615Y-98164059D01*
X98384555Y-98180326D01*
X98254112Y-98282909D01*
X98116478Y-98441746D01*
X98011398Y-98623750D01*
X97942656Y-98822365D01*
X97942656Y-98822367D01*
X97927162Y-98930135D01*
X97912746Y-99030401D01*
X89408500Y-99030401D01*
X89408500Y-92583000D01*
X117077540Y-92583000D01*
X117097326Y-92771256D01*
X117097327Y-92771259D01*
X117155818Y-92951277D01*
X117155821Y-92951284D01*
X117250467Y-93115216D01*
X117377129Y-93255888D01*
X117530265Y-93367148D01*
X117530270Y-93367151D01*
X117703192Y-93444142D01*
X117703197Y-93444144D01*
X117888354Y-93483500D01*
X117888355Y-93483500D01*
X118077644Y-93483500D01*
X118077646Y-93483500D01*
X118262803Y-93444144D01*
X118435730Y-93367151D01*
X118437776Y-93365664D01*
X118449452Y-93357182D01*
X118515258Y-93333702D01*
X118522337Y-93333500D01*
X121285729Y-93333500D01*
X121352768Y-93353185D01*
X121398523Y-93405989D01*
X121409049Y-93470459D01*
X121395540Y-93599000D01*
X121415326Y-93787256D01*
X121415327Y-93787259D01*
X121473818Y-93967277D01*
X121473821Y-93967284D01*
X121505569Y-94022274D01*
X121533887Y-94071321D01*
X121550500Y-94133321D01*
X121550500Y-95245376D01*
X121549191Y-95263345D01*
X121545710Y-95287107D01*
X121550028Y-95336450D01*
X121550500Y-95347258D01*
X121550500Y-95352793D01*
X121554098Y-95383577D01*
X121554464Y-95387165D01*
X121561000Y-95461873D01*
X121562461Y-95468949D01*
X121562403Y-95468960D01*
X121564034Y-95476319D01*
X121564092Y-95476306D01*
X121565757Y-95483331D01*
X121565758Y-95483336D01*
X121565759Y-95483337D01*
X121587200Y-95542249D01*
X121591400Y-95553787D01*
X121592582Y-95557189D01*
X121616182Y-95628408D01*
X121619236Y-95634956D01*
X121619182Y-95634980D01*
X121622470Y-95641770D01*
X121622521Y-95641745D01*
X121625761Y-95648196D01*
X121666979Y-95710866D01*
X121668889Y-95713864D01*
X121675298Y-95724253D01*
X121708289Y-95777740D01*
X121712766Y-95783401D01*
X121712719Y-95783438D01*
X121717482Y-95789284D01*
X121717528Y-95789246D01*
X121722173Y-95794781D01*
X121776707Y-95846231D01*
X121779295Y-95848745D01*
X125499188Y-99568638D01*
X125510969Y-99582270D01*
X125525306Y-99601528D01*
X125563255Y-99633372D01*
X125571228Y-99640679D01*
X125575135Y-99644586D01*
X125575141Y-99644591D01*
X125599455Y-99663816D01*
X125602236Y-99666080D01*
X125629874Y-99689271D01*
X125659707Y-99714305D01*
X125665736Y-99718270D01*
X125665703Y-99718319D01*
X125672065Y-99722372D01*
X125672097Y-99722321D01*
X125678237Y-99726108D01*
X125678241Y-99726111D01*
X125716895Y-99744135D01*
X125746238Y-99757819D01*
X125749484Y-99759391D01*
X125816480Y-99793038D01*
X125823275Y-99795511D01*
X125823254Y-99795567D01*
X125830375Y-99798043D01*
X125830394Y-99797986D01*
X125837237Y-99800253D01*
X125837245Y-99800257D01*
X125910813Y-99815447D01*
X125914146Y-99816186D01*
X125987197Y-99833500D01*
X125987199Y-99833500D01*
X125987203Y-99833501D01*
X125994371Y-99834339D01*
X125994364Y-99834398D01*
X126001862Y-99835164D01*
X126001868Y-99835105D01*
X126009057Y-99835734D01*
X126009061Y-99835733D01*
X126009062Y-99835734D01*
X126084048Y-99833552D01*
X126087655Y-99833500D01*
X132195715Y-99833500D01*
X132262754Y-99853185D01*
X132281285Y-99867758D01*
X132320456Y-99905108D01*
X132355391Y-99965617D01*
X132352066Y-100035407D01*
X132311537Y-100092321D01*
X132299983Y-100100388D01*
X132234659Y-100140680D01*
X132234655Y-100140683D01*
X132110684Y-100264654D01*
X132018643Y-100413875D01*
X132018641Y-100413880D01*
X131963494Y-100580302D01*
X131963493Y-100580309D01*
X131953000Y-100683013D01*
X131953000Y-100833000D01*
X133048440Y-100833000D01*
X133009722Y-100875059D01*
X132959449Y-100989670D01*
X132949114Y-101114395D01*
X132979837Y-101235719D01*
X133043394Y-101333000D01*
X131953001Y-101333000D01*
X131953001Y-101482986D01*
X131963494Y-101585697D01*
X132018641Y-101752119D01*
X132018643Y-101752124D01*
X132110684Y-101901345D01*
X132234654Y-102025315D01*
X132383875Y-102117356D01*
X132383880Y-102117358D01*
X132550302Y-102172505D01*
X132550309Y-102172506D01*
X132653019Y-102182999D01*
X133077999Y-102182999D01*
X133078000Y-102182998D01*
X133078000Y-101363617D01*
X133147052Y-101417363D01*
X133265424Y-101458000D01*
X133359073Y-101458000D01*
X133451446Y-101442586D01*
X133561514Y-101383019D01*
X133578000Y-101365110D01*
X133578000Y-102182999D01*
X134002972Y-102182999D01*
X134002986Y-102182998D01*
X134105697Y-102172505D01*
X134272119Y-102117358D01*
X134272124Y-102117356D01*
X134421345Y-102025315D01*
X134545315Y-101901345D01*
X134637356Y-101752124D01*
X134637358Y-101752119D01*
X134692505Y-101585697D01*
X134692506Y-101585690D01*
X134702999Y-101482986D01*
X134703000Y-101482973D01*
X134703000Y-101333000D01*
X133607560Y-101333000D01*
X133646278Y-101290941D01*
X133696551Y-101176330D01*
X133706886Y-101051605D01*
X133676163Y-100930281D01*
X133612606Y-100833000D01*
X134702999Y-100833000D01*
X134702999Y-100683028D01*
X134702998Y-100683013D01*
X134692505Y-100580302D01*
X134637358Y-100413880D01*
X134637356Y-100413875D01*
X134545315Y-100264654D01*
X134475842Y-100195181D01*
X134442357Y-100133858D01*
X134447341Y-100064166D01*
X134489213Y-100008233D01*
X134554677Y-99983816D01*
X134563523Y-99983500D01*
X139712477Y-99983500D01*
X139779516Y-100003185D01*
X139825271Y-100055989D01*
X139835215Y-100125147D01*
X139806190Y-100188703D01*
X139800158Y-100195181D01*
X139730684Y-100264654D01*
X139638643Y-100413875D01*
X139638641Y-100413880D01*
X139583494Y-100580302D01*
X139583493Y-100580309D01*
X139573000Y-100683013D01*
X139573000Y-100833000D01*
X140668440Y-100833000D01*
X140629722Y-100875059D01*
X140579449Y-100989670D01*
X140569114Y-101114395D01*
X140599837Y-101235719D01*
X140663394Y-101333000D01*
X139573001Y-101333000D01*
X139573001Y-101482986D01*
X139583494Y-101585697D01*
X139638641Y-101752119D01*
X139638643Y-101752124D01*
X139730684Y-101901345D01*
X139854654Y-102025315D01*
X140003875Y-102117356D01*
X140003880Y-102117358D01*
X140170302Y-102172505D01*
X140170309Y-102172506D01*
X140273019Y-102182999D01*
X140697999Y-102182999D01*
X140698000Y-102182998D01*
X140698000Y-101363617D01*
X140767052Y-101417363D01*
X140885424Y-101458000D01*
X140979073Y-101458000D01*
X141071446Y-101442586D01*
X141181514Y-101383019D01*
X141198000Y-101365110D01*
X141198000Y-102182999D01*
X141622972Y-102182999D01*
X141622986Y-102182998D01*
X141725697Y-102172505D01*
X141892119Y-102117358D01*
X141892124Y-102117356D01*
X142041345Y-102025315D01*
X142165315Y-101901345D01*
X142257356Y-101752124D01*
X142257358Y-101752119D01*
X142312505Y-101585697D01*
X142312506Y-101585690D01*
X142322999Y-101482986D01*
X142323000Y-101482973D01*
X142323000Y-101333000D01*
X141227560Y-101333000D01*
X141266278Y-101290941D01*
X141316551Y-101176330D01*
X141326886Y-101051605D01*
X141296163Y-100930281D01*
X141232606Y-100833000D01*
X142322999Y-100833000D01*
X142322999Y-100683028D01*
X142322998Y-100683013D01*
X142312505Y-100580302D01*
X142257358Y-100413880D01*
X142257356Y-100413875D01*
X142165315Y-100264654D01*
X142095842Y-100195181D01*
X142062357Y-100133858D01*
X142067341Y-100064166D01*
X142109213Y-100008233D01*
X142174677Y-99983816D01*
X142183523Y-99983500D01*
X147332477Y-99983500D01*
X147399516Y-100003185D01*
X147445271Y-100055989D01*
X147455215Y-100125147D01*
X147426190Y-100188703D01*
X147420158Y-100195181D01*
X147350684Y-100264654D01*
X147258643Y-100413875D01*
X147258641Y-100413880D01*
X147203494Y-100580302D01*
X147203493Y-100580309D01*
X147193000Y-100683013D01*
X147193000Y-100833000D01*
X148288440Y-100833000D01*
X148249722Y-100875059D01*
X148199449Y-100989670D01*
X148189114Y-101114395D01*
X148219837Y-101235719D01*
X148283394Y-101333000D01*
X147193001Y-101333000D01*
X147193001Y-101482986D01*
X147203494Y-101585697D01*
X147258641Y-101752119D01*
X147258643Y-101752124D01*
X147350684Y-101901345D01*
X147474654Y-102025315D01*
X147623875Y-102117356D01*
X147623880Y-102117358D01*
X147790302Y-102172505D01*
X147790309Y-102172506D01*
X147893019Y-102182999D01*
X148317999Y-102182999D01*
X148318000Y-102182998D01*
X148318000Y-101363617D01*
X148387052Y-101417363D01*
X148505424Y-101458000D01*
X148599073Y-101458000D01*
X148691446Y-101442586D01*
X148801514Y-101383019D01*
X148818000Y-101365110D01*
X148818000Y-102182999D01*
X149242972Y-102182999D01*
X149242986Y-102182998D01*
X149345697Y-102172505D01*
X149512119Y-102117358D01*
X149512124Y-102117356D01*
X149661345Y-102025315D01*
X149785315Y-101901345D01*
X149877356Y-101752124D01*
X149877358Y-101752119D01*
X149932505Y-101585697D01*
X149932506Y-101585690D01*
X149942999Y-101482986D01*
X149943000Y-101482973D01*
X149943000Y-101333000D01*
X148847560Y-101333000D01*
X148886278Y-101290941D01*
X148936551Y-101176330D01*
X148946886Y-101051605D01*
X148916163Y-100930281D01*
X148852606Y-100833000D01*
X149942999Y-100833000D01*
X149942999Y-100683028D01*
X149942998Y-100683013D01*
X149932505Y-100580302D01*
X149877358Y-100413880D01*
X149877356Y-100413875D01*
X149785315Y-100264654D01*
X149661344Y-100140683D01*
X149661340Y-100140680D01*
X149597841Y-100101513D01*
X149551116Y-100049565D01*
X149539895Y-99980603D01*
X149567738Y-99916521D01*
X149586289Y-99898503D01*
X149605882Y-99883095D01*
X149605881Y-99883095D01*
X149605886Y-99883092D01*
X149743519Y-99724256D01*
X149746404Y-99719260D01*
X149848601Y-99542249D01*
X149848600Y-99542249D01*
X149848604Y-99542244D01*
X149917344Y-99343633D01*
X149947254Y-99135602D01*
X149937254Y-98925670D01*
X149887704Y-98721424D01*
X149887701Y-98721417D01*
X149800401Y-98530256D01*
X149800398Y-98530251D01*
X149800397Y-98530250D01*
X149800396Y-98530247D01*
X149678486Y-98359048D01*
X149678484Y-98359046D01*
X149678479Y-98359040D01*
X149526379Y-98214014D01*
X149485057Y-98187458D01*
X149439302Y-98134654D01*
X149429359Y-98065496D01*
X149458384Y-98001940D01*
X149475445Y-97985673D01*
X149554389Y-97923590D01*
X149605886Y-97883092D01*
X149743519Y-97724256D01*
X149848604Y-97542244D01*
X149917344Y-97343633D01*
X149947254Y-97135602D01*
X149937254Y-96925670D01*
X149887704Y-96721424D01*
X149887701Y-96721417D01*
X149800401Y-96530256D01*
X149800398Y-96530251D01*
X149800397Y-96530250D01*
X149800396Y-96530247D01*
X149678486Y-96359048D01*
X149678484Y-96359046D01*
X149678479Y-96359040D01*
X149526379Y-96214014D01*
X149485057Y-96187458D01*
X149439302Y-96134654D01*
X149429359Y-96065496D01*
X149458384Y-96001940D01*
X149475445Y-95985673D01*
X149605883Y-95883094D01*
X149605886Y-95883092D01*
X149743519Y-95724256D01*
X149750385Y-95712365D01*
X149848601Y-95542249D01*
X149848600Y-95542249D01*
X149848604Y-95542244D01*
X149917344Y-95343633D01*
X149947254Y-95135602D01*
X149937254Y-94925670D01*
X149887704Y-94721424D01*
X149887701Y-94721417D01*
X149800401Y-94530256D01*
X149800398Y-94530251D01*
X149800397Y-94530250D01*
X149800396Y-94530247D01*
X149678486Y-94359048D01*
X149678484Y-94359046D01*
X149678479Y-94359040D01*
X149526379Y-94214014D01*
X149349574Y-94100388D01*
X149154455Y-94022274D01*
X148948086Y-93982500D01*
X148948085Y-93982500D01*
X148240575Y-93982500D01*
X148083782Y-93997472D01*
X148083778Y-93997473D01*
X147882127Y-94056683D01*
X147695315Y-94152990D01*
X147691530Y-94155968D01*
X147626666Y-94181938D01*
X147614875Y-94182500D01*
X141893752Y-94182500D01*
X141826713Y-94162815D01*
X141729576Y-94100389D01*
X141729573Y-94100388D01*
X141729572Y-94100387D01*
X141534457Y-94022275D01*
X141534455Y-94022274D01*
X141328086Y-93982500D01*
X141328085Y-93982500D01*
X140620575Y-93982500D01*
X140463782Y-93997472D01*
X140463778Y-93997473D01*
X140262127Y-94056683D01*
X140075315Y-94152990D01*
X140071530Y-94155968D01*
X140006666Y-94181938D01*
X139994875Y-94182500D01*
X134273752Y-94182500D01*
X134206713Y-94162815D01*
X134109576Y-94100389D01*
X134109573Y-94100388D01*
X134109572Y-94100387D01*
X133914457Y-94022275D01*
X133914455Y-94022274D01*
X133708086Y-93982500D01*
X133708085Y-93982500D01*
X133449230Y-93982500D01*
X133382191Y-93962815D01*
X133361549Y-93946181D01*
X131817549Y-92402181D01*
X131784064Y-92340858D01*
X131789048Y-92271166D01*
X131830920Y-92215233D01*
X131896384Y-92190816D01*
X131905230Y-92190500D01*
X154252770Y-92190500D01*
X154319809Y-92210185D01*
X154340451Y-92226819D01*
X158582930Y-96469298D01*
X158616415Y-96530621D01*
X158615456Y-96587415D01*
X158613865Y-96593697D01*
X158594700Y-96824993D01*
X158594700Y-96825006D01*
X158613864Y-97056297D01*
X158613866Y-97056308D01*
X158670842Y-97281300D01*
X158764075Y-97493848D01*
X158891018Y-97688150D01*
X158986167Y-97791510D01*
X159017089Y-97854164D01*
X159009228Y-97923590D01*
X158965081Y-97977746D01*
X158938271Y-97991674D01*
X158857911Y-98021646D01*
X158857906Y-98021649D01*
X158742812Y-98107809D01*
X158742809Y-98107812D01*
X158656649Y-98222906D01*
X158656645Y-98222913D01*
X158606403Y-98357620D01*
X158606401Y-98357627D01*
X158600000Y-98417155D01*
X158600000Y-99115000D01*
X159624722Y-99115000D01*
X159576375Y-99198740D01*
X159546190Y-99330992D01*
X159556327Y-99466265D01*
X159605887Y-99592541D01*
X159623797Y-99615000D01*
X158600000Y-99615000D01*
X158600000Y-100312844D01*
X158606401Y-100372372D01*
X158606403Y-100372379D01*
X158656645Y-100507086D01*
X158656649Y-100507093D01*
X158742809Y-100622187D01*
X158742812Y-100622190D01*
X158857906Y-100708350D01*
X158857913Y-100708354D01*
X158992620Y-100758596D01*
X158992627Y-100758598D01*
X159052155Y-100764999D01*
X159052172Y-100765000D01*
X159750000Y-100765000D01*
X159750000Y-99739189D01*
X159802547Y-99775016D01*
X159932173Y-99815000D01*
X160033724Y-99815000D01*
X160134138Y-99799865D01*
X160250000Y-99744068D01*
X160250000Y-100765000D01*
X160947828Y-100765000D01*
X160947844Y-100764999D01*
X161007372Y-100758598D01*
X161007379Y-100758596D01*
X161142086Y-100708354D01*
X161142093Y-100708350D01*
X161257187Y-100622190D01*
X161257190Y-100622187D01*
X161343350Y-100507093D01*
X161343354Y-100507086D01*
X161393596Y-100372379D01*
X161393598Y-100372372D01*
X161399999Y-100312844D01*
X161400000Y-100312827D01*
X161400000Y-99615000D01*
X160375278Y-99615000D01*
X160423625Y-99531260D01*
X160453810Y-99399008D01*
X160443673Y-99263735D01*
X160394113Y-99137459D01*
X160376203Y-99115000D01*
X161400000Y-99115000D01*
X161400000Y-98417172D01*
X161399999Y-98417155D01*
X161393598Y-98357627D01*
X161393596Y-98357620D01*
X161343354Y-98222913D01*
X161343350Y-98222906D01*
X161257190Y-98107812D01*
X161257187Y-98107809D01*
X161142093Y-98021649D01*
X161142086Y-98021645D01*
X161061729Y-97991674D01*
X161005795Y-97949803D01*
X160981378Y-97884338D01*
X160996230Y-97816065D01*
X161013826Y-97791516D01*
X161108979Y-97688153D01*
X161235924Y-97493849D01*
X161329157Y-97281300D01*
X161386134Y-97056305D01*
X161388046Y-97033230D01*
X161405300Y-96825006D01*
X161405300Y-96824993D01*
X161386135Y-96593702D01*
X161386133Y-96593691D01*
X161329157Y-96368699D01*
X161235924Y-96156151D01*
X161108983Y-95961852D01*
X161108980Y-95961849D01*
X161108979Y-95961847D01*
X160951784Y-95791087D01*
X160951779Y-95791083D01*
X160951777Y-95791081D01*
X160768634Y-95648535D01*
X160768628Y-95648531D01*
X160564504Y-95538064D01*
X160564495Y-95538061D01*
X160344984Y-95462702D01*
X160167220Y-95433039D01*
X160116049Y-95424500D01*
X159883951Y-95424500D01*
X159755726Y-95445896D01*
X159686361Y-95437514D01*
X159647636Y-95411268D01*
X155552698Y-91316330D01*
X170805710Y-91316330D01*
X170835925Y-91539387D01*
X170835926Y-91539390D01*
X170905483Y-91753465D01*
X171012146Y-91951678D01*
X171012148Y-91951681D01*
X171152489Y-92127663D01*
X171152491Y-92127664D01*
X171152492Y-92127666D01*
X171322004Y-92275765D01*
X171515236Y-92391215D01*
X171707511Y-92463377D01*
X171725976Y-92470307D01*
X171947450Y-92510500D01*
X171947453Y-92510500D01*
X172116148Y-92510500D01*
X172116155Y-92510500D01*
X172284188Y-92495377D01*
X172345340Y-92478500D01*
X172501160Y-92435496D01*
X172501162Y-92435495D01*
X172501170Y-92435493D01*
X172703973Y-92337829D01*
X172886078Y-92205522D01*
X173041632Y-92042825D01*
X173165635Y-91854968D01*
X173179314Y-91822966D01*
X173254100Y-91647995D01*
X173254099Y-91647995D01*
X173254103Y-91647988D01*
X173304191Y-91428537D01*
X173314290Y-91203670D01*
X173284075Y-90980613D01*
X173214517Y-90766536D01*
X173213380Y-90764424D01*
X173142676Y-90633033D01*
X173107852Y-90568319D01*
X173035167Y-90477175D01*
X172967510Y-90392336D01*
X172967508Y-90392334D01*
X172797996Y-90244235D01*
X172604764Y-90128785D01*
X172486775Y-90084503D01*
X172394023Y-90049692D01*
X172172550Y-90009500D01*
X172172547Y-90009500D01*
X172003845Y-90009500D01*
X171965399Y-90012960D01*
X171835813Y-90024622D01*
X171835807Y-90024623D01*
X171618839Y-90084503D01*
X171618826Y-90084508D01*
X171416033Y-90182167D01*
X171416025Y-90182171D01*
X171233927Y-90314473D01*
X171233925Y-90314474D01*
X171078366Y-90477176D01*
X170954363Y-90665033D01*
X170865899Y-90872004D01*
X170865895Y-90872017D01*
X170815810Y-91091457D01*
X170815808Y-91091468D01*
X170807147Y-91284325D01*
X170805710Y-91316330D01*
X155552698Y-91316330D01*
X155190729Y-90954361D01*
X155178949Y-90940730D01*
X155164610Y-90921470D01*
X155126651Y-90889619D01*
X155118686Y-90882318D01*
X155114780Y-90878411D01*
X155090443Y-90859168D01*
X155087647Y-90856890D01*
X155030214Y-90808698D01*
X155024180Y-90804729D01*
X155024212Y-90804680D01*
X155017853Y-90800628D01*
X155017822Y-90800679D01*
X155011680Y-90796891D01*
X155011678Y-90796890D01*
X155011677Y-90796889D01*
X154943688Y-90765184D01*
X154940447Y-90763615D01*
X154909530Y-90748088D01*
X154873433Y-90729960D01*
X154873431Y-90729959D01*
X154873430Y-90729959D01*
X154866645Y-90727489D01*
X154866665Y-90727433D01*
X154859549Y-90724959D01*
X154859531Y-90725015D01*
X154852674Y-90722743D01*
X154779210Y-90707573D01*
X154775693Y-90706793D01*
X154702718Y-90689499D01*
X154695547Y-90688661D01*
X154695553Y-90688601D01*
X154688055Y-90687835D01*
X154688050Y-90687895D01*
X154680860Y-90687265D01*
X154605870Y-90689448D01*
X154602263Y-90689500D01*
X124364337Y-90689500D01*
X124297298Y-90669815D01*
X124291452Y-90665818D01*
X124277734Y-90655851D01*
X124277729Y-90655848D01*
X124104807Y-90578857D01*
X124104802Y-90578855D01*
X123959001Y-90547865D01*
X123919646Y-90539500D01*
X123730354Y-90539500D01*
X123697897Y-90546398D01*
X123545197Y-90578855D01*
X123545192Y-90578857D01*
X123372270Y-90655848D01*
X123372265Y-90655851D01*
X123219129Y-90767111D01*
X123092466Y-90907785D01*
X122997821Y-91071715D01*
X122997818Y-91071722D01*
X122939327Y-91251740D01*
X122939326Y-91251744D01*
X122919540Y-91440000D01*
X122939326Y-91628256D01*
X122952949Y-91670183D01*
X122954944Y-91740022D01*
X122918864Y-91799855D01*
X122856164Y-91830684D01*
X122835018Y-91832500D01*
X118522337Y-91832500D01*
X118455298Y-91812815D01*
X118449452Y-91808818D01*
X118435734Y-91798851D01*
X118435729Y-91798848D01*
X118262807Y-91721857D01*
X118262802Y-91721855D01*
X118117001Y-91690865D01*
X118077646Y-91682500D01*
X117888354Y-91682500D01*
X117855897Y-91689398D01*
X117703197Y-91721855D01*
X117703192Y-91721857D01*
X117530270Y-91798848D01*
X117530265Y-91798851D01*
X117377129Y-91910111D01*
X117250466Y-92050785D01*
X117155821Y-92214715D01*
X117155818Y-92214722D01*
X117097327Y-92394740D01*
X117097326Y-92394744D01*
X117077540Y-92583000D01*
X89408500Y-92583000D01*
X89408500Y-91284330D01*
X90505710Y-91284330D01*
X90535925Y-91507387D01*
X90535926Y-91507390D01*
X90605483Y-91721465D01*
X90712146Y-91919678D01*
X90712148Y-91919681D01*
X90852489Y-92095663D01*
X90852491Y-92095664D01*
X90852492Y-92095666D01*
X91022004Y-92243765D01*
X91215236Y-92359215D01*
X91418473Y-92435491D01*
X91425976Y-92438307D01*
X91647450Y-92478500D01*
X91647453Y-92478500D01*
X91816148Y-92478500D01*
X91816155Y-92478500D01*
X91984188Y-92463377D01*
X91984192Y-92463376D01*
X92201160Y-92403496D01*
X92201162Y-92403495D01*
X92201170Y-92403493D01*
X92403973Y-92305829D01*
X92586078Y-92173522D01*
X92741632Y-92010825D01*
X92865635Y-91822968D01*
X92875945Y-91798848D01*
X92954100Y-91615995D01*
X92954099Y-91615995D01*
X92954103Y-91615988D01*
X93004191Y-91396537D01*
X93014290Y-91171670D01*
X92984075Y-90948613D01*
X92914517Y-90734536D01*
X92807852Y-90536319D01*
X92693029Y-90392336D01*
X92667510Y-90360336D01*
X92667508Y-90360334D01*
X92497996Y-90212235D01*
X92304764Y-90096785D01*
X92179285Y-90049692D01*
X92094023Y-90017692D01*
X91872550Y-89977500D01*
X91872547Y-89977500D01*
X91703845Y-89977500D01*
X91665399Y-89980960D01*
X91535813Y-89992622D01*
X91535807Y-89992623D01*
X91318839Y-90052503D01*
X91318826Y-90052508D01*
X91116033Y-90150167D01*
X91116025Y-90150171D01*
X90933927Y-90282473D01*
X90933925Y-90282474D01*
X90778366Y-90445176D01*
X90654363Y-90633033D01*
X90565899Y-90840004D01*
X90565895Y-90840017D01*
X90515810Y-91059457D01*
X90515808Y-91059468D01*
X90507173Y-91251744D01*
X90505710Y-91284330D01*
X89408500Y-91284330D01*
X89408500Y-89024500D01*
X89428185Y-88957461D01*
X89480989Y-88911706D01*
X89532500Y-88900500D01*
X174276249Y-88900500D01*
X174343288Y-88920185D01*
G37*
%TD.AperFunction*%
%TD*%
M02*
