%TF.GenerationSoftware,KiCad,Pcbnew,7.0.10*%
%TF.CreationDate,2026-05-05T12:34:12+02:00*%
%TF.ProjectId,FT I2C Hub,46542049-3243-4204-9875-622e6b696361,rev?*%
%TF.SameCoordinates,Original*%
%TF.FileFunction,Copper,L2,Bot*%
%TF.FilePolarity,Positive*%
%FSLAX46Y46*%
G04 Gerber Fmt 4.6, Leading zero omitted, Abs format (unit mm)*
G04 Created by KiCad (PCBNEW 7.0.10) date 2026-05-05 12:34:12*
%MOMM*%
%LPD*%
G01*
G04 APERTURE LIST*
G04 Aperture macros list*
%AMRoundRect*
0 Rectangle with rounded corners*
0 $1 Rounding radius*
0 $2 $3 $4 $5 $6 $7 $8 $9 X,Y pos of 4 corners*
0 Add a 4 corners polygon primitive as box body*
4,1,4,$2,$3,$4,$5,$6,$7,$8,$9,$2,$3,0*
0 Add four circle primitives for the rounded corners*
1,1,$1+$1,$2,$3*
1,1,$1+$1,$4,$5*
1,1,$1+$1,$6,$7*
1,1,$1+$1,$8,$9*
0 Add four rect primitives between the rounded corners*
20,1,$1+$1,$2,$3,$4,$5,0*
20,1,$1+$1,$4,$5,$6,$7,0*
20,1,$1+$1,$6,$7,$8,$9,0*
20,1,$1+$1,$8,$9,$2,$3,0*%
G04 Aperture macros list end*
%TA.AperFunction,ComponentPad*%
%ADD10RoundRect,0.250000X0.625000X-0.350000X0.625000X0.350000X-0.625000X0.350000X-0.625000X-0.350000X0*%
%TD*%
%TA.AperFunction,ComponentPad*%
%ADD11O,1.750000X1.200000*%
%TD*%
%TA.AperFunction,ComponentPad*%
%ADD12R,1.700000X1.700000*%
%TD*%
%TA.AperFunction,ComponentPad*%
%ADD13O,1.700000X1.700000*%
%TD*%
%TA.AperFunction,ComponentPad*%
%ADD14R,1.800000X1.800000*%
%TD*%
%TA.AperFunction,ComponentPad*%
%ADD15C,1.800000*%
%TD*%
%TA.AperFunction,ComponentPad*%
%ADD16C,4.000000*%
%TD*%
%TA.AperFunction,SMDPad,CuDef*%
%ADD17RoundRect,0.250000X-0.312500X-0.625000X0.312500X-0.625000X0.312500X0.625000X-0.312500X0.625000X0*%
%TD*%
%TA.AperFunction,SMDPad,CuDef*%
%ADD18RoundRect,0.250000X0.312500X0.625000X-0.312500X0.625000X-0.312500X-0.625000X0.312500X-0.625000X0*%
%TD*%
%TA.AperFunction,SMDPad,CuDef*%
%ADD19RoundRect,0.250000X0.650000X-0.325000X0.650000X0.325000X-0.650000X0.325000X-0.650000X-0.325000X0*%
%TD*%
%TA.AperFunction,SMDPad,CuDef*%
%ADD20RoundRect,0.150000X0.150000X-0.587500X0.150000X0.587500X-0.150000X0.587500X-0.150000X-0.587500X0*%
%TD*%
%TA.AperFunction,SMDPad,CuDef*%
%ADD21RoundRect,0.250000X-0.625000X0.312500X-0.625000X-0.312500X0.625000X-0.312500X0.625000X0.312500X0*%
%TD*%
%TA.AperFunction,SMDPad,CuDef*%
%ADD22R,1.500000X2.000000*%
%TD*%
%TA.AperFunction,SMDPad,CuDef*%
%ADD23R,3.800000X2.000000*%
%TD*%
%TA.AperFunction,SMDPad,CuDef*%
%ADD24RoundRect,0.250000X-0.250000X-0.475000X0.250000X-0.475000X0.250000X0.475000X-0.250000X0.475000X0*%
%TD*%
%TA.AperFunction,SMDPad,CuDef*%
%ADD25RoundRect,0.250000X0.250000X0.475000X-0.250000X0.475000X-0.250000X-0.475000X0.250000X-0.475000X0*%
%TD*%
%TA.AperFunction,ViaPad*%
%ADD26C,0.800000*%
%TD*%
%TA.AperFunction,Conductor*%
%ADD27C,0.500000*%
%TD*%
%TA.AperFunction,Conductor*%
%ADD28C,0.800000*%
%TD*%
G04 APERTURE END LIST*
D10*
%TO.P,J4,1,Pin_1*%
%TO.N,GND*%
X99292000Y-101083000D03*
D11*
%TO.P,J4,2,Pin_2*%
%TO.N,+5V*%
X99292000Y-99083000D03*
%TO.P,J4,3,Pin_3*%
%TO.N,SDA5*%
X99292000Y-97083000D03*
%TO.P,J4,4,Pin_4*%
%TO.N,SCL5*%
X99292000Y-95083000D03*
%TD*%
D10*
%TO.P,J2,1,Pin_1*%
%TO.N,GND*%
X140948000Y-101083000D03*
D11*
%TO.P,J2,2,Pin_2*%
%TO.N,+3.3V*%
X140948000Y-99083000D03*
%TO.P,J2,3,Pin_3*%
%TO.N,SDA3*%
X140948000Y-97083000D03*
%TO.P,J2,4,Pin_4*%
%TO.N,SCL3*%
X140948000Y-95083000D03*
%TD*%
D10*
%TO.P,J3,1,Pin_1*%
%TO.N,GND*%
X148568000Y-101083000D03*
D11*
%TO.P,J3,2,Pin_2*%
%TO.N,+3.3V*%
X148568000Y-99083000D03*
%TO.P,J3,3,Pin_3*%
%TO.N,SDA3*%
X148568000Y-97083000D03*
%TO.P,J3,4,Pin_4*%
%TO.N,SCL3*%
X148568000Y-95083000D03*
%TD*%
D12*
%TO.P,J9,1,Pin_1*%
%TO.N,unconnected-(J9-Pin_1-Pad1)*%
X157734000Y-115365000D03*
D13*
%TO.P,J9,2,Pin_2*%
%TO.N,GND*%
X157734000Y-112825000D03*
%TO.P,J9,3,Pin_3*%
%TO.N,unconnected-(J9-Pin_3-Pad3)*%
X160274000Y-115365000D03*
%TO.P,J9,4,Pin_4*%
%TO.N,unconnected-(J9-Pin_4-Pad4)*%
X160274000Y-112825000D03*
%TO.P,J9,5,Pin_5*%
%TO.N,SCL3*%
X162814000Y-115365000D03*
%TO.P,J9,6,Pin_6*%
%TO.N,SDA3*%
X162814000Y-112825000D03*
%TD*%
D14*
%TO.P,D1,1,K*%
%TO.N,GND*%
X160000000Y-99365000D03*
D15*
%TO.P,D1,2,A*%
%TO.N,Net-(D1-A)*%
X160000000Y-96825000D03*
%TD*%
D12*
%TO.P,J8,1,Pin_1*%
%TO.N,GND*%
X126863000Y-115365000D03*
D13*
%TO.P,J8,2,Pin_2*%
%TO.N,unconnected-(J8-Pin_2-Pad2)*%
X126863000Y-112825000D03*
%TO.P,J8,3,Pin_3*%
%TO.N,unconnected-(J8-Pin_3-Pad3)*%
X129403000Y-115365000D03*
%TO.P,J8,4,Pin_4*%
%TO.N,unconnected-(J8-Pin_4-Pad4)*%
X129403000Y-112825000D03*
%TO.P,J8,5,Pin_5*%
%TO.N,SDA3*%
X131943000Y-115365000D03*
%TO.P,J8,6,Pin_6*%
%TO.N,SCL3*%
X131943000Y-112825000D03*
%TO.P,J8,7,Pin_7*%
%TO.N,unconnected-(J8-Pin_7-Pad7)*%
X134483000Y-115365000D03*
%TO.P,J8,8,Pin_8*%
%TO.N,unconnected-(J8-Pin_8-Pad8)*%
X134483000Y-112825000D03*
%TO.P,J8,9,Pin_9*%
%TO.N,unconnected-(J8-Pin_9-Pad9)*%
X137023000Y-115365000D03*
%TO.P,J8,10,Pin_10*%
%TO.N,unconnected-(J8-Pin_10-Pad10)*%
X137023000Y-112825000D03*
%TD*%
D16*
%TO.P,O1,1*%
%TO.N,+9V*%
X167620000Y-94740000D03*
%TD*%
D10*
%TO.P,J6,1,Pin_1*%
%TO.N,GND*%
X114532000Y-101083000D03*
D11*
%TO.P,J6,2,Pin_2*%
%TO.N,+5V*%
X114532000Y-99083000D03*
%TO.P,J6,3,Pin_3*%
%TO.N,SDA5*%
X114532000Y-97083000D03*
%TO.P,J6,4,Pin_4*%
%TO.N,SCL5*%
X114532000Y-95083000D03*
%TD*%
D10*
%TO.P,J5,1,Pin_1*%
%TO.N,GND*%
X106912000Y-101083000D03*
D11*
%TO.P,J5,2,Pin_2*%
%TO.N,+5V*%
X106912000Y-99083000D03*
%TO.P,J5,3,Pin_3*%
%TO.N,SDA5*%
X106912000Y-97083000D03*
%TO.P,J5,4,Pin_4*%
%TO.N,SCL5*%
X106912000Y-95083000D03*
%TD*%
D12*
%TO.P,J7,1,Pin_1*%
%TO.N,GND*%
X101092000Y-115365000D03*
D13*
%TO.P,J7,2,Pin_2*%
%TO.N,unconnected-(J7-Pin_2-Pad2)*%
X101092000Y-112825000D03*
%TO.P,J7,3,Pin_3*%
%TO.N,unconnected-(J7-Pin_3-Pad3)*%
X103632000Y-115365000D03*
%TO.P,J7,4,Pin_4*%
%TO.N,unconnected-(J7-Pin_4-Pad4)*%
X103632000Y-112825000D03*
%TO.P,J7,5,Pin_5*%
%TO.N,SDA5*%
X106172000Y-115365000D03*
%TO.P,J7,6,Pin_6*%
%TO.N,SCL5*%
X106172000Y-112825000D03*
%TD*%
D10*
%TO.P,J1,1,Pin_1*%
%TO.N,GND*%
X133328000Y-101083000D03*
D11*
%TO.P,J1,2,Pin_2*%
%TO.N,+3.3V*%
X133328000Y-99083000D03*
%TO.P,J1,3,Pin_3*%
%TO.N,SDA3*%
X133328000Y-97083000D03*
%TO.P,J1,4,Pin_4*%
%TO.N,SCL3*%
X133328000Y-95083000D03*
%TD*%
D16*
%TO.P,O2,1*%
%TO.N,+9V*%
X167620000Y-102106000D03*
%TD*%
D17*
%TO.P,R4,1*%
%TO.N,SCL3*%
X118679500Y-95533000D03*
%TO.P,R4,2*%
%TO.N,+3.3V*%
X121604500Y-95533000D03*
%TD*%
D18*
%TO.P,R5,1*%
%TO.N,SCL5*%
X121604500Y-98044000D03*
%TO.P,R5,2*%
%TO.N,+5V*%
X118679500Y-98044000D03*
%TD*%
D19*
%TO.P,C3,1*%
%TO.N,GND*%
X127508000Y-103632000D03*
%TO.P,C3,2*%
%TO.N,+5V*%
X127508000Y-100682000D03*
%TD*%
D20*
%TO.P,Q2,1,G*%
%TO.N,+3.3V*%
X121092000Y-93061000D03*
%TO.P,Q2,2,S*%
%TO.N,SCL3*%
X119192000Y-93061000D03*
%TO.P,Q2,3,D*%
%TO.N,SCL5*%
X120142000Y-91186000D03*
%TD*%
%TO.P,Q1,1,G*%
%TO.N,+3.3V*%
X128458000Y-93061000D03*
%TO.P,Q1,2,S*%
%TO.N,SDA3*%
X126558000Y-93061000D03*
%TO.P,Q1,3,D*%
%TO.N,SDA5*%
X127508000Y-91186000D03*
%TD*%
D21*
%TO.P,R1,1*%
%TO.N,Net-(D1-A)*%
X123819790Y-94208255D03*
%TO.P,R1,2*%
%TO.N,+5V*%
X123819790Y-97133255D03*
%TD*%
D22*
%TO.P,U2,1,GND*%
%TO.N,GND*%
X109954000Y-107188000D03*
%TO.P,U2,2,VO*%
%TO.N,+5V*%
X112254000Y-107188000D03*
D23*
X112254000Y-113488000D03*
D22*
%TO.P,U2,3,VI*%
%TO.N,+9V*%
X114554000Y-107188000D03*
%TD*%
D19*
%TO.P,C2,1*%
%TO.N,GND*%
X120142000Y-103632000D03*
%TO.P,C2,2*%
%TO.N,+3.3V*%
X120142000Y-100682000D03*
%TD*%
D24*
%TO.P,C5,1*%
%TO.N,+5V*%
X122869790Y-100412523D03*
%TO.P,C5,2*%
%TO.N,GND*%
X124769790Y-100412523D03*
%TD*%
D17*
%TO.P,R2,1*%
%TO.N,SDA3*%
X126045500Y-95533000D03*
%TO.P,R2,2*%
%TO.N,+3.3V*%
X128970500Y-95533000D03*
%TD*%
D18*
%TO.P,R3,1*%
%TO.N,SDA5*%
X128970500Y-98044000D03*
%TO.P,R3,2*%
%TO.N,+5V*%
X126045500Y-98044000D03*
%TD*%
D25*
%TO.P,C1,1*%
%TO.N,+9V*%
X124769790Y-104730523D03*
%TO.P,C1,2*%
%TO.N,GND*%
X122869790Y-104730523D03*
%TD*%
D22*
%TO.P,U1,1,GND*%
%TO.N,GND*%
X118336000Y-107188000D03*
%TO.P,U1,2,VO*%
%TO.N,+3.3V*%
X120636000Y-107188000D03*
D23*
X120636000Y-113488000D03*
D22*
%TO.P,U1,3,VI*%
%TO.N,+9V*%
X122936000Y-107188000D03*
%TD*%
D25*
%TO.P,C4,1*%
%TO.N,+3.3V*%
X124769790Y-102571523D03*
%TO.P,C4,2*%
%TO.N,GND*%
X122869790Y-102571523D03*
%TD*%
D26*
%TO.N,+9V*%
X123907039Y-109776319D03*
X123903575Y-110577712D03*
%TO.N,+3.3V*%
X126118607Y-105214535D03*
X137225000Y-105225000D03*
X120650000Y-110325000D03*
X122301000Y-93599000D03*
%TO.N,Net-(D1-A)*%
X123825000Y-91440000D03*
%TO.N,SDA3*%
X123825000Y-95631000D03*
%TO.N,SCL3*%
X117983000Y-92583000D03*
%TD*%
D27*
%TO.N,+9V*%
X124769790Y-105354210D02*
X122936000Y-107188000D01*
D28*
X123900000Y-115350000D02*
X123900000Y-110581287D01*
X114554000Y-107188000D02*
X114754000Y-107388000D01*
X123900000Y-108152000D02*
X122936000Y-107188000D01*
X123907039Y-109776319D02*
X123900000Y-109769280D01*
X116900000Y-111775000D02*
X116900000Y-115375000D01*
X123903575Y-110577712D02*
X123900000Y-110574137D01*
X114754000Y-109629000D02*
X116900000Y-111775000D01*
X116900000Y-115375000D02*
X116950000Y-115375000D01*
X123900000Y-109783358D02*
X123907039Y-109776319D01*
D27*
X124769790Y-104730523D02*
X124769790Y-105354210D01*
D28*
X123900000Y-110574137D02*
X123900000Y-109783358D01*
X123900000Y-109769280D02*
X123900000Y-108152000D01*
X117700000Y-116125000D02*
X123125000Y-116125000D01*
X114754000Y-107388000D02*
X114754000Y-109629000D01*
X116950000Y-115375000D02*
X117700000Y-116125000D01*
X123900000Y-110581287D02*
X123903575Y-110577712D01*
X123125000Y-116125000D02*
X123900000Y-115350000D01*
D27*
%TO.N,GND*%
X118336000Y-107188000D02*
X118336000Y-105438000D01*
X118336000Y-105438000D02*
X120142000Y-103632000D01*
X130779000Y-103632000D02*
X133328000Y-101083000D01*
D28*
X109954000Y-107188000D02*
X109954000Y-109721000D01*
X109250000Y-117375000D02*
X109200000Y-117425000D01*
X109250000Y-110425000D02*
X109250000Y-117375000D01*
X125175000Y-115875000D02*
X123625000Y-117425000D01*
X125213000Y-115365000D02*
X125175000Y-115327000D01*
X125175000Y-115327000D02*
X125175000Y-115875000D01*
D27*
X127508000Y-103632000D02*
X130779000Y-103632000D01*
D28*
X123625000Y-117425000D02*
X109200000Y-117425000D01*
D27*
X120142000Y-103632000D02*
X122869790Y-103632000D01*
D28*
X103152000Y-117425000D02*
X101092000Y-115365000D01*
X157734000Y-112825000D02*
X157734000Y-101631000D01*
D27*
X122869790Y-102571523D02*
X122869790Y-103632000D01*
X124769790Y-100671523D02*
X122869790Y-102571523D01*
D28*
X109954000Y-107188000D02*
X109954000Y-104125000D01*
D27*
X122869790Y-103632000D02*
X122869790Y-104730523D01*
X127508000Y-103150733D02*
X127508000Y-103632000D01*
D28*
X109200000Y-117425000D02*
X103152000Y-117425000D01*
X126863000Y-115365000D02*
X125213000Y-115365000D01*
X109954000Y-109721000D02*
X109250000Y-110425000D01*
D27*
X124769790Y-100412523D02*
X127508000Y-103150733D01*
X124769790Y-100412523D02*
X124769790Y-100671523D01*
D28*
X157734000Y-101631000D02*
X160000000Y-99365000D01*
X109954000Y-104125000D02*
X106912000Y-101083000D01*
%TO.N,+3.3V*%
X116650000Y-108452000D02*
X116650000Y-104174000D01*
X139667000Y-99083000D02*
X140948000Y-99083000D01*
D27*
X122301000Y-93599000D02*
X122281025Y-93608271D01*
D28*
X137225000Y-105225000D02*
X138300000Y-104150000D01*
X117073000Y-108875000D02*
X116650000Y-108452000D01*
D27*
X121779423Y-95533000D02*
X122281025Y-95031398D01*
D28*
X116650000Y-104174000D02*
X120142000Y-100682000D01*
D27*
X121604500Y-95533000D02*
X121779423Y-95533000D01*
D28*
X138300000Y-100450000D02*
X139667000Y-99083000D01*
X132520500Y-99083000D02*
X128970500Y-95533000D01*
D27*
X121092000Y-93061000D02*
X121092000Y-95020500D01*
D28*
X120650000Y-110325000D02*
X120636000Y-110311000D01*
D27*
X128458000Y-93061000D02*
X128458000Y-95020500D01*
X122281025Y-95031398D02*
X122301000Y-93599000D01*
X124769790Y-102571523D02*
X126111000Y-103912733D01*
D28*
X138300000Y-104150000D02*
X138300000Y-100450000D01*
X120636000Y-107188000D02*
X120636000Y-107838000D01*
X120636000Y-107838000D02*
X119599000Y-108875000D01*
X133328000Y-99083000D02*
X132520500Y-99083000D01*
D27*
X121092000Y-95020500D02*
X121604500Y-95533000D01*
X128458000Y-95020500D02*
X128970500Y-95533000D01*
D28*
X120636000Y-110339000D02*
X120650000Y-110325000D01*
X120636000Y-110311000D02*
X120636000Y-107188000D01*
X120636000Y-113488000D02*
X120636000Y-110339000D01*
D27*
X126111000Y-103912733D02*
X126111000Y-105156000D01*
D28*
X119599000Y-108875000D02*
X117073000Y-108875000D01*
D27*
%TO.N,+5V*%
X122869790Y-100412523D02*
X122114267Y-99657000D01*
X127508000Y-100682000D02*
X127508000Y-99506500D01*
X120292500Y-99657000D02*
X118679500Y-98044000D01*
D28*
X114257000Y-99083000D02*
X114532000Y-99083000D01*
D27*
X122869790Y-100412523D02*
X122869790Y-98083255D01*
X122114267Y-99657000D02*
X120292500Y-99657000D01*
X126045500Y-98044000D02*
X124730535Y-98044000D01*
D28*
X112254000Y-107188000D02*
X112254000Y-101086000D01*
X112254000Y-113488000D02*
X112254000Y-107188000D01*
D27*
X124730535Y-98044000D02*
X123819790Y-97133255D01*
X127508000Y-99506500D02*
X126045500Y-98044000D01*
D28*
X117640500Y-99083000D02*
X118679500Y-98044000D01*
D27*
X122869790Y-98083255D02*
X123819790Y-97133255D01*
D28*
X114532000Y-99083000D02*
X117640500Y-99083000D01*
X112254000Y-101086000D02*
X114257000Y-99083000D01*
D27*
%TO.N,Net-(D1-A)*%
X123819790Y-94208255D02*
X123819790Y-91445210D01*
X123819790Y-91445210D02*
X123825000Y-91440000D01*
D28*
%TO.N,SDA5*%
X107622000Y-113915000D02*
X107622000Y-105647000D01*
D27*
X113466000Y-97083000D02*
X114532000Y-97083000D01*
X126320500Y-89998500D02*
X116884500Y-89998500D01*
X127508000Y-96581500D02*
X128970500Y-98044000D01*
D28*
X106192000Y-97083000D02*
X106912000Y-97083000D01*
X107622000Y-105647000D02*
X105025000Y-103050000D01*
D27*
X116884500Y-89998500D02*
X113030000Y-93853000D01*
X127508000Y-91186000D02*
X127508000Y-96581500D01*
X113030000Y-93853000D02*
X113030000Y-96647000D01*
D28*
X106172000Y-115365000D02*
X107622000Y-113915000D01*
X105025000Y-103050000D02*
X105025000Y-98250000D01*
D27*
X127508000Y-91186000D02*
X126320500Y-89998500D01*
X113030000Y-96647000D02*
X113466000Y-97083000D01*
D28*
X105025000Y-98250000D02*
X106192000Y-97083000D01*
%TO.N,SCL5*%
X106172000Y-112825000D02*
X103775000Y-110428000D01*
D27*
X120142000Y-96581500D02*
X120142000Y-91186000D01*
X121604500Y-98044000D02*
X120142000Y-96581500D01*
D28*
X105642000Y-95083000D02*
X106912000Y-95083000D01*
D27*
X114532000Y-95083000D02*
X114532000Y-94002000D01*
X114532000Y-94002000D02*
X117348000Y-91186000D01*
D28*
X103775000Y-96950000D02*
X105642000Y-95083000D01*
D27*
X117348000Y-91186000D02*
X120142000Y-91186000D01*
D28*
X103775000Y-110428000D02*
X103775000Y-96950000D01*
D27*
%TO.N,SDA3*%
X123812384Y-95631000D02*
X123872940Y-95691556D01*
X124066384Y-95885000D02*
X123825000Y-95643616D01*
X125693500Y-95885000D02*
X124066384Y-95885000D01*
X123825000Y-95631000D02*
X123812384Y-95631000D01*
D28*
X133150000Y-118075000D02*
X131943000Y-116868000D01*
D27*
X126558000Y-95020500D02*
X126045500Y-95533000D01*
D28*
X164264000Y-114275000D02*
X164264000Y-116286000D01*
X158950000Y-94775000D02*
X156642000Y-97083000D01*
X164264000Y-116286000D02*
X162475000Y-118075000D01*
D27*
X126045500Y-95533000D02*
X125693500Y-95885000D01*
D28*
X160950000Y-94775000D02*
X158950000Y-94775000D01*
X131943000Y-115365000D02*
X131943000Y-116868000D01*
D27*
X126558000Y-93061000D02*
X126558000Y-95020500D01*
D28*
X156642000Y-97083000D02*
X148568000Y-97083000D01*
X162814000Y-112825000D02*
X162814000Y-96639000D01*
X162814000Y-96639000D02*
X160950000Y-94775000D01*
X162814000Y-112825000D02*
X164264000Y-114275000D01*
X162475000Y-118075000D02*
X133150000Y-118075000D01*
D27*
X123825000Y-95643616D02*
X123825000Y-95631000D01*
%TO.N,SCL3*%
X117983000Y-92583000D02*
X118714000Y-92583000D01*
D28*
X131943000Y-108232000D02*
X131943000Y-112825000D01*
X148568000Y-95083000D02*
X147093000Y-96558000D01*
X134803000Y-96558000D02*
X134803000Y-105372000D01*
X133328000Y-95083000D02*
X134803000Y-96558000D01*
X134803000Y-105372000D02*
X131943000Y-108232000D01*
X147093000Y-113118000D02*
X151050000Y-117075000D01*
X161104000Y-117075000D02*
X162814000Y-115365000D01*
D27*
X118679500Y-95533000D02*
X118679500Y-93573500D01*
D28*
X151050000Y-117075000D02*
X161104000Y-117075000D01*
D27*
X118679500Y-93573500D02*
X119192000Y-93061000D01*
X118714000Y-92583000D02*
X119192000Y-93061000D01*
D28*
X147093000Y-96558000D02*
X147093000Y-113118000D01*
%TD*%
%TA.AperFunction,Conductor*%
%TO.N,GND*%
G36*
X158524578Y-96576434D02*
G01*
X158580511Y-96618306D01*
X158604928Y-96683770D01*
X158604821Y-96702854D01*
X158594701Y-96824996D01*
X158594700Y-96825004D01*
X158594700Y-96825006D01*
X158613864Y-97056297D01*
X158613866Y-97056308D01*
X158670842Y-97281300D01*
X158764075Y-97493848D01*
X158891018Y-97688150D01*
X158986167Y-97791510D01*
X159017089Y-97854164D01*
X159009228Y-97923590D01*
X158965081Y-97977746D01*
X158938271Y-97991674D01*
X158857911Y-98021646D01*
X158857906Y-98021649D01*
X158742812Y-98107809D01*
X158742809Y-98107812D01*
X158656649Y-98222906D01*
X158656645Y-98222913D01*
X158606403Y-98357620D01*
X158606401Y-98357627D01*
X158600000Y-98417155D01*
X158600000Y-99115000D01*
X159624722Y-99115000D01*
X159576375Y-99198740D01*
X159546190Y-99330992D01*
X159556327Y-99466265D01*
X159605887Y-99592541D01*
X159623797Y-99615000D01*
X158600000Y-99615000D01*
X158600000Y-100312844D01*
X158606401Y-100372372D01*
X158606403Y-100372379D01*
X158656645Y-100507086D01*
X158656649Y-100507093D01*
X158742809Y-100622187D01*
X158742812Y-100622190D01*
X158857906Y-100708350D01*
X158857913Y-100708354D01*
X158992620Y-100758596D01*
X158992627Y-100758598D01*
X159052155Y-100764999D01*
X159052172Y-100765000D01*
X159750000Y-100765000D01*
X159750000Y-99739189D01*
X159802547Y-99775016D01*
X159932173Y-99815000D01*
X160033724Y-99815000D01*
X160134138Y-99799865D01*
X160250000Y-99744068D01*
X160250000Y-100765000D01*
X160947828Y-100765000D01*
X160947844Y-100764999D01*
X161007372Y-100758598D01*
X161007379Y-100758596D01*
X161142086Y-100708354D01*
X161142093Y-100708350D01*
X161257187Y-100622190D01*
X161257190Y-100622187D01*
X161343350Y-100507093D01*
X161343354Y-100507086D01*
X161393596Y-100372379D01*
X161393598Y-100372372D01*
X161399999Y-100312844D01*
X161400000Y-100312827D01*
X161400000Y-99615000D01*
X160375278Y-99615000D01*
X160423625Y-99531260D01*
X160453810Y-99399008D01*
X160443673Y-99263735D01*
X160394113Y-99137459D01*
X160376203Y-99115000D01*
X161400000Y-99115000D01*
X161400000Y-98417172D01*
X161399999Y-98417155D01*
X161393598Y-98357627D01*
X161393596Y-98357620D01*
X161343354Y-98222913D01*
X161343350Y-98222906D01*
X161257190Y-98107812D01*
X161257187Y-98107809D01*
X161142093Y-98021649D01*
X161142086Y-98021645D01*
X161061729Y-97991674D01*
X161005795Y-97949803D01*
X160981378Y-97884338D01*
X160996230Y-97816065D01*
X161013826Y-97791516D01*
X161108979Y-97688153D01*
X161235924Y-97493849D01*
X161329157Y-97281300D01*
X161386134Y-97056305D01*
X161386135Y-97056297D01*
X161405300Y-96825006D01*
X161405300Y-96824996D01*
X161404214Y-96811893D01*
X161418294Y-96743456D01*
X161467139Y-96693496D01*
X161535239Y-96677875D01*
X161600975Y-96701551D01*
X161615471Y-96713970D01*
X161877181Y-96975680D01*
X161910666Y-97037003D01*
X161913500Y-97063361D01*
X161913500Y-111764241D01*
X161893815Y-111831280D01*
X161877181Y-111851922D01*
X161775505Y-111953597D01*
X161645575Y-112139158D01*
X161590998Y-112182783D01*
X161521500Y-112189977D01*
X161459145Y-112158454D01*
X161442425Y-112139158D01*
X161312494Y-111953597D01*
X161145402Y-111786506D01*
X161145395Y-111786501D01*
X160951834Y-111650967D01*
X160951830Y-111650965D01*
X160844002Y-111600684D01*
X160737663Y-111551097D01*
X160737659Y-111551096D01*
X160737655Y-111551094D01*
X160509413Y-111489938D01*
X160509403Y-111489936D01*
X160274001Y-111469341D01*
X160273999Y-111469341D01*
X160038596Y-111489936D01*
X160038586Y-111489938D01*
X159810344Y-111551094D01*
X159810335Y-111551098D01*
X159596171Y-111650964D01*
X159596169Y-111650965D01*
X159402597Y-111786505D01*
X159235508Y-111953594D01*
X159105269Y-112139595D01*
X159050692Y-112183219D01*
X158981193Y-112190412D01*
X158918839Y-112158890D01*
X158902119Y-112139594D01*
X158772113Y-111953926D01*
X158772108Y-111953920D01*
X158605082Y-111786894D01*
X158411578Y-111651399D01*
X158197492Y-111551570D01*
X158197486Y-111551567D01*
X157984000Y-111494364D01*
X157984000Y-112389498D01*
X157876315Y-112340320D01*
X157769763Y-112325000D01*
X157698237Y-112325000D01*
X157591685Y-112340320D01*
X157484000Y-112389498D01*
X157484000Y-111494364D01*
X157483999Y-111494364D01*
X157270513Y-111551567D01*
X157270507Y-111551570D01*
X157056422Y-111651399D01*
X157056420Y-111651400D01*
X156862926Y-111786886D01*
X156862920Y-111786891D01*
X156695891Y-111953920D01*
X156695886Y-111953926D01*
X156560400Y-112147420D01*
X156560399Y-112147422D01*
X156460570Y-112361507D01*
X156460567Y-112361513D01*
X156403364Y-112574999D01*
X156403364Y-112575000D01*
X157300314Y-112575000D01*
X157274507Y-112615156D01*
X157234000Y-112753111D01*
X157234000Y-112896889D01*
X157274507Y-113034844D01*
X157300314Y-113075000D01*
X156403364Y-113075000D01*
X156460567Y-113288486D01*
X156460570Y-113288492D01*
X156560399Y-113502578D01*
X156695894Y-113696082D01*
X156817946Y-113818134D01*
X156851431Y-113879457D01*
X156846447Y-113949149D01*
X156804575Y-114005082D01*
X156773598Y-114021997D01*
X156641671Y-114071202D01*
X156641664Y-114071206D01*
X156526455Y-114157452D01*
X156526452Y-114157455D01*
X156440206Y-114272664D01*
X156440202Y-114272671D01*
X156389908Y-114407517D01*
X156385510Y-114448430D01*
X156383500Y-114467127D01*
X156383500Y-115302611D01*
X156383501Y-116050500D01*
X156363816Y-116117539D01*
X156311013Y-116163294D01*
X156259501Y-116174500D01*
X151474361Y-116174500D01*
X151407322Y-116154815D01*
X151386680Y-116138181D01*
X148029819Y-112781320D01*
X147996334Y-112719997D01*
X147993500Y-112693639D01*
X147993500Y-102306999D01*
X148013185Y-102239960D01*
X148065989Y-102194205D01*
X148117500Y-102182999D01*
X148318000Y-102182999D01*
X148318000Y-101363617D01*
X148387052Y-101417363D01*
X148505424Y-101458000D01*
X148599073Y-101458000D01*
X148691446Y-101442586D01*
X148801514Y-101383019D01*
X148818000Y-101365110D01*
X148818000Y-102182999D01*
X149242972Y-102182999D01*
X149242986Y-102182998D01*
X149345697Y-102172505D01*
X149512119Y-102117358D01*
X149512124Y-102117356D01*
X149661345Y-102025315D01*
X149785315Y-101901345D01*
X149877356Y-101752124D01*
X149877358Y-101752119D01*
X149932505Y-101585697D01*
X149932506Y-101585690D01*
X149942999Y-101482986D01*
X149943000Y-101482973D01*
X149943000Y-101333000D01*
X148847560Y-101333000D01*
X148886278Y-101290941D01*
X148936551Y-101176330D01*
X148946886Y-101051605D01*
X148916163Y-100930281D01*
X148852606Y-100833000D01*
X149942999Y-100833000D01*
X149942999Y-100683028D01*
X149942998Y-100683013D01*
X149932505Y-100580302D01*
X149877358Y-100413880D01*
X149877356Y-100413875D01*
X149785315Y-100264654D01*
X149661344Y-100140683D01*
X149661340Y-100140680D01*
X149597841Y-100101513D01*
X149551116Y-100049565D01*
X149539895Y-99980603D01*
X149567738Y-99916521D01*
X149586289Y-99898503D01*
X149599208Y-99888344D01*
X149605886Y-99883092D01*
X149743519Y-99724256D01*
X149848604Y-99542244D01*
X149917344Y-99343633D01*
X149947254Y-99135602D01*
X149937254Y-98925670D01*
X149887704Y-98721424D01*
X149886860Y-98719575D01*
X149800401Y-98530256D01*
X149800398Y-98530251D01*
X149800397Y-98530250D01*
X149800396Y-98530247D01*
X149678486Y-98359048D01*
X149678484Y-98359046D01*
X149678479Y-98359040D01*
X149526379Y-98214014D01*
X149522957Y-98211815D01*
X149477202Y-98159011D01*
X149467259Y-98089852D01*
X149496285Y-98026297D01*
X149555063Y-97988523D01*
X149589997Y-97983500D01*
X156561373Y-97983500D01*
X156580772Y-97985027D01*
X156594612Y-97987219D01*
X156662337Y-97983670D01*
X156668826Y-97983500D01*
X156689191Y-97983500D01*
X156689192Y-97983500D01*
X156700393Y-97982322D01*
X156709448Y-97981371D01*
X156715906Y-97980862D01*
X156783646Y-97977313D01*
X156797187Y-97973683D01*
X156816313Y-97970138D01*
X156830256Y-97968674D01*
X156894786Y-97947706D01*
X156900951Y-97945880D01*
X156966488Y-97928320D01*
X156978976Y-97921956D01*
X156996950Y-97914510D01*
X157010284Y-97910179D01*
X157069051Y-97876248D01*
X157074693Y-97873185D01*
X157135149Y-97842383D01*
X157146031Y-97833569D01*
X157162083Y-97822537D01*
X157174216Y-97815533D01*
X157224654Y-97770117D01*
X157229540Y-97765945D01*
X157245380Y-97753119D01*
X157259801Y-97738696D01*
X157264472Y-97734264D01*
X157314888Y-97688871D01*
X157323130Y-97677525D01*
X157335760Y-97662737D01*
X158393564Y-96604934D01*
X158454886Y-96571450D01*
X158524578Y-96576434D01*
G37*
%TD.AperFunction*%
%TA.AperFunction,Conductor*%
G36*
X121812329Y-100427185D02*
G01*
X121858084Y-100479989D01*
X121869290Y-100531500D01*
X121869290Y-100937524D01*
X121869291Y-100937542D01*
X121879790Y-101040319D01*
X121879791Y-101040322D01*
X121934905Y-101206642D01*
X121934976Y-101206857D01*
X122026886Y-101355868D01*
X122027079Y-101356180D01*
X122075594Y-101404695D01*
X122109079Y-101466018D01*
X122104095Y-101535710D01*
X122075595Y-101580056D01*
X122027474Y-101628177D01*
X121935433Y-101777398D01*
X121935431Y-101777403D01*
X121880284Y-101943825D01*
X121880283Y-101943832D01*
X121869790Y-102046536D01*
X121869790Y-102321523D01*
X122995790Y-102321523D01*
X123062829Y-102341208D01*
X123108584Y-102394012D01*
X123119790Y-102445523D01*
X123119790Y-104856523D01*
X123100105Y-104923562D01*
X123047301Y-104969317D01*
X122995790Y-104980523D01*
X121869791Y-104980523D01*
X121869791Y-105255509D01*
X121880284Y-105358220D01*
X121935431Y-105524642D01*
X121935436Y-105524653D01*
X121971188Y-105582615D01*
X121989629Y-105650007D01*
X121968707Y-105716671D01*
X121939962Y-105746978D01*
X121860312Y-105806605D01*
X121794848Y-105831023D01*
X121726575Y-105816172D01*
X121711689Y-105806606D01*
X121701527Y-105798999D01*
X121632037Y-105746978D01*
X121628330Y-105744203D01*
X121628328Y-105744202D01*
X121493482Y-105693908D01*
X121493483Y-105693908D01*
X121433883Y-105687501D01*
X121433881Y-105687500D01*
X121433873Y-105687500D01*
X121433864Y-105687500D01*
X119838129Y-105687500D01*
X119838123Y-105687501D01*
X119778516Y-105693908D01*
X119643671Y-105744202D01*
X119643669Y-105744204D01*
X119559894Y-105806918D01*
X119494430Y-105831335D01*
X119426157Y-105816484D01*
X119411272Y-105806918D01*
X119328088Y-105744646D01*
X119328086Y-105744645D01*
X119193379Y-105694403D01*
X119193372Y-105694401D01*
X119133844Y-105688000D01*
X118586000Y-105688000D01*
X118586000Y-107314000D01*
X118566315Y-107381039D01*
X118513511Y-107426794D01*
X118462000Y-107438000D01*
X118210000Y-107438000D01*
X118142961Y-107418315D01*
X118097206Y-107365511D01*
X118086000Y-107314000D01*
X118086000Y-105688000D01*
X117674500Y-105688000D01*
X117607461Y-105668315D01*
X117561706Y-105615511D01*
X117550500Y-105564000D01*
X117550500Y-104598360D01*
X117570185Y-104531321D01*
X117586814Y-104510684D01*
X118215498Y-103882000D01*
X118742001Y-103882000D01*
X118742001Y-104006986D01*
X118752494Y-104109697D01*
X118807641Y-104276119D01*
X118807643Y-104276124D01*
X118899684Y-104425345D01*
X119023654Y-104549315D01*
X119172875Y-104641356D01*
X119172880Y-104641358D01*
X119339302Y-104696505D01*
X119339309Y-104696506D01*
X119442019Y-104706999D01*
X119891999Y-104706999D01*
X119892000Y-104706998D01*
X119892000Y-103882000D01*
X120392000Y-103882000D01*
X120392000Y-104706999D01*
X120841972Y-104706999D01*
X120841986Y-104706998D01*
X120944697Y-104696505D01*
X121111119Y-104641358D01*
X121111124Y-104641356D01*
X121260345Y-104549315D01*
X121329137Y-104480523D01*
X121869790Y-104480523D01*
X122619790Y-104480523D01*
X122619790Y-102821523D01*
X121869791Y-102821523D01*
X121869791Y-103096509D01*
X121880284Y-103199220D01*
X121935431Y-103365642D01*
X121935433Y-103365647D01*
X122027474Y-103514868D01*
X122075948Y-103563343D01*
X122109432Y-103624666D01*
X122104447Y-103694358D01*
X122075948Y-103738703D01*
X122027474Y-103787177D01*
X121935433Y-103936398D01*
X121935431Y-103936403D01*
X121880284Y-104102825D01*
X121880283Y-104102832D01*
X121869790Y-104205536D01*
X121869790Y-104480523D01*
X121329137Y-104480523D01*
X121384315Y-104425345D01*
X121476356Y-104276124D01*
X121476358Y-104276119D01*
X121531505Y-104109697D01*
X121531506Y-104109690D01*
X121541999Y-104006986D01*
X121542000Y-104006973D01*
X121542000Y-103882000D01*
X120392000Y-103882000D01*
X119892000Y-103882000D01*
X118742001Y-103882000D01*
X118215498Y-103882000D01*
X118679181Y-103418317D01*
X118740502Y-103384834D01*
X118766860Y-103382000D01*
X119892000Y-103382000D01*
X119892000Y-102557000D01*
X120392000Y-102557000D01*
X120392000Y-103382000D01*
X121541999Y-103382000D01*
X121541999Y-103257028D01*
X121541998Y-103257013D01*
X121531505Y-103154302D01*
X121476358Y-102987880D01*
X121476356Y-102987875D01*
X121384315Y-102838654D01*
X121260345Y-102714684D01*
X121111124Y-102622643D01*
X121111119Y-102622641D01*
X120944697Y-102567494D01*
X120944690Y-102567493D01*
X120841986Y-102557000D01*
X120392000Y-102557000D01*
X119892000Y-102557000D01*
X119839860Y-102557000D01*
X119772821Y-102537315D01*
X119727066Y-102484511D01*
X119717122Y-102415353D01*
X119746147Y-102351797D01*
X119752165Y-102345333D01*
X120303681Y-101793818D01*
X120365004Y-101760333D01*
X120391362Y-101757499D01*
X120842002Y-101757499D01*
X120842008Y-101757499D01*
X120944797Y-101746999D01*
X121111334Y-101691814D01*
X121260656Y-101599712D01*
X121384712Y-101475656D01*
X121476814Y-101326334D01*
X121531999Y-101159797D01*
X121542500Y-101057009D01*
X121542499Y-100531499D01*
X121562183Y-100464461D01*
X121614987Y-100418706D01*
X121666499Y-100407500D01*
X121745290Y-100407500D01*
X121812329Y-100427185D01*
G37*
%TD.AperFunction*%
%TA.AperFunction,Conductor*%
G36*
X119009308Y-99439184D02*
G01*
X119029950Y-99455818D01*
X119107328Y-99533196D01*
X119140813Y-99594519D01*
X119135829Y-99664211D01*
X119093957Y-99720144D01*
X119084745Y-99726415D01*
X119023344Y-99764287D01*
X118899289Y-99888342D01*
X118807187Y-100037663D01*
X118807185Y-100037668D01*
X118803243Y-100049565D01*
X118752001Y-100204203D01*
X118752001Y-100204204D01*
X118752000Y-100204204D01*
X118741500Y-100306983D01*
X118741500Y-100757637D01*
X118721815Y-100824676D01*
X118705181Y-100845318D01*
X116070263Y-103480236D01*
X116055474Y-103492869D01*
X116044126Y-103501114D01*
X115998751Y-103551508D01*
X115994288Y-103556211D01*
X115979891Y-103570609D01*
X115979875Y-103570627D01*
X115967058Y-103586452D01*
X115962852Y-103591376D01*
X115917469Y-103641781D01*
X115917466Y-103641785D01*
X115910458Y-103653923D01*
X115899444Y-103669948D01*
X115890626Y-103680837D01*
X115890616Y-103680853D01*
X115859819Y-103741294D01*
X115856722Y-103746997D01*
X115822821Y-103805713D01*
X115818487Y-103819053D01*
X115811045Y-103837020D01*
X115804680Y-103849512D01*
X115787126Y-103915018D01*
X115785284Y-103921234D01*
X115764326Y-103985742D01*
X115764325Y-103985745D01*
X115762860Y-103999686D01*
X115759315Y-104018812D01*
X115755686Y-104032352D01*
X115752136Y-104100091D01*
X115751628Y-104106552D01*
X115749500Y-104126811D01*
X115749500Y-104147174D01*
X115749330Y-104153663D01*
X115746571Y-104206322D01*
X115745781Y-104221388D01*
X115745785Y-104221416D01*
X115747973Y-104235225D01*
X115749500Y-104254626D01*
X115749500Y-105648573D01*
X115729815Y-105715612D01*
X115677011Y-105761367D01*
X115607853Y-105771311D01*
X115551193Y-105747843D01*
X115546333Y-105744205D01*
X115546328Y-105744202D01*
X115411482Y-105693908D01*
X115411483Y-105693908D01*
X115351883Y-105687501D01*
X115351881Y-105687500D01*
X115351873Y-105687500D01*
X115351864Y-105687500D01*
X113756129Y-105687500D01*
X113756123Y-105687501D01*
X113696516Y-105693908D01*
X113561671Y-105744202D01*
X113561669Y-105744203D01*
X113478311Y-105806606D01*
X113412847Y-105831023D01*
X113344574Y-105816172D01*
X113329689Y-105806606D01*
X113323305Y-105801827D01*
X113246331Y-105744204D01*
X113235161Y-105740038D01*
X113179231Y-105698166D01*
X113154816Y-105632701D01*
X113154500Y-105623858D01*
X113154500Y-102040523D01*
X113174185Y-101973484D01*
X113226989Y-101927729D01*
X113296147Y-101917785D01*
X113359703Y-101946810D01*
X113366181Y-101952842D01*
X113438654Y-102025315D01*
X113587875Y-102117356D01*
X113587880Y-102117358D01*
X113754302Y-102172505D01*
X113754309Y-102172506D01*
X113857019Y-102182999D01*
X114281999Y-102182999D01*
X114282000Y-102182998D01*
X114282000Y-101363617D01*
X114351052Y-101417363D01*
X114469424Y-101458000D01*
X114563073Y-101458000D01*
X114655446Y-101442586D01*
X114765514Y-101383019D01*
X114782000Y-101365110D01*
X114782000Y-102182999D01*
X115206972Y-102182999D01*
X115206986Y-102182998D01*
X115309697Y-102172505D01*
X115476119Y-102117358D01*
X115476124Y-102117356D01*
X115625345Y-102025315D01*
X115749315Y-101901345D01*
X115841356Y-101752124D01*
X115841358Y-101752119D01*
X115896505Y-101585697D01*
X115896506Y-101585690D01*
X115906999Y-101482986D01*
X115907000Y-101482973D01*
X115907000Y-101333000D01*
X114811560Y-101333000D01*
X114850278Y-101290941D01*
X114900551Y-101176330D01*
X114910886Y-101051605D01*
X114880163Y-100930281D01*
X114816606Y-100833000D01*
X115906999Y-100833000D01*
X115906999Y-100683028D01*
X115906998Y-100683013D01*
X115896505Y-100580302D01*
X115841358Y-100413880D01*
X115841356Y-100413875D01*
X115749315Y-100264654D01*
X115679842Y-100195181D01*
X115646357Y-100133858D01*
X115651341Y-100064166D01*
X115693213Y-100008233D01*
X115758677Y-99983816D01*
X115767523Y-99983500D01*
X117559873Y-99983500D01*
X117579272Y-99985027D01*
X117593112Y-99987219D01*
X117660837Y-99983670D01*
X117667326Y-99983500D01*
X117687691Y-99983500D01*
X117687692Y-99983500D01*
X117698893Y-99982322D01*
X117707948Y-99981371D01*
X117714406Y-99980862D01*
X117782146Y-99977313D01*
X117795687Y-99973683D01*
X117814813Y-99970138D01*
X117828756Y-99968674D01*
X117893286Y-99947706D01*
X117899451Y-99945880D01*
X117964988Y-99928320D01*
X117977476Y-99921956D01*
X117995450Y-99914510D01*
X118008784Y-99910179D01*
X118067551Y-99876248D01*
X118073193Y-99873185D01*
X118133649Y-99842383D01*
X118144531Y-99833569D01*
X118160583Y-99822537D01*
X118172716Y-99815533D01*
X118223154Y-99770117D01*
X118228040Y-99765945D01*
X118243880Y-99753119D01*
X118258301Y-99738696D01*
X118262984Y-99734254D01*
X118313388Y-99688871D01*
X118321630Y-99677525D01*
X118334260Y-99662737D01*
X118541180Y-99455818D01*
X118602503Y-99422333D01*
X118628861Y-99419499D01*
X118942269Y-99419499D01*
X119009308Y-99439184D01*
G37*
%TD.AperFunction*%
%TA.AperFunction,Conductor*%
G36*
X123899530Y-101322757D02*
G01*
X123925619Y-101352862D01*
X123927471Y-101355864D01*
X123927473Y-101355867D01*
X123975594Y-101403988D01*
X124009079Y-101465311D01*
X124004095Y-101535003D01*
X123975595Y-101579349D01*
X123927078Y-101627866D01*
X123927073Y-101627872D01*
X123925031Y-101631184D01*
X123923037Y-101632976D01*
X123922597Y-101633534D01*
X123922501Y-101633458D01*
X123873081Y-101677906D01*
X123804118Y-101689125D01*
X123740037Y-101661278D01*
X123713958Y-101631179D01*
X123712109Y-101628182D01*
X123712106Y-101628178D01*
X123663985Y-101580057D01*
X123630500Y-101518734D01*
X123635484Y-101449042D01*
X123663984Y-101404696D01*
X123712502Y-101356179D01*
X123714542Y-101352870D01*
X123716535Y-101351078D01*
X123716983Y-101350512D01*
X123717079Y-101350588D01*
X123766484Y-101306146D01*
X123835446Y-101294918D01*
X123899530Y-101322757D01*
G37*
%TD.AperFunction*%
%TA.AperFunction,Conductor*%
G36*
X174343288Y-88920185D02*
G01*
X174389043Y-88972989D01*
X174400248Y-89024320D01*
X174407017Y-93765279D01*
X174407500Y-94103766D01*
X174407500Y-123750901D01*
X174387815Y-123817940D01*
X174335011Y-123863695D01*
X174283427Y-123874901D01*
X89532427Y-123825076D01*
X89465399Y-123805352D01*
X89419675Y-123752521D01*
X89408500Y-123701076D01*
X89408500Y-121398330D01*
X90505710Y-121398330D01*
X90535925Y-121621387D01*
X90535926Y-121621390D01*
X90605483Y-121835465D01*
X90712146Y-122033678D01*
X90712148Y-122033681D01*
X90852489Y-122209663D01*
X90852491Y-122209664D01*
X90852492Y-122209666D01*
X91022004Y-122357765D01*
X91215236Y-122473215D01*
X91425976Y-122552307D01*
X91647450Y-122592500D01*
X91647453Y-122592500D01*
X91816148Y-122592500D01*
X91816155Y-122592500D01*
X91984188Y-122577377D01*
X91984192Y-122577376D01*
X92201160Y-122517496D01*
X92201162Y-122517495D01*
X92201170Y-122517493D01*
X92403973Y-122419829D01*
X92586078Y-122287522D01*
X92741632Y-122124825D01*
X92865635Y-121936968D01*
X92954103Y-121729988D01*
X92973197Y-121646330D01*
X170805710Y-121646330D01*
X170835925Y-121869387D01*
X170835926Y-121869390D01*
X170905483Y-122083465D01*
X171012146Y-122281678D01*
X171012148Y-122281681D01*
X171152489Y-122457663D01*
X171152491Y-122457664D01*
X171152492Y-122457666D01*
X171322004Y-122605765D01*
X171515236Y-122721215D01*
X171725976Y-122800307D01*
X171947450Y-122840500D01*
X171947453Y-122840500D01*
X172116148Y-122840500D01*
X172116155Y-122840500D01*
X172284188Y-122825377D01*
X172284192Y-122825376D01*
X172501160Y-122765496D01*
X172501162Y-122765495D01*
X172501170Y-122765493D01*
X172703973Y-122667829D01*
X172886078Y-122535522D01*
X173041632Y-122372825D01*
X173165635Y-122184968D01*
X173191342Y-122124825D01*
X173254100Y-121977995D01*
X173254099Y-121977995D01*
X173254103Y-121977988D01*
X173304191Y-121758537D01*
X173314290Y-121533670D01*
X173284075Y-121310613D01*
X173214517Y-121096536D01*
X173107852Y-120898319D01*
X172967508Y-120722334D01*
X172797996Y-120574235D01*
X172604764Y-120458785D01*
X172486775Y-120414503D01*
X172394023Y-120379692D01*
X172172550Y-120339500D01*
X172172547Y-120339500D01*
X172003845Y-120339500D01*
X171965399Y-120342960D01*
X171835813Y-120354622D01*
X171835807Y-120354623D01*
X171618839Y-120414503D01*
X171618826Y-120414508D01*
X171416033Y-120512167D01*
X171416025Y-120512171D01*
X171233927Y-120644473D01*
X171233925Y-120644474D01*
X171078366Y-120807176D01*
X170954363Y-120995033D01*
X170865899Y-121202004D01*
X170865895Y-121202017D01*
X170815810Y-121421457D01*
X170815808Y-121421468D01*
X170810769Y-121533674D01*
X170805710Y-121646330D01*
X92973197Y-121646330D01*
X93004191Y-121510537D01*
X93014290Y-121285670D01*
X92984075Y-121062613D01*
X92914517Y-120848536D01*
X92807852Y-120650319D01*
X92667508Y-120474334D01*
X92497996Y-120326235D01*
X92304764Y-120210785D01*
X92186775Y-120166503D01*
X92094023Y-120131692D01*
X91872550Y-120091500D01*
X91872547Y-120091500D01*
X91703845Y-120091500D01*
X91665399Y-120094960D01*
X91535813Y-120106622D01*
X91535807Y-120106623D01*
X91318839Y-120166503D01*
X91318826Y-120166508D01*
X91116033Y-120264167D01*
X91116025Y-120264171D01*
X90933927Y-120396473D01*
X90933925Y-120396474D01*
X90778366Y-120559176D01*
X90654363Y-120747033D01*
X90565899Y-120954004D01*
X90565895Y-120954017D01*
X90515810Y-121173457D01*
X90515808Y-121173468D01*
X90509649Y-121310613D01*
X90505710Y-121398330D01*
X89408500Y-121398330D01*
X89408500Y-112825000D01*
X99736341Y-112825000D01*
X99756936Y-113060403D01*
X99756938Y-113060413D01*
X99818094Y-113288655D01*
X99818096Y-113288659D01*
X99818097Y-113288663D01*
X99859278Y-113376976D01*
X99917965Y-113502830D01*
X99917967Y-113502834D01*
X100001439Y-113622043D01*
X100053504Y-113696400D01*
X100053506Y-113696402D01*
X100175818Y-113818714D01*
X100209303Y-113880037D01*
X100204319Y-113949729D01*
X100162447Y-114005662D01*
X100131471Y-114022577D01*
X99999912Y-114071646D01*
X99999906Y-114071649D01*
X99884812Y-114157809D01*
X99884809Y-114157812D01*
X99798649Y-114272906D01*
X99798645Y-114272913D01*
X99748403Y-114407620D01*
X99748401Y-114407627D01*
X99742000Y-114467155D01*
X99742000Y-115115000D01*
X100658314Y-115115000D01*
X100632507Y-115155156D01*
X100592000Y-115293111D01*
X100592000Y-115436889D01*
X100632507Y-115574844D01*
X100658314Y-115615000D01*
X99742000Y-115615000D01*
X99742000Y-116262844D01*
X99748401Y-116322372D01*
X99748403Y-116322379D01*
X99798645Y-116457086D01*
X99798649Y-116457093D01*
X99884809Y-116572187D01*
X99884812Y-116572190D01*
X99999906Y-116658350D01*
X99999913Y-116658354D01*
X100134620Y-116708596D01*
X100134627Y-116708598D01*
X100194155Y-116714999D01*
X100194172Y-116715000D01*
X100842000Y-116715000D01*
X100842000Y-115800501D01*
X100949685Y-115849680D01*
X101056237Y-115865000D01*
X101127763Y-115865000D01*
X101234315Y-115849680D01*
X101342000Y-115800501D01*
X101342000Y-116715000D01*
X101989828Y-116715000D01*
X101989844Y-116714999D01*
X102049372Y-116708598D01*
X102049379Y-116708596D01*
X102184086Y-116658354D01*
X102184093Y-116658350D01*
X102299187Y-116572190D01*
X102299190Y-116572187D01*
X102385350Y-116457093D01*
X102385354Y-116457086D01*
X102434422Y-116325529D01*
X102476293Y-116269595D01*
X102541757Y-116245178D01*
X102610030Y-116260030D01*
X102638285Y-116281181D01*
X102760599Y-116403495D01*
X102837135Y-116457086D01*
X102954165Y-116539032D01*
X102954167Y-116539033D01*
X102954170Y-116539035D01*
X103168337Y-116638903D01*
X103168343Y-116638904D01*
X103168344Y-116638905D01*
X103223285Y-116653626D01*
X103396592Y-116700063D01*
X103567319Y-116715000D01*
X103631999Y-116720659D01*
X103632000Y-116720659D01*
X103632001Y-116720659D01*
X103671234Y-116717226D01*
X103867408Y-116700063D01*
X104095663Y-116638903D01*
X104309830Y-116539035D01*
X104503401Y-116403495D01*
X104670495Y-116236401D01*
X104800425Y-116050842D01*
X104855002Y-116007217D01*
X104924500Y-116000023D01*
X104986855Y-116031546D01*
X105003575Y-116050842D01*
X105133500Y-116236395D01*
X105133505Y-116236401D01*
X105300599Y-116403495D01*
X105377135Y-116457086D01*
X105494165Y-116539032D01*
X105494167Y-116539033D01*
X105494170Y-116539035D01*
X105708337Y-116638903D01*
X105708343Y-116638904D01*
X105708344Y-116638905D01*
X105763285Y-116653626D01*
X105936592Y-116700063D01*
X106107319Y-116715000D01*
X106171999Y-116720659D01*
X106172000Y-116720659D01*
X106172001Y-116720659D01*
X106211234Y-116717226D01*
X106407408Y-116700063D01*
X106635663Y-116638903D01*
X106849830Y-116539035D01*
X107043401Y-116403495D01*
X107210495Y-116236401D01*
X107346035Y-116042830D01*
X107445903Y-115828663D01*
X107507063Y-115600408D01*
X107527659Y-115365000D01*
X107526088Y-115347052D01*
X107539853Y-115278555D01*
X107561932Y-115248566D01*
X108201742Y-114608756D01*
X108216525Y-114596130D01*
X108227871Y-114587888D01*
X108273256Y-114537481D01*
X108274785Y-114535870D01*
X109853500Y-114535870D01*
X109853501Y-114535876D01*
X109859908Y-114595483D01*
X109910202Y-114730328D01*
X109910206Y-114730335D01*
X109996452Y-114845544D01*
X109996455Y-114845547D01*
X110111664Y-114931793D01*
X110111671Y-114931797D01*
X110246517Y-114982091D01*
X110246516Y-114982091D01*
X110253444Y-114982835D01*
X110306127Y-114988500D01*
X114201872Y-114988499D01*
X114261483Y-114982091D01*
X114396331Y-114931796D01*
X114511546Y-114845546D01*
X114597796Y-114730331D01*
X114648091Y-114595483D01*
X114654500Y-114535873D01*
X114654499Y-112440128D01*
X114648091Y-112380517D01*
X114640937Y-112361337D01*
X114597797Y-112245671D01*
X114597793Y-112245664D01*
X114511547Y-112130455D01*
X114511544Y-112130452D01*
X114396335Y-112044206D01*
X114396328Y-112044202D01*
X114261482Y-111993908D01*
X114261483Y-111993908D01*
X114201883Y-111987501D01*
X114201881Y-111987500D01*
X114201873Y-111987500D01*
X114201865Y-111987500D01*
X113278500Y-111987500D01*
X113211461Y-111967815D01*
X113165706Y-111915011D01*
X113154500Y-111863500D01*
X113154500Y-108752141D01*
X113174185Y-108685102D01*
X113226989Y-108639347D01*
X113235149Y-108635966D01*
X113246331Y-108631796D01*
X113329689Y-108569393D01*
X113395153Y-108544977D01*
X113463426Y-108559828D01*
X113478311Y-108569394D01*
X113561669Y-108631796D01*
X113561671Y-108631797D01*
X113696516Y-108682091D01*
X113742757Y-108687063D01*
X113807307Y-108713801D01*
X113847155Y-108771194D01*
X113853500Y-108810352D01*
X113853500Y-109548373D01*
X113851972Y-109567772D01*
X113849781Y-109581612D01*
X113852395Y-109631494D01*
X113853330Y-109649335D01*
X113853500Y-109655824D01*
X113853500Y-109676192D01*
X113854659Y-109687228D01*
X113855628Y-109696448D01*
X113856136Y-109702909D01*
X113859686Y-109770643D01*
X113859688Y-109770653D01*
X113863315Y-109784189D01*
X113866860Y-109803314D01*
X113867533Y-109809711D01*
X113868326Y-109817256D01*
X113868328Y-109817262D01*
X113889282Y-109881755D01*
X113891125Y-109887976D01*
X113908679Y-109953486D01*
X113908684Y-109953498D01*
X113915043Y-109965978D01*
X113922488Y-109983949D01*
X113926821Y-109997284D01*
X113945707Y-110029996D01*
X113960726Y-110056009D01*
X113963822Y-110061712D01*
X113994616Y-110122147D01*
X113994620Y-110122153D01*
X114003438Y-110133043D01*
X114014454Y-110149070D01*
X114021465Y-110161213D01*
X114021470Y-110161220D01*
X114066855Y-110211627D01*
X114071063Y-110216554D01*
X114083883Y-110232383D01*
X114098275Y-110246775D01*
X114102743Y-110251483D01*
X114148128Y-110301887D01*
X114159468Y-110310126D01*
X114174265Y-110322764D01*
X115963181Y-112111680D01*
X115996666Y-112173003D01*
X115999500Y-112199361D01*
X115999500Y-115469646D01*
X116008014Y-115509705D01*
X116010043Y-115522519D01*
X116014325Y-115563255D01*
X116014326Y-115563257D01*
X116026982Y-115602209D01*
X116030341Y-115614744D01*
X116038856Y-115654803D01*
X116038855Y-115654803D01*
X116055512Y-115692212D01*
X116060164Y-115704331D01*
X116072818Y-115743277D01*
X116072820Y-115743281D01*
X116072821Y-115743284D01*
X116092291Y-115777007D01*
X116093301Y-115778756D01*
X116099192Y-115790318D01*
X116115850Y-115827732D01*
X116115853Y-115827736D01*
X116139917Y-115860858D01*
X116146985Y-115871742D01*
X116167464Y-115907211D01*
X116167471Y-115907222D01*
X116194877Y-115937659D01*
X116203045Y-115947746D01*
X116217607Y-115967788D01*
X116227112Y-115980871D01*
X116256372Y-116007217D01*
X116257542Y-116008270D01*
X116266719Y-116017447D01*
X116294128Y-116047887D01*
X116294129Y-116047888D01*
X116327258Y-116071957D01*
X116337348Y-116080128D01*
X116367777Y-116107528D01*
X116367781Y-116107531D01*
X116367784Y-116107533D01*
X116379096Y-116114064D01*
X116403258Y-116128015D01*
X116414142Y-116135083D01*
X116447265Y-116159148D01*
X116447267Y-116159149D01*
X116447270Y-116159151D01*
X116450391Y-116160540D01*
X116487642Y-116186141D01*
X117006235Y-116704734D01*
X117018869Y-116719525D01*
X117019693Y-116720659D01*
X117027113Y-116730872D01*
X117077515Y-116776254D01*
X117082207Y-116780706D01*
X117096620Y-116795119D01*
X117099104Y-116797131D01*
X117112441Y-116807931D01*
X117117376Y-116812146D01*
X117167781Y-116857531D01*
X117167782Y-116857531D01*
X117167784Y-116857533D01*
X117167786Y-116857534D01*
X117179918Y-116864538D01*
X117195955Y-116875560D01*
X117206849Y-116884382D01*
X117206851Y-116884383D01*
X117267287Y-116915176D01*
X117272975Y-116918265D01*
X117331707Y-116952174D01*
X117331714Y-116952178D01*
X117331716Y-116952179D01*
X117345046Y-116956510D01*
X117363019Y-116963954D01*
X117375512Y-116970320D01*
X117410767Y-116979766D01*
X117441016Y-116987871D01*
X117447219Y-116989707D01*
X117511744Y-117010674D01*
X117522116Y-117011763D01*
X117525684Y-117012139D01*
X117544825Y-117015687D01*
X117558348Y-117019311D01*
X117558354Y-117019312D01*
X117626089Y-117022861D01*
X117632508Y-117023366D01*
X117652808Y-117025500D01*
X117673180Y-117025500D01*
X117679669Y-117025669D01*
X117747388Y-117029219D01*
X117761228Y-117027027D01*
X117780627Y-117025500D01*
X123044373Y-117025500D01*
X123063772Y-117027027D01*
X123077612Y-117029219D01*
X123145337Y-117025670D01*
X123151826Y-117025500D01*
X123172191Y-117025500D01*
X123172192Y-117025500D01*
X123183393Y-117024322D01*
X123192448Y-117023371D01*
X123198906Y-117022862D01*
X123266646Y-117019313D01*
X123280187Y-117015683D01*
X123299313Y-117012138D01*
X123313256Y-117010674D01*
X123377786Y-116989706D01*
X123383951Y-116987880D01*
X123449488Y-116970320D01*
X123461976Y-116963956D01*
X123479950Y-116956510D01*
X123493284Y-116952179D01*
X123552051Y-116918248D01*
X123557693Y-116915185D01*
X123618149Y-116884383D01*
X123629031Y-116875569D01*
X123645083Y-116864537D01*
X123657216Y-116857533D01*
X123707654Y-116812117D01*
X123712540Y-116807945D01*
X123728380Y-116795119D01*
X123742801Y-116780696D01*
X123747484Y-116776254D01*
X123797888Y-116730871D01*
X123806130Y-116719525D01*
X123818760Y-116704737D01*
X124479742Y-116043756D01*
X124494525Y-116031130D01*
X124505871Y-116022888D01*
X124551257Y-115972480D01*
X124555711Y-115967788D01*
X124570116Y-115953384D01*
X124570116Y-115953383D01*
X124570120Y-115953380D01*
X124582956Y-115937526D01*
X124587133Y-115932635D01*
X124632533Y-115882216D01*
X124639541Y-115870076D01*
X124650559Y-115854045D01*
X124659384Y-115843149D01*
X124690195Y-115782675D01*
X124693246Y-115777056D01*
X124727179Y-115718284D01*
X124731510Y-115704951D01*
X124738955Y-115686976D01*
X124745320Y-115674487D01*
X124762874Y-115608973D01*
X124764715Y-115602759D01*
X124785674Y-115538255D01*
X124787139Y-115524317D01*
X124790687Y-115505175D01*
X124794313Y-115491645D01*
X124797863Y-115423880D01*
X124798366Y-115417484D01*
X124800500Y-115397192D01*
X124800500Y-115376837D01*
X124800670Y-115370347D01*
X124800950Y-115364999D01*
X124804220Y-115302611D01*
X124802027Y-115288765D01*
X124800500Y-115269366D01*
X124800500Y-110680909D01*
X124802027Y-110661510D01*
X124807794Y-110625100D01*
X124807794Y-110625097D01*
X124807060Y-110611104D01*
X124807570Y-110591645D01*
X124808020Y-110587370D01*
X124809035Y-110577712D01*
X124807570Y-110563777D01*
X124807060Y-110544318D01*
X124807794Y-110530324D01*
X124802027Y-110493911D01*
X124800500Y-110474513D01*
X124800500Y-109933102D01*
X124801179Y-109924466D01*
X124801012Y-109924458D01*
X124803087Y-109884841D01*
X124803495Y-109877050D01*
X124804848Y-109864170D01*
X124811258Y-109823707D01*
X124810524Y-109809709D01*
X124811034Y-109790252D01*
X124812499Y-109776319D01*
X124812499Y-109776317D01*
X124811034Y-109762384D01*
X124810524Y-109742926D01*
X124811258Y-109728931D01*
X124804848Y-109688466D01*
X124803495Y-109675586D01*
X124801352Y-109634674D01*
X124801012Y-109628182D01*
X124801179Y-109628173D01*
X124800500Y-109619537D01*
X124800500Y-108232626D01*
X124802027Y-108213225D01*
X124804219Y-108199388D01*
X124800670Y-108131663D01*
X124800500Y-108125174D01*
X124800500Y-108104809D01*
X124800499Y-108104800D01*
X124798371Y-108084552D01*
X124797862Y-108078098D01*
X124794313Y-108010355D01*
X124790685Y-107996814D01*
X124787139Y-107977688D01*
X124785674Y-107963744D01*
X124764710Y-107899227D01*
X124762871Y-107893015D01*
X124745321Y-107827515D01*
X124745320Y-107827514D01*
X124745320Y-107827512D01*
X124738956Y-107815022D01*
X124731511Y-107797050D01*
X124727179Y-107783716D01*
X124694981Y-107727948D01*
X124693265Y-107724975D01*
X124690178Y-107719292D01*
X124659383Y-107658851D01*
X124650557Y-107647952D01*
X124639540Y-107631920D01*
X124632533Y-107619784D01*
X124587145Y-107569375D01*
X124582943Y-107564456D01*
X124570120Y-107548620D01*
X124555697Y-107534197D01*
X124551244Y-107529504D01*
X124505875Y-107479115D01*
X124505869Y-107479110D01*
X124494529Y-107470871D01*
X124479736Y-107458236D01*
X124222818Y-107201318D01*
X124189333Y-107139995D01*
X124186499Y-107113637D01*
X124186499Y-107050229D01*
X124206184Y-106983190D01*
X124222813Y-106962552D01*
X125252397Y-105932968D01*
X125301074Y-105902945D01*
X125339124Y-105890337D01*
X125365028Y-105874358D01*
X125432416Y-105855918D01*
X125499080Y-105876838D01*
X125511896Y-105886814D01*
X125665872Y-105998683D01*
X125665877Y-105998686D01*
X125838799Y-106075677D01*
X125838804Y-106075679D01*
X126023961Y-106115035D01*
X126023962Y-106115035D01*
X126213251Y-106115035D01*
X126213253Y-106115035D01*
X126398410Y-106075679D01*
X126571337Y-105998686D01*
X126724478Y-105887423D01*
X126851140Y-105746751D01*
X126945786Y-105582819D01*
X127004281Y-105402791D01*
X127024067Y-105214535D01*
X127004281Y-105026279D01*
X126953281Y-104869317D01*
X126951286Y-104799476D01*
X126987366Y-104739643D01*
X127050067Y-104708815D01*
X127071212Y-104706999D01*
X127258000Y-104706999D01*
X127258000Y-103882000D01*
X127758000Y-103882000D01*
X127758000Y-104706999D01*
X128207972Y-104706999D01*
X128207986Y-104706998D01*
X128310697Y-104696505D01*
X128477119Y-104641358D01*
X128477124Y-104641356D01*
X128626345Y-104549315D01*
X128750315Y-104425345D01*
X128842356Y-104276124D01*
X128842358Y-104276119D01*
X128897505Y-104109697D01*
X128897506Y-104109690D01*
X128907999Y-104006986D01*
X128908000Y-104006973D01*
X128908000Y-103882000D01*
X127758000Y-103882000D01*
X127258000Y-103882000D01*
X127258000Y-102557000D01*
X127758000Y-102557000D01*
X127758000Y-103382000D01*
X128907999Y-103382000D01*
X128907999Y-103257028D01*
X128907998Y-103257013D01*
X128897505Y-103154302D01*
X128842358Y-102987880D01*
X128842356Y-102987875D01*
X128750315Y-102838654D01*
X128626345Y-102714684D01*
X128477124Y-102622643D01*
X128477119Y-102622641D01*
X128310697Y-102567494D01*
X128310690Y-102567493D01*
X128207986Y-102557000D01*
X127758000Y-102557000D01*
X127258000Y-102557000D01*
X126808028Y-102557000D01*
X126808012Y-102557001D01*
X126705302Y-102567494D01*
X126538880Y-102622641D01*
X126538875Y-102622643D01*
X126389654Y-102714684D01*
X126269668Y-102834671D01*
X126208345Y-102868156D01*
X126138653Y-102863172D01*
X126094306Y-102834671D01*
X125806608Y-102546973D01*
X125773123Y-102485650D01*
X125770289Y-102459292D01*
X125770289Y-102046521D01*
X125770288Y-102046504D01*
X125759789Y-101943726D01*
X125759788Y-101943723D01*
X125709510Y-101791995D01*
X125704604Y-101777189D01*
X125612502Y-101627867D01*
X125563984Y-101579349D01*
X125530500Y-101518027D01*
X125535484Y-101448335D01*
X125563986Y-101403987D01*
X125612105Y-101355868D01*
X125704146Y-101206647D01*
X125704148Y-101206642D01*
X125759295Y-101040220D01*
X125759296Y-101040213D01*
X125769789Y-100937509D01*
X125769790Y-100937496D01*
X125769790Y-100662523D01*
X124643790Y-100662523D01*
X124576751Y-100642838D01*
X124530996Y-100590034D01*
X124519790Y-100538523D01*
X124519790Y-99187523D01*
X124519789Y-99187522D01*
X124469819Y-99187523D01*
X124469801Y-99187524D01*
X124367092Y-99198017D01*
X124200670Y-99253164D01*
X124200665Y-99253166D01*
X124051444Y-99345207D01*
X123927473Y-99469178D01*
X123927469Y-99469183D01*
X123925616Y-99472188D01*
X123923808Y-99473813D01*
X123922992Y-99474846D01*
X123922815Y-99474706D01*
X123873664Y-99518908D01*
X123804701Y-99530124D01*
X123740621Y-99502275D01*
X123714543Y-99472176D01*
X123714527Y-99472151D01*
X123712502Y-99468867D01*
X123656609Y-99412974D01*
X123623124Y-99351651D01*
X123620290Y-99325293D01*
X123620290Y-98445484D01*
X123639975Y-98378445D01*
X123656600Y-98357812D01*
X123732112Y-98282300D01*
X123793430Y-98248818D01*
X123863122Y-98253802D01*
X123907470Y-98282303D01*
X124154805Y-98529638D01*
X124166586Y-98543270D01*
X124180923Y-98562528D01*
X124218872Y-98594372D01*
X124226845Y-98601679D01*
X124230752Y-98605586D01*
X124230758Y-98605591D01*
X124255072Y-98624816D01*
X124257853Y-98627080D01*
X124264851Y-98632952D01*
X124315324Y-98675305D01*
X124321353Y-98679270D01*
X124321320Y-98679319D01*
X124327682Y-98683372D01*
X124327714Y-98683321D01*
X124333854Y-98687108D01*
X124333858Y-98687111D01*
X124372512Y-98705135D01*
X124401855Y-98718819D01*
X124405101Y-98720391D01*
X124472097Y-98754038D01*
X124478892Y-98756511D01*
X124478871Y-98756567D01*
X124485992Y-98759043D01*
X124486011Y-98758986D01*
X124492854Y-98761253D01*
X124492862Y-98761257D01*
X124566430Y-98776447D01*
X124569763Y-98777186D01*
X124642814Y-98794500D01*
X124642816Y-98794500D01*
X124642820Y-98794501D01*
X124649988Y-98795339D01*
X124649981Y-98795398D01*
X124657479Y-98796164D01*
X124657485Y-98796105D01*
X124664674Y-98796734D01*
X124664678Y-98796733D01*
X124664679Y-98796734D01*
X124739665Y-98794552D01*
X124743272Y-98794500D01*
X124894415Y-98794500D01*
X124961454Y-98814185D01*
X125007209Y-98866989D01*
X125012118Y-98879489D01*
X125027421Y-98925670D01*
X125048185Y-98988331D01*
X125048188Y-98988338D01*
X125061872Y-99010523D01*
X125080311Y-99077915D01*
X125059387Y-99144579D01*
X125044014Y-99163299D01*
X125019790Y-99187523D01*
X125019790Y-100162523D01*
X125769789Y-100162523D01*
X125769789Y-99887551D01*
X125769788Y-99887536D01*
X125759295Y-99784825D01*
X125704148Y-99618403D01*
X125704141Y-99618389D01*
X125698100Y-99608594D01*
X125679660Y-99541202D01*
X125700583Y-99474539D01*
X125754226Y-99429770D01*
X125803635Y-99419499D01*
X126308269Y-99419499D01*
X126375308Y-99439184D01*
X126395950Y-99455818D01*
X126473328Y-99533196D01*
X126506813Y-99594519D01*
X126501829Y-99664211D01*
X126459957Y-99720144D01*
X126450745Y-99726415D01*
X126389344Y-99764287D01*
X126265289Y-99888342D01*
X126173187Y-100037663D01*
X126173185Y-100037668D01*
X126169243Y-100049565D01*
X126118001Y-100204203D01*
X126118001Y-100204204D01*
X126118000Y-100204204D01*
X126107500Y-100306983D01*
X126107500Y-101057001D01*
X126107501Y-101057019D01*
X126118000Y-101159796D01*
X126118001Y-101159799D01*
X126173185Y-101326331D01*
X126173187Y-101326336D01*
X126191594Y-101356179D01*
X126265288Y-101475656D01*
X126389344Y-101599712D01*
X126538666Y-101691814D01*
X126705203Y-101746999D01*
X126807991Y-101757500D01*
X128208008Y-101757499D01*
X128310797Y-101746999D01*
X128477334Y-101691814D01*
X128626656Y-101599712D01*
X128750712Y-101475656D01*
X128842814Y-101326334D01*
X128897999Y-101159797D01*
X128908500Y-101057009D01*
X128908499Y-100306992D01*
X128897999Y-100204203D01*
X128842814Y-100037666D01*
X128750712Y-99888344D01*
X128626656Y-99764288D01*
X128520157Y-99698599D01*
X128477336Y-99672187D01*
X128477331Y-99672185D01*
X128448801Y-99662731D01*
X128347262Y-99629084D01*
X128289818Y-99589312D01*
X128262995Y-99524796D01*
X128262739Y-99522190D01*
X128261733Y-99510695D01*
X128275498Y-99442194D01*
X128324112Y-99392010D01*
X128392140Y-99376075D01*
X128424259Y-99382176D01*
X128505203Y-99408999D01*
X128607991Y-99419500D01*
X129333008Y-99419499D01*
X129333016Y-99419498D01*
X129333019Y-99419498D01*
X129396884Y-99412974D01*
X129435797Y-99408999D01*
X129602334Y-99353814D01*
X129751656Y-99261712D01*
X129875712Y-99137656D01*
X129967814Y-98988334D01*
X130022999Y-98821797D01*
X130033500Y-98719009D01*
X130033499Y-98168858D01*
X130053183Y-98101821D01*
X130105987Y-98056066D01*
X130175146Y-98046122D01*
X130238702Y-98075147D01*
X130245180Y-98081179D01*
X131826735Y-99662734D01*
X131839369Y-99677525D01*
X131847612Y-99688871D01*
X131847613Y-99688872D01*
X131898015Y-99734254D01*
X131902707Y-99738706D01*
X131917120Y-99753119D01*
X131932941Y-99765931D01*
X131937876Y-99770146D01*
X131988281Y-99815531D01*
X131988282Y-99815531D01*
X131988284Y-99815533D01*
X131988286Y-99815534D01*
X132000418Y-99822538D01*
X132016455Y-99833560D01*
X132027349Y-99842382D01*
X132027351Y-99842383D01*
X132087787Y-99873176D01*
X132093475Y-99876265D01*
X132152207Y-99910174D01*
X132152214Y-99910178D01*
X132152216Y-99910179D01*
X132165546Y-99914510D01*
X132183519Y-99921954D01*
X132196012Y-99928320D01*
X132196016Y-99928321D01*
X132196018Y-99928322D01*
X132199599Y-99929697D01*
X132201370Y-99931049D01*
X132201803Y-99931270D01*
X132201762Y-99931349D01*
X132255131Y-99972100D01*
X132278923Y-100037794D01*
X132263421Y-100105922D01*
X132238901Y-100134714D01*
X132239763Y-100135576D01*
X132110684Y-100264654D01*
X132018643Y-100413875D01*
X132018641Y-100413880D01*
X131963494Y-100580302D01*
X131963493Y-100580309D01*
X131953000Y-100683013D01*
X131953000Y-100833000D01*
X133048440Y-100833000D01*
X133009722Y-100875059D01*
X132959449Y-100989670D01*
X132949114Y-101114395D01*
X132979837Y-101235719D01*
X133043394Y-101333000D01*
X131953001Y-101333000D01*
X131953001Y-101482986D01*
X131963494Y-101585697D01*
X132018641Y-101752119D01*
X132018643Y-101752124D01*
X132110684Y-101901345D01*
X132234654Y-102025315D01*
X132383875Y-102117356D01*
X132383880Y-102117358D01*
X132550302Y-102172505D01*
X132550309Y-102172506D01*
X132653019Y-102182999D01*
X133077999Y-102182999D01*
X133078000Y-102182998D01*
X133078000Y-101363617D01*
X133147052Y-101417363D01*
X133265424Y-101458000D01*
X133359073Y-101458000D01*
X133451446Y-101442586D01*
X133561514Y-101383019D01*
X133578000Y-101365110D01*
X133578000Y-102182999D01*
X133778500Y-102182999D01*
X133845539Y-102202684D01*
X133891294Y-102255488D01*
X133902500Y-102306999D01*
X133902500Y-104947638D01*
X133882815Y-105014677D01*
X133866181Y-105035319D01*
X131363263Y-107538236D01*
X131348474Y-107550869D01*
X131337126Y-107559114D01*
X131291751Y-107609508D01*
X131287288Y-107614211D01*
X131272891Y-107628609D01*
X131272875Y-107628627D01*
X131260058Y-107644452D01*
X131255852Y-107649376D01*
X131210469Y-107699781D01*
X131210466Y-107699785D01*
X131203458Y-107711923D01*
X131192444Y-107727948D01*
X131183626Y-107738837D01*
X131183616Y-107738853D01*
X131152819Y-107799294D01*
X131149722Y-107804997D01*
X131115821Y-107863713D01*
X131111487Y-107877053D01*
X131104045Y-107895020D01*
X131097680Y-107907512D01*
X131080126Y-107973018D01*
X131078284Y-107979234D01*
X131057326Y-108043742D01*
X131057325Y-108043745D01*
X131055860Y-108057686D01*
X131052315Y-108076812D01*
X131048686Y-108090352D01*
X131045136Y-108158091D01*
X131044628Y-108164552D01*
X131042500Y-108184811D01*
X131042500Y-108205174D01*
X131042330Y-108211663D01*
X131038781Y-108279387D01*
X131040973Y-108293225D01*
X131042500Y-108312626D01*
X131042500Y-111764241D01*
X131022815Y-111831280D01*
X131006181Y-111851922D01*
X130904505Y-111953597D01*
X130774575Y-112139158D01*
X130719998Y-112182783D01*
X130650500Y-112189977D01*
X130588145Y-112158454D01*
X130571425Y-112139158D01*
X130441494Y-111953597D01*
X130274402Y-111786506D01*
X130274395Y-111786501D01*
X130080834Y-111650967D01*
X130080830Y-111650965D01*
X129973002Y-111600684D01*
X129866663Y-111551097D01*
X129866659Y-111551096D01*
X129866655Y-111551094D01*
X129638413Y-111489938D01*
X129638403Y-111489936D01*
X129403001Y-111469341D01*
X129402999Y-111469341D01*
X129167596Y-111489936D01*
X129167586Y-111489938D01*
X128939344Y-111551094D01*
X128939335Y-111551098D01*
X128725171Y-111650964D01*
X128725169Y-111650965D01*
X128531597Y-111786505D01*
X128364505Y-111953597D01*
X128234575Y-112139158D01*
X128179998Y-112182783D01*
X128110500Y-112189977D01*
X128048145Y-112158454D01*
X128031425Y-112139158D01*
X127901494Y-111953597D01*
X127734402Y-111786506D01*
X127734395Y-111786501D01*
X127540834Y-111650967D01*
X127540830Y-111650965D01*
X127433002Y-111600684D01*
X127326663Y-111551097D01*
X127326659Y-111551096D01*
X127326655Y-111551094D01*
X127098413Y-111489938D01*
X127098403Y-111489936D01*
X126863001Y-111469341D01*
X126862999Y-111469341D01*
X126627596Y-111489936D01*
X126627586Y-111489938D01*
X126399344Y-111551094D01*
X126399335Y-111551098D01*
X126185171Y-111650964D01*
X126185169Y-111650965D01*
X125991597Y-111786505D01*
X125824505Y-111953597D01*
X125688965Y-112147169D01*
X125688964Y-112147171D01*
X125589098Y-112361335D01*
X125589094Y-112361344D01*
X125527938Y-112589586D01*
X125527936Y-112589596D01*
X125507341Y-112824999D01*
X125507341Y-112825000D01*
X125527936Y-113060403D01*
X125527938Y-113060413D01*
X125589094Y-113288655D01*
X125589096Y-113288659D01*
X125589097Y-113288663D01*
X125630278Y-113376976D01*
X125688965Y-113502830D01*
X125688967Y-113502834D01*
X125772439Y-113622043D01*
X125824504Y-113696400D01*
X125824506Y-113696402D01*
X125946818Y-113818714D01*
X125980303Y-113880037D01*
X125975319Y-113949729D01*
X125933447Y-114005662D01*
X125902471Y-114022577D01*
X125770912Y-114071646D01*
X125770906Y-114071649D01*
X125655812Y-114157809D01*
X125655809Y-114157812D01*
X125569649Y-114272906D01*
X125569645Y-114272913D01*
X125519403Y-114407620D01*
X125519401Y-114407627D01*
X125513000Y-114467155D01*
X125513000Y-115115000D01*
X126429314Y-115115000D01*
X126403507Y-115155156D01*
X126363000Y-115293111D01*
X126363000Y-115436889D01*
X126403507Y-115574844D01*
X126429314Y-115615000D01*
X125513000Y-115615000D01*
X125513000Y-116262844D01*
X125519401Y-116322372D01*
X125519403Y-116322379D01*
X125569645Y-116457086D01*
X125569649Y-116457093D01*
X125655809Y-116572187D01*
X125655812Y-116572190D01*
X125770906Y-116658350D01*
X125770913Y-116658354D01*
X125905620Y-116708596D01*
X125905627Y-116708598D01*
X125965155Y-116714999D01*
X125965172Y-116715000D01*
X126613000Y-116715000D01*
X126613000Y-115800501D01*
X126720685Y-115849680D01*
X126827237Y-115865000D01*
X126898763Y-115865000D01*
X127005315Y-115849680D01*
X127113000Y-115800501D01*
X127113000Y-116715000D01*
X127760828Y-116715000D01*
X127760844Y-116714999D01*
X127820372Y-116708598D01*
X127820379Y-116708596D01*
X127955086Y-116658354D01*
X127955093Y-116658350D01*
X128070187Y-116572190D01*
X128070190Y-116572187D01*
X128156350Y-116457093D01*
X128156354Y-116457086D01*
X128205422Y-116325529D01*
X128247293Y-116269595D01*
X128312757Y-116245178D01*
X128381030Y-116260030D01*
X128409285Y-116281181D01*
X128531599Y-116403495D01*
X128608135Y-116457086D01*
X128725165Y-116539032D01*
X128725167Y-116539033D01*
X128725170Y-116539035D01*
X128939337Y-116638903D01*
X128939343Y-116638904D01*
X128939344Y-116638905D01*
X128994285Y-116653626D01*
X129167592Y-116700063D01*
X129338319Y-116715000D01*
X129402999Y-116720659D01*
X129403000Y-116720659D01*
X129403001Y-116720659D01*
X129442234Y-116717226D01*
X129638408Y-116700063D01*
X129866663Y-116638903D01*
X130080830Y-116539035D01*
X130274401Y-116403495D01*
X130441495Y-116236401D01*
X130571425Y-116050842D01*
X130626002Y-116007217D01*
X130695500Y-116000023D01*
X130757855Y-116031546D01*
X130774575Y-116050842D01*
X130904501Y-116236396D01*
X130904506Y-116236402D01*
X131006181Y-116338077D01*
X131039666Y-116399400D01*
X131042500Y-116425758D01*
X131042500Y-116787373D01*
X131040972Y-116806772D01*
X131038781Y-116820612D01*
X131041661Y-116875570D01*
X131042330Y-116888335D01*
X131042500Y-116894824D01*
X131042500Y-116915188D01*
X131044628Y-116935448D01*
X131045136Y-116941909D01*
X131048686Y-117009643D01*
X131048688Y-117009653D01*
X131052315Y-117023189D01*
X131055860Y-117042314D01*
X131057325Y-117056249D01*
X131057326Y-117056256D01*
X131057328Y-117056262D01*
X131078282Y-117120755D01*
X131080125Y-117126976D01*
X131097679Y-117192486D01*
X131097684Y-117192498D01*
X131104043Y-117204978D01*
X131111488Y-117222949D01*
X131115820Y-117236282D01*
X131149726Y-117295009D01*
X131152822Y-117300712D01*
X131183616Y-117361147D01*
X131183620Y-117361153D01*
X131192438Y-117372043D01*
X131203454Y-117388070D01*
X131210465Y-117400213D01*
X131210470Y-117400220D01*
X131255855Y-117450627D01*
X131260063Y-117455554D01*
X131272883Y-117471383D01*
X131287275Y-117485775D01*
X131291743Y-117490483D01*
X131337128Y-117540887D01*
X131348468Y-117549126D01*
X131363265Y-117561764D01*
X132456236Y-118654736D01*
X132468871Y-118669529D01*
X132477110Y-118680869D01*
X132477115Y-118680875D01*
X132527504Y-118726244D01*
X132532197Y-118730697D01*
X132546620Y-118745120D01*
X132562456Y-118757943D01*
X132567375Y-118762145D01*
X132592708Y-118784954D01*
X132617784Y-118807533D01*
X132629920Y-118814540D01*
X132645952Y-118825557D01*
X132656851Y-118834383D01*
X132717287Y-118865176D01*
X132722975Y-118868265D01*
X132781707Y-118902174D01*
X132781712Y-118902177D01*
X132781713Y-118902177D01*
X132781716Y-118902179D01*
X132795050Y-118906511D01*
X132813022Y-118913956D01*
X132825512Y-118920320D01*
X132825514Y-118920320D01*
X132825515Y-118920321D01*
X132847956Y-118926333D01*
X132891028Y-118937874D01*
X132897227Y-118939710D01*
X132961744Y-118960674D01*
X132975688Y-118962139D01*
X132994814Y-118965685D01*
X133004441Y-118968264D01*
X133008355Y-118969313D01*
X133076098Y-118972862D01*
X133082552Y-118973371D01*
X133091379Y-118974298D01*
X133102808Y-118975500D01*
X133123175Y-118975500D01*
X133129664Y-118975670D01*
X133197388Y-118979219D01*
X133211228Y-118977027D01*
X133230627Y-118975500D01*
X162394373Y-118975500D01*
X162413772Y-118977027D01*
X162427612Y-118979219D01*
X162495337Y-118975670D01*
X162501826Y-118975500D01*
X162522191Y-118975500D01*
X162522192Y-118975500D01*
X162533393Y-118974322D01*
X162542448Y-118973371D01*
X162548906Y-118972862D01*
X162616646Y-118969313D01*
X162630187Y-118965683D01*
X162649313Y-118962138D01*
X162663256Y-118960674D01*
X162727786Y-118939706D01*
X162733951Y-118937880D01*
X162799488Y-118920320D01*
X162811976Y-118913956D01*
X162829950Y-118906510D01*
X162843284Y-118902179D01*
X162902051Y-118868248D01*
X162907693Y-118865185D01*
X162968149Y-118834383D01*
X162979031Y-118825569D01*
X162995083Y-118814537D01*
X163007216Y-118807533D01*
X163057654Y-118762117D01*
X163062540Y-118757945D01*
X163078380Y-118745119D01*
X163092801Y-118730696D01*
X163097472Y-118726264D01*
X163147888Y-118680871D01*
X163156130Y-118669525D01*
X163168762Y-118654736D01*
X164843737Y-116979760D01*
X164858525Y-116967130D01*
X164869871Y-116958888D01*
X164915264Y-116908472D01*
X164919696Y-116903801D01*
X164934119Y-116889380D01*
X164946945Y-116873540D01*
X164951117Y-116868654D01*
X164996533Y-116818216D01*
X165003538Y-116806080D01*
X165014570Y-116790031D01*
X165016723Y-116787373D01*
X165023383Y-116779149D01*
X165054185Y-116718693D01*
X165057248Y-116713051D01*
X165091179Y-116654284D01*
X165095510Y-116640950D01*
X165102956Y-116622976D01*
X165109320Y-116610488D01*
X165126880Y-116544951D01*
X165128706Y-116538786D01*
X165149674Y-116474256D01*
X165151138Y-116460313D01*
X165154683Y-116441187D01*
X165158313Y-116427646D01*
X165161862Y-116359906D01*
X165162371Y-116353448D01*
X165163322Y-116344393D01*
X165164500Y-116333192D01*
X165164500Y-116312824D01*
X165164670Y-116306335D01*
X165166595Y-116269595D01*
X165168219Y-116238612D01*
X165166027Y-116224772D01*
X165164500Y-116205373D01*
X165164500Y-114355626D01*
X165166027Y-114336225D01*
X165168219Y-114322388D01*
X165164670Y-114254663D01*
X165164500Y-114248174D01*
X165164500Y-114227809D01*
X165164499Y-114227800D01*
X165162371Y-114207552D01*
X165161862Y-114201098D01*
X165158313Y-114133355D01*
X165154685Y-114119814D01*
X165151139Y-114100688D01*
X165149674Y-114086744D01*
X165128710Y-114022227D01*
X165126871Y-114016015D01*
X165126465Y-114014501D01*
X165109320Y-113950512D01*
X165102956Y-113938022D01*
X165095511Y-113920050D01*
X165091179Y-113906716D01*
X165068602Y-113867612D01*
X165057265Y-113847975D01*
X165054178Y-113842292D01*
X165023383Y-113781851D01*
X165014557Y-113770952D01*
X165003540Y-113754920D01*
X164996533Y-113742784D01*
X164951145Y-113692375D01*
X164946943Y-113687456D01*
X164934120Y-113671620D01*
X164919697Y-113657197D01*
X164915244Y-113652504D01*
X164869875Y-113602115D01*
X164869869Y-113602110D01*
X164858529Y-113593871D01*
X164843736Y-113581236D01*
X164203935Y-112941435D01*
X164170450Y-112880112D01*
X164168088Y-112842949D01*
X164169659Y-112825000D01*
X164149063Y-112589592D01*
X164087903Y-112361337D01*
X163988035Y-112147171D01*
X163982731Y-112139595D01*
X163852494Y-111953597D01*
X163750819Y-111851922D01*
X163717334Y-111790599D01*
X163714500Y-111764241D01*
X163714500Y-102106005D01*
X165114556Y-102106005D01*
X165134310Y-102420004D01*
X165134311Y-102420011D01*
X165151602Y-102510654D01*
X165183334Y-102677000D01*
X165193270Y-102729083D01*
X165290497Y-103028316D01*
X165290499Y-103028321D01*
X165424461Y-103313003D01*
X165424464Y-103313009D01*
X165593051Y-103578661D01*
X165593054Y-103578665D01*
X165793606Y-103821090D01*
X165793608Y-103821092D01*
X165793610Y-103821094D01*
X166018579Y-104032354D01*
X166022968Y-104036476D01*
X166022978Y-104036484D01*
X166277504Y-104221408D01*
X166277509Y-104221410D01*
X166277516Y-104221416D01*
X166553234Y-104372994D01*
X166553239Y-104372996D01*
X166553241Y-104372997D01*
X166553242Y-104372998D01*
X166845771Y-104488818D01*
X166845774Y-104488819D01*
X167072371Y-104546999D01*
X167150527Y-104567066D01*
X167216010Y-104575338D01*
X167462670Y-104606499D01*
X167462679Y-104606499D01*
X167462682Y-104606500D01*
X167462684Y-104606500D01*
X167777316Y-104606500D01*
X167777318Y-104606500D01*
X167777321Y-104606499D01*
X167777329Y-104606499D01*
X167965439Y-104582735D01*
X168089473Y-104567066D01*
X168394225Y-104488819D01*
X168394228Y-104488818D01*
X168686757Y-104372998D01*
X168686758Y-104372997D01*
X168686756Y-104372997D01*
X168686766Y-104372994D01*
X168962484Y-104221416D01*
X169217030Y-104036478D01*
X169446390Y-103821094D01*
X169646947Y-103578663D01*
X169815537Y-103313007D01*
X169949503Y-103028315D01*
X170046731Y-102729079D01*
X170105688Y-102420015D01*
X170105689Y-102420004D01*
X170125444Y-102106005D01*
X170125444Y-102105994D01*
X170105689Y-101791995D01*
X170105688Y-101791988D01*
X170105688Y-101791985D01*
X170046731Y-101482921D01*
X169949503Y-101183685D01*
X169815537Y-100898993D01*
X169720895Y-100749860D01*
X169646948Y-100633338D01*
X169646945Y-100633334D01*
X169446393Y-100390909D01*
X169446391Y-100390907D01*
X169363245Y-100312827D01*
X169217030Y-100175522D01*
X169217027Y-100175520D01*
X169217021Y-100175515D01*
X168962495Y-99990591D01*
X168962488Y-99990586D01*
X168962484Y-99990584D01*
X168686766Y-99839006D01*
X168686763Y-99839004D01*
X168686758Y-99839002D01*
X168686757Y-99839001D01*
X168394228Y-99723181D01*
X168394225Y-99723180D01*
X168089476Y-99644934D01*
X168089463Y-99644932D01*
X167777329Y-99605500D01*
X167777318Y-99605500D01*
X167462682Y-99605500D01*
X167462670Y-99605500D01*
X167150536Y-99644932D01*
X167150523Y-99644934D01*
X166845774Y-99723180D01*
X166845771Y-99723181D01*
X166553242Y-99839001D01*
X166553241Y-99839002D01*
X166277516Y-99990584D01*
X166277504Y-99990591D01*
X166022978Y-100175515D01*
X166022968Y-100175523D01*
X165793608Y-100390907D01*
X165793606Y-100390909D01*
X165593054Y-100633334D01*
X165593051Y-100633338D01*
X165424464Y-100898990D01*
X165424461Y-100898996D01*
X165290499Y-101183678D01*
X165290497Y-101183683D01*
X165193270Y-101482916D01*
X165134311Y-101791988D01*
X165134310Y-101791995D01*
X165114556Y-102105994D01*
X165114556Y-102106005D01*
X163714500Y-102106005D01*
X163714500Y-96719626D01*
X163716027Y-96700225D01*
X163716988Y-96694158D01*
X163718219Y-96686388D01*
X163714670Y-96618663D01*
X163714500Y-96612174D01*
X163714500Y-96591809D01*
X163714499Y-96591800D01*
X163712371Y-96571552D01*
X163711862Y-96565095D01*
X163708313Y-96497354D01*
X163704684Y-96483812D01*
X163701138Y-96464684D01*
X163699674Y-96450744D01*
X163678715Y-96386241D01*
X163676876Y-96380028D01*
X163665072Y-96335978D01*
X163659320Y-96314512D01*
X163652956Y-96302022D01*
X163645511Y-96284050D01*
X163641179Y-96270716D01*
X163632819Y-96256236D01*
X163607265Y-96211975D01*
X163604178Y-96206292D01*
X163573383Y-96145851D01*
X163573382Y-96145849D01*
X163564560Y-96134955D01*
X163553538Y-96118918D01*
X163546532Y-96106783D01*
X163546531Y-96106781D01*
X163501146Y-96056376D01*
X163496931Y-96051441D01*
X163486569Y-96038646D01*
X163484119Y-96035620D01*
X163469706Y-96021207D01*
X163465254Y-96016515D01*
X163419872Y-95966113D01*
X163412876Y-95961030D01*
X163408525Y-95957869D01*
X163393734Y-95945235D01*
X162188504Y-94740005D01*
X165114556Y-94740005D01*
X165134310Y-95054004D01*
X165134311Y-95054011D01*
X165150994Y-95141466D01*
X165192456Y-95358819D01*
X165193270Y-95363083D01*
X165290497Y-95662316D01*
X165290499Y-95662321D01*
X165424461Y-95947003D01*
X165424464Y-95947009D01*
X165593051Y-96212661D01*
X165593054Y-96212665D01*
X165793606Y-96455090D01*
X165793608Y-96455092D01*
X165793610Y-96455094D01*
X165976305Y-96626656D01*
X166022968Y-96670476D01*
X166022978Y-96670484D01*
X166277504Y-96855408D01*
X166277509Y-96855410D01*
X166277516Y-96855416D01*
X166553234Y-97006994D01*
X166553239Y-97006996D01*
X166553241Y-97006997D01*
X166553242Y-97006998D01*
X166845771Y-97122818D01*
X166845774Y-97122819D01*
X167150523Y-97201065D01*
X167150527Y-97201066D01*
X167216010Y-97209338D01*
X167462670Y-97240499D01*
X167462679Y-97240499D01*
X167462682Y-97240500D01*
X167462684Y-97240500D01*
X167777316Y-97240500D01*
X167777318Y-97240500D01*
X167777321Y-97240499D01*
X167777329Y-97240499D01*
X167968526Y-97216345D01*
X168089473Y-97201066D01*
X168394225Y-97122819D01*
X168394228Y-97122818D01*
X168686757Y-97006998D01*
X168686758Y-97006997D01*
X168686756Y-97006997D01*
X168686766Y-97006994D01*
X168962484Y-96855416D01*
X169217030Y-96670478D01*
X169446390Y-96455094D01*
X169646947Y-96212663D01*
X169815537Y-95947007D01*
X169949503Y-95662315D01*
X170046731Y-95363079D01*
X170105688Y-95054015D01*
X170113763Y-94925670D01*
X170125444Y-94740005D01*
X170125444Y-94739994D01*
X170105689Y-94425995D01*
X170105688Y-94425988D01*
X170105688Y-94425985D01*
X170046731Y-94116921D01*
X169949503Y-93817685D01*
X169935131Y-93787144D01*
X169854280Y-93615327D01*
X169815537Y-93532993D01*
X169762981Y-93450177D01*
X169646948Y-93267338D01*
X169646945Y-93267334D01*
X169446393Y-93024909D01*
X169446391Y-93024907D01*
X169217031Y-92809523D01*
X169217021Y-92809515D01*
X168962495Y-92624591D01*
X168962488Y-92624586D01*
X168962484Y-92624584D01*
X168686766Y-92473006D01*
X168686763Y-92473004D01*
X168686758Y-92473002D01*
X168686757Y-92473001D01*
X168394228Y-92357181D01*
X168394225Y-92357180D01*
X168089476Y-92278934D01*
X168089463Y-92278932D01*
X167777329Y-92239500D01*
X167777318Y-92239500D01*
X167462682Y-92239500D01*
X167462670Y-92239500D01*
X167150536Y-92278932D01*
X167150523Y-92278934D01*
X166845774Y-92357180D01*
X166845771Y-92357181D01*
X166553242Y-92473001D01*
X166553241Y-92473002D01*
X166277516Y-92624584D01*
X166277504Y-92624591D01*
X166022978Y-92809515D01*
X166022968Y-92809523D01*
X165793608Y-93024907D01*
X165793606Y-93024909D01*
X165593054Y-93267334D01*
X165593051Y-93267338D01*
X165424464Y-93532990D01*
X165424461Y-93532996D01*
X165290499Y-93817678D01*
X165290497Y-93817683D01*
X165193270Y-94116916D01*
X165134311Y-94425988D01*
X165134310Y-94425995D01*
X165114556Y-94739994D01*
X165114556Y-94740005D01*
X162188504Y-94740005D01*
X161643764Y-94195265D01*
X161631126Y-94180468D01*
X161622887Y-94169128D01*
X161572483Y-94123743D01*
X161567775Y-94119275D01*
X161553383Y-94104883D01*
X161537554Y-94092063D01*
X161532627Y-94087855D01*
X161482220Y-94042470D01*
X161482213Y-94042465D01*
X161470070Y-94035454D01*
X161454043Y-94024438D01*
X161443153Y-94015620D01*
X161443147Y-94015616D01*
X161382712Y-93984822D01*
X161377009Y-93981726D01*
X161318282Y-93947820D01*
X161304949Y-93943488D01*
X161286978Y-93936043D01*
X161274498Y-93929684D01*
X161274486Y-93929679D01*
X161208976Y-93912125D01*
X161202755Y-93910282D01*
X161138262Y-93889328D01*
X161138256Y-93889326D01*
X161138251Y-93889325D01*
X161138249Y-93889325D01*
X161124314Y-93887860D01*
X161105189Y-93884315D01*
X161091653Y-93880688D01*
X161091643Y-93880686D01*
X161023909Y-93877136D01*
X161017448Y-93876628D01*
X161008228Y-93875659D01*
X160997192Y-93874500D01*
X160997188Y-93874500D01*
X160976826Y-93874500D01*
X160970337Y-93874330D01*
X160902610Y-93870780D01*
X160888772Y-93872973D01*
X160869373Y-93874500D01*
X159030627Y-93874500D01*
X159011228Y-93872973D01*
X158997388Y-93870781D01*
X158929664Y-93874330D01*
X158923175Y-93874500D01*
X158902808Y-93874500D01*
X158891715Y-93875665D01*
X158882552Y-93876628D01*
X158876091Y-93877136D01*
X158808358Y-93880686D01*
X158808353Y-93880687D01*
X158794803Y-93884317D01*
X158775691Y-93887859D01*
X158761749Y-93889325D01*
X158761736Y-93889327D01*
X158697242Y-93910283D01*
X158691033Y-93912122D01*
X158646976Y-93923928D01*
X158625515Y-93929679D01*
X158625514Y-93929679D01*
X158625512Y-93929680D01*
X158613024Y-93936043D01*
X158613020Y-93936045D01*
X158595053Y-93943487D01*
X158581714Y-93947821D01*
X158522996Y-93981722D01*
X158517295Y-93984817D01*
X158456850Y-94015617D01*
X158445951Y-94024442D01*
X158429931Y-94035452D01*
X158417787Y-94042464D01*
X158417783Y-94042467D01*
X158367395Y-94087836D01*
X158362466Y-94092046D01*
X158346621Y-94104878D01*
X158332203Y-94119296D01*
X158327497Y-94123761D01*
X158277113Y-94169127D01*
X158277105Y-94169136D01*
X158268872Y-94180468D01*
X158256238Y-94195260D01*
X156305320Y-96146181D01*
X156243997Y-96179666D01*
X156217639Y-96182500D01*
X149583433Y-96182500D01*
X149516394Y-96162815D01*
X149470639Y-96110011D01*
X149460695Y-96040853D01*
X149489720Y-95977297D01*
X149506781Y-95961030D01*
X149550503Y-95926645D01*
X149605886Y-95883092D01*
X149743519Y-95724256D01*
X149762944Y-95690612D01*
X149848601Y-95542249D01*
X149848600Y-95542249D01*
X149848604Y-95542244D01*
X149917344Y-95343633D01*
X149947254Y-95135602D01*
X149937254Y-94925670D01*
X149887704Y-94721424D01*
X149887701Y-94721417D01*
X149800401Y-94530256D01*
X149800398Y-94530251D01*
X149800397Y-94530250D01*
X149800396Y-94530247D01*
X149678486Y-94359048D01*
X149678484Y-94359046D01*
X149678479Y-94359040D01*
X149526379Y-94214014D01*
X149349574Y-94100388D01*
X149328779Y-94092063D01*
X149204902Y-94042470D01*
X149154455Y-94022274D01*
X148948086Y-93982500D01*
X148948085Y-93982500D01*
X148240575Y-93982500D01*
X148083782Y-93997472D01*
X148083778Y-93997473D01*
X147882127Y-94056683D01*
X147695313Y-94152991D01*
X147530116Y-94282905D01*
X147530112Y-94282909D01*
X147392478Y-94441746D01*
X147287398Y-94623750D01*
X147218656Y-94822365D01*
X147218656Y-94822367D01*
X147203804Y-94925670D01*
X147188746Y-95030401D01*
X147193336Y-95126761D01*
X147176863Y-95194661D01*
X147157157Y-95220342D01*
X146513263Y-95864236D01*
X146498474Y-95876869D01*
X146487126Y-95885114D01*
X146441751Y-95935508D01*
X146437288Y-95940211D01*
X146422891Y-95954609D01*
X146422875Y-95954627D01*
X146410058Y-95970452D01*
X146405852Y-95975376D01*
X146360469Y-96025781D01*
X146360466Y-96025785D01*
X146353458Y-96037923D01*
X146342444Y-96053948D01*
X146333626Y-96064837D01*
X146333616Y-96064853D01*
X146302819Y-96125294D01*
X146299722Y-96130997D01*
X146265821Y-96189713D01*
X146261487Y-96203053D01*
X146254045Y-96221020D01*
X146247680Y-96233512D01*
X146230126Y-96299018D01*
X146228284Y-96305234D01*
X146207326Y-96369742D01*
X146207325Y-96369745D01*
X146205860Y-96383686D01*
X146202315Y-96402812D01*
X146198686Y-96416352D01*
X146195136Y-96484091D01*
X146194628Y-96490552D01*
X146192500Y-96510811D01*
X146192500Y-96531174D01*
X146192330Y-96537663D01*
X146188781Y-96605387D01*
X146190973Y-96619225D01*
X146192500Y-96638626D01*
X146192500Y-113037373D01*
X146190973Y-113056772D01*
X146188781Y-113070611D01*
X146192330Y-113138335D01*
X146192500Y-113144824D01*
X146192500Y-113165188D01*
X146194628Y-113185448D01*
X146195136Y-113191909D01*
X146198686Y-113259643D01*
X146198688Y-113259653D01*
X146202315Y-113273189D01*
X146205860Y-113292314D01*
X146207325Y-113306249D01*
X146207326Y-113306256D01*
X146210113Y-113314835D01*
X146228282Y-113370755D01*
X146230125Y-113376976D01*
X146247679Y-113442486D01*
X146247684Y-113442498D01*
X146254043Y-113454978D01*
X146261488Y-113472949D01*
X146265821Y-113486284D01*
X146275228Y-113502578D01*
X146299723Y-113545003D01*
X146302820Y-113550707D01*
X146333616Y-113611147D01*
X146333620Y-113611153D01*
X146342438Y-113622043D01*
X146353454Y-113638070D01*
X146360465Y-113650213D01*
X146360470Y-113650220D01*
X146405855Y-113700627D01*
X146410063Y-113705554D01*
X146422883Y-113721383D01*
X146437275Y-113735775D01*
X146441743Y-113740483D01*
X146487128Y-113790887D01*
X146498468Y-113799126D01*
X146513265Y-113811764D01*
X149664320Y-116962819D01*
X149697805Y-117024142D01*
X149692821Y-117093834D01*
X149650949Y-117149767D01*
X149585485Y-117174184D01*
X149576639Y-117174500D01*
X133574362Y-117174500D01*
X133507323Y-117154815D01*
X133486681Y-117138181D01*
X132879819Y-116531319D01*
X132846334Y-116469996D01*
X132843500Y-116443638D01*
X132843500Y-116425758D01*
X132863185Y-116358719D01*
X132879819Y-116338077D01*
X132911561Y-116306335D01*
X132981495Y-116236401D01*
X133111425Y-116050842D01*
X133166002Y-116007217D01*
X133235500Y-116000023D01*
X133297855Y-116031546D01*
X133314575Y-116050842D01*
X133444500Y-116236395D01*
X133444505Y-116236401D01*
X133611599Y-116403495D01*
X133688135Y-116457086D01*
X133805165Y-116539032D01*
X133805167Y-116539033D01*
X133805170Y-116539035D01*
X134019337Y-116638903D01*
X134019343Y-116638904D01*
X134019344Y-116638905D01*
X134074285Y-116653626D01*
X134247592Y-116700063D01*
X134418319Y-116715000D01*
X134482999Y-116720659D01*
X134483000Y-116720659D01*
X134483001Y-116720659D01*
X134522234Y-116717226D01*
X134718408Y-116700063D01*
X134946663Y-116638903D01*
X135160830Y-116539035D01*
X135354401Y-116403495D01*
X135521495Y-116236401D01*
X135651425Y-116050842D01*
X135706002Y-116007217D01*
X135775500Y-116000023D01*
X135837855Y-116031546D01*
X135854575Y-116050842D01*
X135984500Y-116236395D01*
X135984505Y-116236401D01*
X136151599Y-116403495D01*
X136228135Y-116457086D01*
X136345165Y-116539032D01*
X136345167Y-116539033D01*
X136345170Y-116539035D01*
X136559337Y-116638903D01*
X136559343Y-116638904D01*
X136559344Y-116638905D01*
X136614285Y-116653626D01*
X136787592Y-116700063D01*
X136958319Y-116715000D01*
X137022999Y-116720659D01*
X137023000Y-116720659D01*
X137023001Y-116720659D01*
X137062234Y-116717226D01*
X137258408Y-116700063D01*
X137486663Y-116638903D01*
X137700830Y-116539035D01*
X137894401Y-116403495D01*
X138061495Y-116236401D01*
X138197035Y-116042830D01*
X138296903Y-115828663D01*
X138358063Y-115600408D01*
X138378659Y-115365000D01*
X138358063Y-115129592D01*
X138305064Y-114931793D01*
X138296905Y-114901344D01*
X138296904Y-114901343D01*
X138296903Y-114901337D01*
X138197035Y-114687171D01*
X138191425Y-114679158D01*
X138061494Y-114493597D01*
X137894402Y-114326506D01*
X137894396Y-114326501D01*
X137708842Y-114196575D01*
X137665217Y-114141998D01*
X137658023Y-114072500D01*
X137689546Y-114010145D01*
X137708842Y-113993425D01*
X137771246Y-113949729D01*
X137894401Y-113863495D01*
X138061495Y-113696401D01*
X138197035Y-113502830D01*
X138296903Y-113288663D01*
X138358063Y-113060408D01*
X138378659Y-112825000D01*
X138358063Y-112589592D01*
X138296903Y-112361337D01*
X138197035Y-112147171D01*
X138191731Y-112139595D01*
X138061494Y-111953597D01*
X137894402Y-111786506D01*
X137894395Y-111786501D01*
X137700834Y-111650967D01*
X137700830Y-111650965D01*
X137593002Y-111600684D01*
X137486663Y-111551097D01*
X137486659Y-111551096D01*
X137486655Y-111551094D01*
X137258413Y-111489938D01*
X137258403Y-111489936D01*
X137023001Y-111469341D01*
X137022999Y-111469341D01*
X136787596Y-111489936D01*
X136787586Y-111489938D01*
X136559344Y-111551094D01*
X136559335Y-111551098D01*
X136345171Y-111650964D01*
X136345169Y-111650965D01*
X136151597Y-111786505D01*
X135984505Y-111953597D01*
X135854575Y-112139158D01*
X135799998Y-112182783D01*
X135730500Y-112189977D01*
X135668145Y-112158454D01*
X135651425Y-112139158D01*
X135521494Y-111953597D01*
X135354402Y-111786506D01*
X135354395Y-111786501D01*
X135160834Y-111650967D01*
X135160830Y-111650965D01*
X135053002Y-111600684D01*
X134946663Y-111551097D01*
X134946659Y-111551096D01*
X134946655Y-111551094D01*
X134718413Y-111489938D01*
X134718403Y-111489936D01*
X134483001Y-111469341D01*
X134482999Y-111469341D01*
X134247596Y-111489936D01*
X134247586Y-111489938D01*
X134019344Y-111551094D01*
X134019335Y-111551098D01*
X133805171Y-111650964D01*
X133805169Y-111650965D01*
X133611597Y-111786505D01*
X133444505Y-111953597D01*
X133314575Y-112139158D01*
X133259998Y-112182783D01*
X133190500Y-112189977D01*
X133128145Y-112158454D01*
X133111425Y-112139158D01*
X132981494Y-111953597D01*
X132879819Y-111851922D01*
X132846334Y-111790599D01*
X132843500Y-111764241D01*
X132843500Y-108656361D01*
X132863185Y-108589322D01*
X132879819Y-108568680D01*
X134082988Y-107365511D01*
X135382742Y-106065756D01*
X135397525Y-106053130D01*
X135408871Y-106044888D01*
X135454256Y-105994481D01*
X135458687Y-105989811D01*
X135473120Y-105975380D01*
X135485958Y-105959523D01*
X135490128Y-105954641D01*
X135535533Y-105904216D01*
X135542537Y-105892083D01*
X135553563Y-105876041D01*
X135562382Y-105865150D01*
X135567086Y-105855918D01*
X135593185Y-105804693D01*
X135596248Y-105799051D01*
X135630179Y-105740284D01*
X135634509Y-105726956D01*
X135641960Y-105708969D01*
X135648319Y-105696489D01*
X135648320Y-105696488D01*
X135665872Y-105630980D01*
X135667704Y-105624792D01*
X135688674Y-105560256D01*
X135690139Y-105546317D01*
X135693687Y-105527175D01*
X135694366Y-105524642D01*
X135697313Y-105513645D01*
X135700862Y-105445903D01*
X135701371Y-105439448D01*
X135703499Y-105419199D01*
X135703500Y-105419191D01*
X135703500Y-105398824D01*
X135703670Y-105392335D01*
X135703896Y-105388016D01*
X135707219Y-105324612D01*
X135705027Y-105310772D01*
X135703500Y-105291373D01*
X135703500Y-105225002D01*
X136319540Y-105225002D01*
X136321005Y-105238945D01*
X136321514Y-105258389D01*
X136320780Y-105272386D01*
X136331388Y-105339367D01*
X136332234Y-105345798D01*
X136339325Y-105413248D01*
X136339326Y-105413255D01*
X136343661Y-105426599D01*
X136348199Y-105445504D01*
X136350392Y-105459348D01*
X136350394Y-105459354D01*
X136374690Y-105522648D01*
X136376857Y-105528766D01*
X136397820Y-105593283D01*
X136404827Y-105605418D01*
X136413206Y-105622985D01*
X136418227Y-105636067D01*
X136455164Y-105692946D01*
X136458549Y-105698470D01*
X136492467Y-105757216D01*
X136492469Y-105757219D01*
X136492470Y-105757220D01*
X136501848Y-105767635D01*
X136513697Y-105783077D01*
X136521326Y-105794826D01*
X136569274Y-105842773D01*
X136573744Y-105847483D01*
X136619129Y-105897888D01*
X136630468Y-105906126D01*
X136645265Y-105918764D01*
X136655176Y-105928675D01*
X136712054Y-105965612D01*
X136717388Y-105969277D01*
X136772270Y-106009151D01*
X136784418Y-106014559D01*
X136785073Y-106014851D01*
X136802174Y-106024137D01*
X136813925Y-106031768D01*
X136813930Y-106031771D01*
X136826860Y-106036734D01*
X136877243Y-106056074D01*
X136883234Y-106058555D01*
X136945197Y-106086144D01*
X136958918Y-106089060D01*
X136977564Y-106094583D01*
X136990650Y-106099607D01*
X137057653Y-106110218D01*
X137063988Y-106111393D01*
X137130354Y-106125500D01*
X137144373Y-106125500D01*
X137163772Y-106127027D01*
X137177612Y-106129219D01*
X137245337Y-106125670D01*
X137251826Y-106125500D01*
X137319643Y-106125500D01*
X137319646Y-106125500D01*
X137333359Y-106122584D01*
X137352647Y-106120046D01*
X137366646Y-106119313D01*
X137432200Y-106101747D01*
X137438442Y-106100249D01*
X137504803Y-106086144D01*
X137517604Y-106080443D01*
X137535954Y-106073946D01*
X137535964Y-106073943D01*
X137549488Y-106070320D01*
X137609948Y-106039512D01*
X137615752Y-106036744D01*
X137677730Y-106009151D01*
X137689059Y-106000918D01*
X137705656Y-105990747D01*
X137718149Y-105984383D01*
X137770866Y-105941691D01*
X137775983Y-105937764D01*
X137830871Y-105897888D01*
X137876273Y-105847462D01*
X137880706Y-105842791D01*
X138879742Y-104843756D01*
X138894525Y-104831130D01*
X138905871Y-104822888D01*
X138951256Y-104772481D01*
X138955687Y-104767811D01*
X138970120Y-104753380D01*
X138982958Y-104737523D01*
X138987128Y-104732641D01*
X139032533Y-104682216D01*
X139039537Y-104670083D01*
X139050563Y-104654041D01*
X139059383Y-104643149D01*
X139062286Y-104637452D01*
X139090177Y-104582709D01*
X139093264Y-104577025D01*
X139127179Y-104518284D01*
X139131510Y-104504951D01*
X139138955Y-104486976D01*
X139145320Y-104474487D01*
X139162874Y-104408973D01*
X139164715Y-104402759D01*
X139174385Y-104372998D01*
X139185674Y-104338256D01*
X139187139Y-104324317D01*
X139190687Y-104305175D01*
X139194313Y-104291645D01*
X139197862Y-104223903D01*
X139198371Y-104217448D01*
X139200499Y-104197199D01*
X139200500Y-104197191D01*
X139200500Y-104176824D01*
X139200670Y-104170335D01*
X139201182Y-104160567D01*
X139204219Y-104102612D01*
X139202027Y-104088772D01*
X139200500Y-104069373D01*
X139200500Y-100874360D01*
X139220185Y-100807321D01*
X139236815Y-100786683D01*
X139361320Y-100662178D01*
X139422642Y-100628694D01*
X139492334Y-100633678D01*
X139548267Y-100675550D01*
X139572684Y-100741014D01*
X139573000Y-100749860D01*
X139573000Y-100833000D01*
X140668440Y-100833000D01*
X140629722Y-100875059D01*
X140579449Y-100989670D01*
X140569114Y-101114395D01*
X140599837Y-101235719D01*
X140663394Y-101333000D01*
X139573001Y-101333000D01*
X139573001Y-101482986D01*
X139583494Y-101585697D01*
X139638641Y-101752119D01*
X139638643Y-101752124D01*
X139730684Y-101901345D01*
X139854654Y-102025315D01*
X140003875Y-102117356D01*
X140003880Y-102117358D01*
X140170302Y-102172505D01*
X140170309Y-102172506D01*
X140273019Y-102182999D01*
X140697999Y-102182999D01*
X140698000Y-102182998D01*
X140698000Y-101363617D01*
X140767052Y-101417363D01*
X140885424Y-101458000D01*
X140979073Y-101458000D01*
X141071446Y-101442586D01*
X141181514Y-101383019D01*
X141198000Y-101365110D01*
X141198000Y-102182999D01*
X141622972Y-102182999D01*
X141622986Y-102182998D01*
X141725697Y-102172505D01*
X141892119Y-102117358D01*
X141892124Y-102117356D01*
X142041345Y-102025315D01*
X142165315Y-101901345D01*
X142257356Y-101752124D01*
X142257358Y-101752119D01*
X142312505Y-101585697D01*
X142312506Y-101585690D01*
X142322999Y-101482986D01*
X142323000Y-101482973D01*
X142323000Y-101333000D01*
X141227560Y-101333000D01*
X141266278Y-101290941D01*
X141316551Y-101176330D01*
X141326886Y-101051605D01*
X141296163Y-100930281D01*
X141232606Y-100833000D01*
X142322999Y-100833000D01*
X142322999Y-100683028D01*
X142322998Y-100683013D01*
X142312505Y-100580302D01*
X142257358Y-100413880D01*
X142257356Y-100413875D01*
X142165315Y-100264654D01*
X142041344Y-100140683D01*
X142041340Y-100140680D01*
X141977841Y-100101513D01*
X141931116Y-100049565D01*
X141919895Y-99980603D01*
X141947738Y-99916521D01*
X141966289Y-99898503D01*
X141979208Y-99888344D01*
X141985886Y-99883092D01*
X142123519Y-99724256D01*
X142228604Y-99542244D01*
X142297344Y-99343633D01*
X142327254Y-99135602D01*
X142317254Y-98925670D01*
X142267704Y-98721424D01*
X142266860Y-98719575D01*
X142180401Y-98530256D01*
X142180398Y-98530251D01*
X142180397Y-98530250D01*
X142180396Y-98530247D01*
X142058486Y-98359048D01*
X142058484Y-98359046D01*
X142058479Y-98359040D01*
X141906379Y-98214014D01*
X141865057Y-98187458D01*
X141819302Y-98134654D01*
X141809359Y-98065496D01*
X141838384Y-98001940D01*
X141855445Y-97985673D01*
X141942101Y-97917525D01*
X141985886Y-97883092D01*
X142123519Y-97724256D01*
X142126404Y-97719260D01*
X142213368Y-97568634D01*
X142228604Y-97542244D01*
X142297344Y-97343633D01*
X142327254Y-97135602D01*
X142317254Y-96925670D01*
X142267704Y-96721424D01*
X142259224Y-96702855D01*
X142180401Y-96530256D01*
X142180398Y-96530251D01*
X142180397Y-96530250D01*
X142180396Y-96530247D01*
X142058486Y-96359048D01*
X142058484Y-96359046D01*
X142058479Y-96359040D01*
X141906379Y-96214014D01*
X141865057Y-96187458D01*
X141819302Y-96134654D01*
X141809359Y-96065496D01*
X141838384Y-96001940D01*
X141855445Y-95985673D01*
X141906865Y-95945235D01*
X141985886Y-95883092D01*
X142123519Y-95724256D01*
X142142944Y-95690612D01*
X142228601Y-95542249D01*
X142228600Y-95542249D01*
X142228604Y-95542244D01*
X142297344Y-95343633D01*
X142327254Y-95135602D01*
X142317254Y-94925670D01*
X142267704Y-94721424D01*
X142267701Y-94721417D01*
X142180401Y-94530256D01*
X142180398Y-94530251D01*
X142180397Y-94530250D01*
X142180396Y-94530247D01*
X142058486Y-94359048D01*
X142058484Y-94359046D01*
X142058479Y-94359040D01*
X141906379Y-94214014D01*
X141729574Y-94100388D01*
X141708779Y-94092063D01*
X141584902Y-94042470D01*
X141534455Y-94022274D01*
X141328086Y-93982500D01*
X141328085Y-93982500D01*
X140620575Y-93982500D01*
X140463782Y-93997472D01*
X140463778Y-93997473D01*
X140262127Y-94056683D01*
X140075313Y-94152991D01*
X139910116Y-94282905D01*
X139910112Y-94282909D01*
X139772478Y-94441746D01*
X139667398Y-94623750D01*
X139598656Y-94822365D01*
X139598656Y-94822367D01*
X139583804Y-94925670D01*
X139568746Y-95030401D01*
X139578745Y-95240327D01*
X139628296Y-95444578D01*
X139628298Y-95444582D01*
X139715598Y-95635743D01*
X139715601Y-95635748D01*
X139715602Y-95635750D01*
X139715604Y-95635753D01*
X139778627Y-95724256D01*
X139837515Y-95806953D01*
X139837520Y-95806959D01*
X139989619Y-95951984D01*
X139989621Y-95951985D01*
X139989622Y-95951986D01*
X140029006Y-95977297D01*
X140030941Y-95978540D01*
X140076696Y-96031344D01*
X140086640Y-96100503D01*
X140057615Y-96164059D01*
X140040555Y-96180326D01*
X139910112Y-96282909D01*
X139772478Y-96441746D01*
X139667398Y-96623750D01*
X139598656Y-96822365D01*
X139598656Y-96822367D01*
X139570117Y-97020868D01*
X139568746Y-97030401D01*
X139578745Y-97240327D01*
X139628296Y-97444578D01*
X139628298Y-97444582D01*
X139715598Y-97635743D01*
X139715601Y-97635748D01*
X139715602Y-97635750D01*
X139715604Y-97635753D01*
X139832746Y-97800256D01*
X139837515Y-97806953D01*
X139837520Y-97806959D01*
X139989620Y-97951985D01*
X139993043Y-97954185D01*
X140038798Y-98006989D01*
X140048741Y-98076148D01*
X140019715Y-98139703D01*
X139960937Y-98177477D01*
X139926003Y-98182500D01*
X139747627Y-98182500D01*
X139728228Y-98180973D01*
X139714388Y-98178781D01*
X139646664Y-98182330D01*
X139640175Y-98182500D01*
X139619808Y-98182500D01*
X139608715Y-98183665D01*
X139599552Y-98184628D01*
X139593091Y-98185136D01*
X139525358Y-98188686D01*
X139525353Y-98188687D01*
X139511803Y-98192317D01*
X139492691Y-98195859D01*
X139478749Y-98197325D01*
X139478736Y-98197327D01*
X139414242Y-98218283D01*
X139408033Y-98220122D01*
X139363976Y-98231928D01*
X139342515Y-98237679D01*
X139342514Y-98237679D01*
X139342512Y-98237680D01*
X139330020Y-98244045D01*
X139312053Y-98251487D01*
X139298713Y-98255821D01*
X139239997Y-98289722D01*
X139234294Y-98292819D01*
X139173853Y-98323616D01*
X139173837Y-98323626D01*
X139162948Y-98332444D01*
X139146923Y-98343458D01*
X139134785Y-98350466D01*
X139134781Y-98350469D01*
X139084376Y-98395852D01*
X139079452Y-98400058D01*
X139063627Y-98412875D01*
X139063609Y-98412891D01*
X139049211Y-98427288D01*
X139044508Y-98431751D01*
X138994114Y-98477126D01*
X138985869Y-98488474D01*
X138973236Y-98503263D01*
X137720263Y-99756236D01*
X137705474Y-99768869D01*
X137694126Y-99777114D01*
X137648751Y-99827508D01*
X137644288Y-99832211D01*
X137629891Y-99846609D01*
X137629875Y-99846627D01*
X137617058Y-99862452D01*
X137612852Y-99867376D01*
X137567469Y-99917781D01*
X137567466Y-99917785D01*
X137560458Y-99929923D01*
X137549444Y-99945948D01*
X137540626Y-99956837D01*
X137540616Y-99956853D01*
X137509819Y-100017294D01*
X137506722Y-100022997D01*
X137472821Y-100081713D01*
X137468487Y-100095053D01*
X137461045Y-100113020D01*
X137454680Y-100125512D01*
X137437126Y-100191018D01*
X137435284Y-100197234D01*
X137414326Y-100261742D01*
X137414325Y-100261745D01*
X137412860Y-100275686D01*
X137409315Y-100294812D01*
X137405686Y-100308352D01*
X137402136Y-100376091D01*
X137401628Y-100382552D01*
X137399500Y-100402811D01*
X137399500Y-100423174D01*
X137399330Y-100429663D01*
X137396555Y-100482627D01*
X137395781Y-100497388D01*
X137396729Y-100503376D01*
X137397973Y-100511225D01*
X137399500Y-100530626D01*
X137399500Y-103725638D01*
X137379815Y-103792677D01*
X137363181Y-103813319D01*
X136645263Y-104531236D01*
X136630474Y-104543869D01*
X136619126Y-104552114D01*
X136573751Y-104602508D01*
X136569288Y-104607211D01*
X136554891Y-104621609D01*
X136554875Y-104621627D01*
X136542058Y-104637452D01*
X136537852Y-104642376D01*
X136492469Y-104692781D01*
X136492466Y-104692785D01*
X136485458Y-104704923D01*
X136474444Y-104720948D01*
X136465626Y-104731837D01*
X136465616Y-104731853D01*
X136434819Y-104792294D01*
X136431722Y-104797997D01*
X136397821Y-104856713D01*
X136393487Y-104870053D01*
X136386045Y-104888020D01*
X136379680Y-104900512D01*
X136362126Y-104966018D01*
X136360284Y-104972234D01*
X136339326Y-105036742D01*
X136339325Y-105036745D01*
X136337860Y-105050686D01*
X136334315Y-105069812D01*
X136330686Y-105083352D01*
X136327137Y-105151083D01*
X136326628Y-105157553D01*
X136319540Y-105225000D01*
X136319540Y-105225002D01*
X135703500Y-105225002D01*
X135703500Y-96638626D01*
X135705027Y-96619225D01*
X135705630Y-96615419D01*
X135707219Y-96605388D01*
X135703670Y-96537663D01*
X135703500Y-96531174D01*
X135703500Y-96510809D01*
X135703499Y-96510800D01*
X135701371Y-96490552D01*
X135700862Y-96484091D01*
X135697313Y-96416354D01*
X135693684Y-96402812D01*
X135690138Y-96383684D01*
X135688674Y-96369744D01*
X135667715Y-96305241D01*
X135665876Y-96299028D01*
X135648321Y-96233517D01*
X135648320Y-96233512D01*
X135641955Y-96221020D01*
X135634511Y-96203050D01*
X135630179Y-96189716D01*
X135630174Y-96189707D01*
X135596265Y-96130975D01*
X135593178Y-96125292D01*
X135562383Y-96064851D01*
X135562382Y-96064849D01*
X135553560Y-96053955D01*
X135542538Y-96037918D01*
X135535533Y-96025784D01*
X135535531Y-96025782D01*
X135535531Y-96025781D01*
X135490146Y-95975376D01*
X135485931Y-95970441D01*
X135473119Y-95954620D01*
X135470483Y-95951984D01*
X135458706Y-95940207D01*
X135454254Y-95935515D01*
X135408872Y-95885113D01*
X135406093Y-95883094D01*
X135397525Y-95876869D01*
X135382734Y-95864235D01*
X134743626Y-95225127D01*
X134710141Y-95163804D01*
X134708276Y-95141466D01*
X134707535Y-95141502D01*
X134707254Y-95135598D01*
X134697254Y-94925670D01*
X134647704Y-94721424D01*
X134647701Y-94721417D01*
X134560401Y-94530256D01*
X134560398Y-94530251D01*
X134560397Y-94530250D01*
X134560396Y-94530247D01*
X134438486Y-94359048D01*
X134438484Y-94359046D01*
X134438479Y-94359040D01*
X134286379Y-94214014D01*
X134109574Y-94100388D01*
X134088779Y-94092063D01*
X133964902Y-94042470D01*
X133914455Y-94022274D01*
X133708086Y-93982500D01*
X133708085Y-93982500D01*
X133000575Y-93982500D01*
X132843782Y-93997472D01*
X132843778Y-93997473D01*
X132642127Y-94056683D01*
X132455313Y-94152991D01*
X132290116Y-94282905D01*
X132290112Y-94282909D01*
X132152478Y-94441746D01*
X132047398Y-94623750D01*
X131978656Y-94822365D01*
X131978656Y-94822367D01*
X131963804Y-94925670D01*
X131948746Y-95030401D01*
X131958745Y-95240327D01*
X132008296Y-95444578D01*
X132008298Y-95444582D01*
X132095598Y-95635743D01*
X132095601Y-95635748D01*
X132095602Y-95635750D01*
X132095604Y-95635753D01*
X132158627Y-95724256D01*
X132217515Y-95806953D01*
X132217520Y-95806959D01*
X132369619Y-95951984D01*
X132369621Y-95951985D01*
X132369622Y-95951986D01*
X132409006Y-95977297D01*
X132410941Y-95978540D01*
X132456696Y-96031344D01*
X132466640Y-96100503D01*
X132437615Y-96164059D01*
X132420555Y-96180326D01*
X132290112Y-96282909D01*
X132152478Y-96441746D01*
X132047398Y-96623750D01*
X131978656Y-96822365D01*
X131978656Y-96822367D01*
X131957935Y-96966484D01*
X131928910Y-97030039D01*
X131870131Y-97067813D01*
X131800262Y-97067813D01*
X131747516Y-97036517D01*
X130069818Y-95358819D01*
X130036333Y-95297496D01*
X130033499Y-95271138D01*
X130033499Y-94857998D01*
X130033498Y-94857981D01*
X130022999Y-94755203D01*
X130022998Y-94755200D01*
X130011803Y-94721417D01*
X129967814Y-94588666D01*
X129875712Y-94439344D01*
X129751656Y-94315288D01*
X129655244Y-94255821D01*
X129602336Y-94223187D01*
X129602331Y-94223185D01*
X129600862Y-94222698D01*
X129435797Y-94168001D01*
X129435795Y-94168000D01*
X129333016Y-94157500D01*
X129333009Y-94157500D01*
X129332500Y-94157500D01*
X129332394Y-94157468D01*
X129329861Y-94157340D01*
X129329869Y-94157179D01*
X129329868Y-94157179D01*
X129329870Y-94157155D01*
X129329891Y-94156734D01*
X129265461Y-94137815D01*
X129219706Y-94085011D01*
X129208500Y-94033500D01*
X129208500Y-93930828D01*
X129213424Y-93896233D01*
X129255597Y-93751073D01*
X129255598Y-93751067D01*
X129256236Y-93742958D01*
X129258500Y-93714194D01*
X129258500Y-92407806D01*
X129255598Y-92370931D01*
X129252194Y-92359215D01*
X129221836Y-92254724D01*
X129209744Y-92213102D01*
X129126081Y-92071635D01*
X129126079Y-92071633D01*
X129126076Y-92071629D01*
X129009870Y-91955423D01*
X129009862Y-91955417D01*
X128868396Y-91871755D01*
X128868393Y-91871754D01*
X128710573Y-91825902D01*
X128710567Y-91825901D01*
X128673701Y-91823000D01*
X128673694Y-91823000D01*
X128432500Y-91823000D01*
X128365461Y-91803315D01*
X128319706Y-91750511D01*
X128308500Y-91699000D01*
X128308500Y-91316330D01*
X170805710Y-91316330D01*
X170835925Y-91539387D01*
X170835926Y-91539390D01*
X170905483Y-91753465D01*
X171012146Y-91951678D01*
X171012148Y-91951681D01*
X171152489Y-92127663D01*
X171152491Y-92127664D01*
X171152492Y-92127666D01*
X171322004Y-92275765D01*
X171515236Y-92391215D01*
X171707511Y-92463377D01*
X171725976Y-92470307D01*
X171947450Y-92510500D01*
X171947453Y-92510500D01*
X172116148Y-92510500D01*
X172116155Y-92510500D01*
X172284188Y-92495377D01*
X172345340Y-92478500D01*
X172501160Y-92435496D01*
X172501162Y-92435495D01*
X172501170Y-92435493D01*
X172703973Y-92337829D01*
X172886078Y-92205522D01*
X173041632Y-92042825D01*
X173165635Y-91854968D01*
X173178059Y-91825902D01*
X173254100Y-91647995D01*
X173254099Y-91647995D01*
X173254103Y-91647988D01*
X173304191Y-91428537D01*
X173314290Y-91203670D01*
X173284075Y-90980613D01*
X173214517Y-90766536D01*
X173205080Y-90749000D01*
X173142676Y-90633033D01*
X173107852Y-90568319D01*
X173035167Y-90477175D01*
X172967510Y-90392336D01*
X172967508Y-90392334D01*
X172797996Y-90244235D01*
X172604764Y-90128785D01*
X172475904Y-90080423D01*
X172394023Y-90049692D01*
X172172550Y-90009500D01*
X172172547Y-90009500D01*
X172003845Y-90009500D01*
X171965399Y-90012960D01*
X171835813Y-90024622D01*
X171835807Y-90024623D01*
X171618839Y-90084503D01*
X171618826Y-90084508D01*
X171416033Y-90182167D01*
X171416025Y-90182171D01*
X171233927Y-90314473D01*
X171233925Y-90314474D01*
X171078366Y-90477176D01*
X170954363Y-90665033D01*
X170865899Y-90872004D01*
X170865895Y-90872017D01*
X170815810Y-91091457D01*
X170815808Y-91091468D01*
X170807147Y-91284325D01*
X170805710Y-91316330D01*
X128308500Y-91316330D01*
X128308500Y-90532813D01*
X128308499Y-90532798D01*
X128305598Y-90495932D01*
X128305597Y-90495926D01*
X128259745Y-90338106D01*
X128259744Y-90338103D01*
X128259744Y-90338102D01*
X128176081Y-90196635D01*
X128176079Y-90196633D01*
X128176076Y-90196629D01*
X128059870Y-90080423D01*
X128059862Y-90080417D01*
X127918396Y-89996755D01*
X127918393Y-89996754D01*
X127760573Y-89950902D01*
X127760567Y-89950901D01*
X127723701Y-89948000D01*
X127723694Y-89948000D01*
X127382730Y-89948000D01*
X127315691Y-89928315D01*
X127295049Y-89911681D01*
X126896229Y-89512861D01*
X126884449Y-89499230D01*
X126870110Y-89479970D01*
X126832151Y-89448119D01*
X126824186Y-89440818D01*
X126820280Y-89436911D01*
X126795943Y-89417668D01*
X126793147Y-89415390D01*
X126735714Y-89367198D01*
X126729680Y-89363229D01*
X126729712Y-89363180D01*
X126723353Y-89359128D01*
X126723322Y-89359179D01*
X126717180Y-89355391D01*
X126717178Y-89355390D01*
X126717177Y-89355389D01*
X126649188Y-89323684D01*
X126645947Y-89322115D01*
X126615030Y-89306588D01*
X126578933Y-89288460D01*
X126578931Y-89288459D01*
X126578930Y-89288459D01*
X126572145Y-89285989D01*
X126572165Y-89285933D01*
X126565049Y-89283459D01*
X126565031Y-89283515D01*
X126558174Y-89281243D01*
X126484710Y-89266073D01*
X126481193Y-89265293D01*
X126408218Y-89247999D01*
X126401047Y-89247161D01*
X126401053Y-89247101D01*
X126393555Y-89246335D01*
X126393550Y-89246395D01*
X126386360Y-89245765D01*
X126311370Y-89247948D01*
X126307763Y-89248000D01*
X116948205Y-89248000D01*
X116930235Y-89246691D01*
X116906472Y-89243210D01*
X116860142Y-89247264D01*
X116857132Y-89247528D01*
X116846326Y-89248000D01*
X116840782Y-89248000D01*
X116809988Y-89251599D01*
X116806405Y-89251965D01*
X116731700Y-89258501D01*
X116724634Y-89259961D01*
X116724622Y-89259904D01*
X116717253Y-89261538D01*
X116717267Y-89261595D01*
X116710239Y-89263260D01*
X116639771Y-89288908D01*
X116636367Y-89290091D01*
X116565168Y-89313684D01*
X116558622Y-89316737D01*
X116558597Y-89316685D01*
X116551808Y-89319971D01*
X116551834Y-89320022D01*
X116545386Y-89323260D01*
X116482728Y-89364470D01*
X116479691Y-89366405D01*
X116415844Y-89405788D01*
X116410177Y-89410269D01*
X116410141Y-89410223D01*
X116404298Y-89414984D01*
X116404335Y-89415028D01*
X116398810Y-89419664D01*
X116398804Y-89419669D01*
X116398804Y-89419670D01*
X116375233Y-89444653D01*
X116347348Y-89474209D01*
X116344836Y-89476794D01*
X112544358Y-93277272D01*
X112530729Y-93289051D01*
X112511469Y-93303390D01*
X112479632Y-93341331D01*
X112472346Y-93349284D01*
X112468407Y-93353224D01*
X112449176Y-93377545D01*
X112446902Y-93380337D01*
X112398694Y-93437790D01*
X112394729Y-93443819D01*
X112394682Y-93443788D01*
X112390630Y-93450147D01*
X112390679Y-93450177D01*
X112386889Y-93456321D01*
X112355192Y-93524294D01*
X112353623Y-93527536D01*
X112319957Y-93594572D01*
X112317488Y-93601357D01*
X112317432Y-93601336D01*
X112314960Y-93608450D01*
X112315015Y-93608469D01*
X112312743Y-93615325D01*
X112297573Y-93688788D01*
X112296793Y-93692304D01*
X112279499Y-93765279D01*
X112278661Y-93772454D01*
X112278601Y-93772447D01*
X112277835Y-93779945D01*
X112277895Y-93779951D01*
X112277265Y-93787140D01*
X112279448Y-93862128D01*
X112279500Y-93865735D01*
X112279500Y-96583294D01*
X112278191Y-96601263D01*
X112274710Y-96625025D01*
X112279028Y-96674368D01*
X112279500Y-96685176D01*
X112279500Y-96690711D01*
X112283098Y-96721495D01*
X112283464Y-96725083D01*
X112290000Y-96799791D01*
X112291461Y-96806867D01*
X112291403Y-96806878D01*
X112293034Y-96814237D01*
X112293092Y-96814224D01*
X112294757Y-96821249D01*
X112294758Y-96821254D01*
X112294759Y-96821255D01*
X112317068Y-96882552D01*
X112320400Y-96891705D01*
X112321582Y-96895107D01*
X112345182Y-96966326D01*
X112348236Y-96972874D01*
X112348182Y-96972898D01*
X112351470Y-96979688D01*
X112351521Y-96979663D01*
X112354761Y-96986114D01*
X112395979Y-97048784D01*
X112397889Y-97051782D01*
X112405032Y-97063361D01*
X112437289Y-97115658D01*
X112441766Y-97121319D01*
X112441719Y-97121356D01*
X112446482Y-97127202D01*
X112446528Y-97127164D01*
X112451173Y-97132699D01*
X112505710Y-97184152D01*
X112508298Y-97186666D01*
X112890267Y-97568634D01*
X112902049Y-97582267D01*
X112916390Y-97601530D01*
X112954341Y-97633375D01*
X112962303Y-97640671D01*
X112966223Y-97644590D01*
X112989167Y-97662731D01*
X112990543Y-97663819D01*
X112993298Y-97666063D01*
X113050786Y-97714302D01*
X113050790Y-97714304D01*
X113056824Y-97718273D01*
X113056790Y-97718323D01*
X113063147Y-97722372D01*
X113063179Y-97722321D01*
X113069319Y-97726108D01*
X113069323Y-97726111D01*
X113096359Y-97738718D01*
X113137320Y-97757819D01*
X113140566Y-97759391D01*
X113207562Y-97793038D01*
X113214357Y-97795511D01*
X113214336Y-97795567D01*
X113221455Y-97798042D01*
X113221474Y-97797986D01*
X113228323Y-97800256D01*
X113228326Y-97800256D01*
X113228327Y-97800257D01*
X113301815Y-97815429D01*
X113305307Y-97816204D01*
X113378279Y-97833500D01*
X113378281Y-97833500D01*
X113385452Y-97834339D01*
X113385445Y-97834397D01*
X113392945Y-97835163D01*
X113392951Y-97835104D01*
X113407340Y-97836363D01*
X113407189Y-97838077D01*
X113466025Y-97853505D01*
X113487622Y-97869985D01*
X113573622Y-97951986D01*
X113613705Y-97977746D01*
X113614941Y-97978540D01*
X113660696Y-98031344D01*
X113670640Y-98100503D01*
X113641615Y-98164059D01*
X113624555Y-98180326D01*
X113494112Y-98282909D01*
X113356478Y-98441746D01*
X113251398Y-98623750D01*
X113182656Y-98822364D01*
X113182654Y-98822372D01*
X113178204Y-98853321D01*
X113149177Y-98916875D01*
X113143148Y-98923350D01*
X111674263Y-100392236D01*
X111659474Y-100404869D01*
X111648126Y-100413114D01*
X111602751Y-100463508D01*
X111598288Y-100468211D01*
X111583891Y-100482609D01*
X111583875Y-100482627D01*
X111571058Y-100498452D01*
X111566852Y-100503376D01*
X111521469Y-100553781D01*
X111521466Y-100553785D01*
X111514458Y-100565923D01*
X111503444Y-100581948D01*
X111494626Y-100592837D01*
X111494616Y-100592853D01*
X111463819Y-100653294D01*
X111460722Y-100658997D01*
X111426821Y-100717713D01*
X111422487Y-100731053D01*
X111415045Y-100749020D01*
X111408680Y-100761512D01*
X111391126Y-100827018D01*
X111389284Y-100833234D01*
X111368326Y-100897742D01*
X111368325Y-100897745D01*
X111366860Y-100911686D01*
X111363315Y-100930812D01*
X111359686Y-100944352D01*
X111356136Y-101012091D01*
X111355628Y-101018552D01*
X111353500Y-101038811D01*
X111353500Y-101059174D01*
X111353330Y-101065663D01*
X111349781Y-101133387D01*
X111351973Y-101147225D01*
X111353500Y-101166626D01*
X111353500Y-105623858D01*
X111333815Y-105690897D01*
X111281011Y-105736652D01*
X111272847Y-105740034D01*
X111261669Y-105744204D01*
X111261668Y-105744204D01*
X111261667Y-105744205D01*
X111177894Y-105806918D01*
X111112430Y-105831335D01*
X111044157Y-105816484D01*
X111029272Y-105806918D01*
X110946088Y-105744646D01*
X110946086Y-105744645D01*
X110811379Y-105694403D01*
X110811372Y-105694401D01*
X110751844Y-105688000D01*
X110204000Y-105688000D01*
X110204000Y-108688000D01*
X110751828Y-108688000D01*
X110751844Y-108687999D01*
X110811372Y-108681598D01*
X110811379Y-108681596D01*
X110946086Y-108631354D01*
X110946089Y-108631352D01*
X111029271Y-108569082D01*
X111094735Y-108544664D01*
X111163008Y-108559515D01*
X111177887Y-108569077D01*
X111261669Y-108631796D01*
X111272830Y-108635958D01*
X111328764Y-108677826D01*
X111353184Y-108743289D01*
X111353500Y-108752141D01*
X111353500Y-111863500D01*
X111333815Y-111930539D01*
X111281011Y-111976294D01*
X111229500Y-111987500D01*
X110306129Y-111987500D01*
X110306123Y-111987501D01*
X110246516Y-111993908D01*
X110111671Y-112044202D01*
X110111664Y-112044206D01*
X109996455Y-112130452D01*
X109996452Y-112130455D01*
X109910206Y-112245664D01*
X109910202Y-112245671D01*
X109859908Y-112380517D01*
X109853501Y-112440116D01*
X109853501Y-112440123D01*
X109853500Y-112440135D01*
X109853500Y-114535870D01*
X108274785Y-114535870D01*
X108277687Y-114532811D01*
X108292120Y-114518380D01*
X108304958Y-114502523D01*
X108309128Y-114497641D01*
X108354533Y-114447216D01*
X108361537Y-114435083D01*
X108372563Y-114419041D01*
X108381382Y-114408150D01*
X108381383Y-114408149D01*
X108412185Y-114347693D01*
X108415248Y-114342051D01*
X108449179Y-114283284D01*
X108453509Y-114269956D01*
X108460960Y-114251969D01*
X108467319Y-114239489D01*
X108467320Y-114239488D01*
X108484872Y-114173980D01*
X108486704Y-114167792D01*
X108507674Y-114103256D01*
X108509139Y-114089317D01*
X108512687Y-114070175D01*
X108516313Y-114056645D01*
X108519862Y-113988903D01*
X108520371Y-113982448D01*
X108522499Y-113962199D01*
X108522500Y-113962191D01*
X108522500Y-113941824D01*
X108522670Y-113935335D01*
X108522985Y-113929327D01*
X108526219Y-113867612D01*
X108524027Y-113853772D01*
X108522500Y-113834373D01*
X108522500Y-108478879D01*
X108542185Y-108411840D01*
X108594989Y-108366085D01*
X108664147Y-108356141D01*
X108727703Y-108385166D01*
X108754286Y-108423455D01*
X108756396Y-108422304D01*
X108760649Y-108430093D01*
X108846809Y-108545187D01*
X108846812Y-108545190D01*
X108961906Y-108631350D01*
X108961913Y-108631354D01*
X109096620Y-108681596D01*
X109096627Y-108681598D01*
X109156155Y-108687999D01*
X109156172Y-108688000D01*
X109704000Y-108688000D01*
X109704000Y-105688000D01*
X109156155Y-105688000D01*
X109096627Y-105694401D01*
X109096620Y-105694403D01*
X108961913Y-105744645D01*
X108961906Y-105744649D01*
X108846812Y-105830809D01*
X108846809Y-105830812D01*
X108760649Y-105945906D01*
X108756396Y-105953696D01*
X108753822Y-105952290D01*
X108720803Y-105996393D01*
X108655336Y-106020805D01*
X108587064Y-106005947D01*
X108537663Y-105956538D01*
X108522500Y-105897120D01*
X108522500Y-105727626D01*
X108524027Y-105708225D01*
X108526219Y-105694388D01*
X108522670Y-105626663D01*
X108522500Y-105620174D01*
X108522500Y-105599809D01*
X108522499Y-105599800D01*
X108520371Y-105579552D01*
X108519862Y-105573098D01*
X108516313Y-105505355D01*
X108512685Y-105491814D01*
X108509139Y-105472688D01*
X108507674Y-105458744D01*
X108486707Y-105394217D01*
X108484871Y-105388016D01*
X108467320Y-105322513D01*
X108460953Y-105310018D01*
X108453511Y-105292051D01*
X108449179Y-105278716D01*
X108415272Y-105219987D01*
X108412174Y-105214281D01*
X108381385Y-105153854D01*
X108379141Y-105151083D01*
X108372557Y-105142952D01*
X108361540Y-105126920D01*
X108354533Y-105114784D01*
X108309145Y-105064375D01*
X108304943Y-105059456D01*
X108292120Y-105043620D01*
X108277697Y-105029197D01*
X108273244Y-105024504D01*
X108227875Y-104974115D01*
X108227869Y-104974110D01*
X108216529Y-104965871D01*
X108201736Y-104953236D01*
X105961819Y-102713319D01*
X105928334Y-102651996D01*
X105925500Y-102625638D01*
X105925500Y-102275035D01*
X105945185Y-102207996D01*
X105997989Y-102162241D01*
X106067147Y-102152297D01*
X106088504Y-102157329D01*
X106134302Y-102172505D01*
X106134309Y-102172506D01*
X106237019Y-102182999D01*
X106661999Y-102182999D01*
X106662000Y-102182998D01*
X106662000Y-101363617D01*
X106731052Y-101417363D01*
X106849424Y-101458000D01*
X106943073Y-101458000D01*
X107035446Y-101442586D01*
X107145514Y-101383019D01*
X107162000Y-101365110D01*
X107162000Y-102182999D01*
X107586972Y-102182999D01*
X107586986Y-102182998D01*
X107689697Y-102172505D01*
X107856119Y-102117358D01*
X107856124Y-102117356D01*
X108005345Y-102025315D01*
X108129315Y-101901345D01*
X108221356Y-101752124D01*
X108221358Y-101752119D01*
X108276505Y-101585697D01*
X108276506Y-101585690D01*
X108286999Y-101482986D01*
X108287000Y-101482973D01*
X108287000Y-101333000D01*
X107191560Y-101333000D01*
X107230278Y-101290941D01*
X107280551Y-101176330D01*
X107290886Y-101051605D01*
X107260163Y-100930281D01*
X107196606Y-100833000D01*
X108286999Y-100833000D01*
X108286999Y-100683028D01*
X108286998Y-100683013D01*
X108276505Y-100580302D01*
X108221358Y-100413880D01*
X108221356Y-100413875D01*
X108129315Y-100264654D01*
X108005344Y-100140683D01*
X108005340Y-100140680D01*
X107941841Y-100101513D01*
X107895116Y-100049565D01*
X107883895Y-99980603D01*
X107911738Y-99916521D01*
X107930289Y-99898503D01*
X107943208Y-99888344D01*
X107949886Y-99883092D01*
X108087519Y-99724256D01*
X108192604Y-99542244D01*
X108261344Y-99343633D01*
X108291254Y-99135602D01*
X108281254Y-98925670D01*
X108231704Y-98721424D01*
X108230860Y-98719575D01*
X108144401Y-98530256D01*
X108144398Y-98530251D01*
X108144397Y-98530250D01*
X108144396Y-98530247D01*
X108022486Y-98359048D01*
X108022484Y-98359046D01*
X108022479Y-98359040D01*
X107870379Y-98214014D01*
X107829057Y-98187458D01*
X107783302Y-98134654D01*
X107773359Y-98065496D01*
X107802384Y-98001940D01*
X107819445Y-97985673D01*
X107906101Y-97917525D01*
X107949886Y-97883092D01*
X108087519Y-97724256D01*
X108090404Y-97719260D01*
X108177368Y-97568634D01*
X108192604Y-97542244D01*
X108261344Y-97343633D01*
X108291254Y-97135602D01*
X108281254Y-96925670D01*
X108231704Y-96721424D01*
X108223224Y-96702855D01*
X108144401Y-96530256D01*
X108144398Y-96530251D01*
X108144397Y-96530250D01*
X108144396Y-96530247D01*
X108022486Y-96359048D01*
X108022484Y-96359046D01*
X108022479Y-96359040D01*
X107870379Y-96214014D01*
X107829057Y-96187458D01*
X107783302Y-96134654D01*
X107773359Y-96065496D01*
X107802384Y-96001940D01*
X107819445Y-95985673D01*
X107870865Y-95945235D01*
X107949886Y-95883092D01*
X108087519Y-95724256D01*
X108106944Y-95690612D01*
X108192601Y-95542249D01*
X108192600Y-95542249D01*
X108192604Y-95542244D01*
X108261344Y-95343633D01*
X108291254Y-95135602D01*
X108281254Y-94925670D01*
X108231704Y-94721424D01*
X108231701Y-94721417D01*
X108144401Y-94530256D01*
X108144398Y-94530251D01*
X108144397Y-94530250D01*
X108144396Y-94530247D01*
X108022486Y-94359048D01*
X108022484Y-94359046D01*
X108022479Y-94359040D01*
X107870379Y-94214014D01*
X107693574Y-94100388D01*
X107672779Y-94092063D01*
X107548902Y-94042470D01*
X107498455Y-94022274D01*
X107292086Y-93982500D01*
X107292085Y-93982500D01*
X106584575Y-93982500D01*
X106427782Y-93997472D01*
X106427778Y-93997473D01*
X106226127Y-94056683D01*
X106039315Y-94152990D01*
X106035530Y-94155968D01*
X105970666Y-94181938D01*
X105958875Y-94182500D01*
X105722627Y-94182500D01*
X105703228Y-94180973D01*
X105689388Y-94178781D01*
X105621664Y-94182330D01*
X105615175Y-94182500D01*
X105594808Y-94182500D01*
X105583715Y-94183665D01*
X105574552Y-94184628D01*
X105568091Y-94185136D01*
X105500358Y-94188686D01*
X105500353Y-94188687D01*
X105486803Y-94192317D01*
X105467691Y-94195859D01*
X105453749Y-94197325D01*
X105453736Y-94197327D01*
X105389242Y-94218283D01*
X105383033Y-94220122D01*
X105338976Y-94231928D01*
X105317515Y-94237679D01*
X105317514Y-94237679D01*
X105317512Y-94237680D01*
X105305020Y-94244045D01*
X105287053Y-94251487D01*
X105273714Y-94255821D01*
X105214996Y-94289722D01*
X105209295Y-94292817D01*
X105148850Y-94323617D01*
X105137951Y-94332442D01*
X105121931Y-94343452D01*
X105109787Y-94350464D01*
X105109783Y-94350467D01*
X105059395Y-94395836D01*
X105054466Y-94400046D01*
X105038621Y-94412878D01*
X105024203Y-94427296D01*
X105019497Y-94431761D01*
X104969113Y-94477127D01*
X104969105Y-94477136D01*
X104960872Y-94488468D01*
X104948238Y-94503260D01*
X103195263Y-96256236D01*
X103180474Y-96268869D01*
X103169126Y-96277114D01*
X103123751Y-96327508D01*
X103119288Y-96332211D01*
X103104891Y-96346609D01*
X103104875Y-96346627D01*
X103092058Y-96362452D01*
X103087852Y-96367376D01*
X103042469Y-96417781D01*
X103042466Y-96417785D01*
X103035458Y-96429923D01*
X103024444Y-96445948D01*
X103015626Y-96456837D01*
X103015616Y-96456853D01*
X102984819Y-96517294D01*
X102981722Y-96522997D01*
X102947821Y-96581713D01*
X102943487Y-96595053D01*
X102936045Y-96613018D01*
X102933352Y-96618306D01*
X102929680Y-96625512D01*
X102912126Y-96691018D01*
X102910284Y-96697234D01*
X102889326Y-96761742D01*
X102889325Y-96761745D01*
X102887860Y-96775686D01*
X102884315Y-96794812D01*
X102880686Y-96808352D01*
X102877136Y-96876091D01*
X102876628Y-96882552D01*
X102875285Y-96895342D01*
X102874500Y-96902811D01*
X102874500Y-96923174D01*
X102874330Y-96929663D01*
X102871709Y-96979688D01*
X102870781Y-96997388D01*
X102872302Y-97006994D01*
X102872973Y-97011225D01*
X102874500Y-97030626D01*
X102874500Y-110347373D01*
X102872973Y-110366772D01*
X102872084Y-110372388D01*
X102870781Y-110380612D01*
X102873146Y-110425745D01*
X102874330Y-110448335D01*
X102874500Y-110454824D01*
X102874500Y-110475188D01*
X102876628Y-110495448D01*
X102877136Y-110501909D01*
X102880686Y-110569643D01*
X102880688Y-110569653D01*
X102884315Y-110583189D01*
X102887860Y-110602314D01*
X102888784Y-110611104D01*
X102889326Y-110616256D01*
X102889328Y-110616262D01*
X102910282Y-110680755D01*
X102912125Y-110686976D01*
X102929679Y-110752486D01*
X102929684Y-110752498D01*
X102936043Y-110764978D01*
X102943488Y-110782949D01*
X102947820Y-110796282D01*
X102981726Y-110855009D01*
X102984822Y-110860712D01*
X103015616Y-110921147D01*
X103015620Y-110921153D01*
X103024438Y-110932043D01*
X103035454Y-110948070D01*
X103042465Y-110960213D01*
X103042470Y-110960220D01*
X103087855Y-111010627D01*
X103092063Y-111015554D01*
X103104883Y-111031383D01*
X103119275Y-111045775D01*
X103123743Y-111050483D01*
X103169128Y-111100887D01*
X103180468Y-111109126D01*
X103195265Y-111121764D01*
X103376310Y-111302809D01*
X103409795Y-111364132D01*
X103404811Y-111433824D01*
X103362939Y-111489757D01*
X103320723Y-111510265D01*
X103168341Y-111551095D01*
X103168335Y-111551098D01*
X102954171Y-111650964D01*
X102954169Y-111650965D01*
X102760597Y-111786505D01*
X102593505Y-111953597D01*
X102463575Y-112139158D01*
X102408998Y-112182783D01*
X102339500Y-112189977D01*
X102277145Y-112158454D01*
X102260425Y-112139158D01*
X102130494Y-111953597D01*
X101963402Y-111786506D01*
X101963395Y-111786501D01*
X101769834Y-111650967D01*
X101769830Y-111650965D01*
X101662002Y-111600684D01*
X101555663Y-111551097D01*
X101555659Y-111551096D01*
X101555655Y-111551094D01*
X101327413Y-111489938D01*
X101327403Y-111489936D01*
X101092001Y-111469341D01*
X101091999Y-111469341D01*
X100856596Y-111489936D01*
X100856586Y-111489938D01*
X100628344Y-111551094D01*
X100628335Y-111551098D01*
X100414171Y-111650964D01*
X100414169Y-111650965D01*
X100220597Y-111786505D01*
X100053505Y-111953597D01*
X99917965Y-112147169D01*
X99917964Y-112147171D01*
X99818098Y-112361335D01*
X99818094Y-112361344D01*
X99756938Y-112589586D01*
X99756936Y-112589596D01*
X99736341Y-112824999D01*
X99736341Y-112825000D01*
X89408500Y-112825000D01*
X89408500Y-99030401D01*
X97912746Y-99030401D01*
X97922745Y-99240327D01*
X97972296Y-99444578D01*
X97972298Y-99444582D01*
X98059598Y-99635743D01*
X98059601Y-99635748D01*
X98059602Y-99635750D01*
X98059604Y-99635753D01*
X98181514Y-99806952D01*
X98181515Y-99806953D01*
X98284456Y-99905107D01*
X98319391Y-99965616D01*
X98316066Y-100035406D01*
X98275538Y-100092321D01*
X98263983Y-100100388D01*
X98198659Y-100140680D01*
X98198655Y-100140683D01*
X98074684Y-100264654D01*
X97982643Y-100413875D01*
X97982641Y-100413880D01*
X97927494Y-100580302D01*
X97927493Y-100580309D01*
X97917000Y-100683013D01*
X97917000Y-100833000D01*
X99012440Y-100833000D01*
X98973722Y-100875059D01*
X98923449Y-100989670D01*
X98913114Y-101114395D01*
X98943837Y-101235719D01*
X99007394Y-101333000D01*
X97917001Y-101333000D01*
X97917001Y-101482986D01*
X97927494Y-101585697D01*
X97982641Y-101752119D01*
X97982643Y-101752124D01*
X98074684Y-101901345D01*
X98198654Y-102025315D01*
X98347875Y-102117356D01*
X98347880Y-102117358D01*
X98514302Y-102172505D01*
X98514309Y-102172506D01*
X98617019Y-102182999D01*
X99041999Y-102182999D01*
X99042000Y-102182998D01*
X99042000Y-101363617D01*
X99111052Y-101417363D01*
X99229424Y-101458000D01*
X99323073Y-101458000D01*
X99415446Y-101442586D01*
X99525514Y-101383019D01*
X99542000Y-101365110D01*
X99542000Y-102182999D01*
X99966972Y-102182999D01*
X99966986Y-102182998D01*
X100069697Y-102172505D01*
X100236119Y-102117358D01*
X100236124Y-102117356D01*
X100385345Y-102025315D01*
X100509315Y-101901345D01*
X100601356Y-101752124D01*
X100601358Y-101752119D01*
X100656505Y-101585697D01*
X100656506Y-101585690D01*
X100666999Y-101482986D01*
X100667000Y-101482973D01*
X100667000Y-101333000D01*
X99571560Y-101333000D01*
X99610278Y-101290941D01*
X99660551Y-101176330D01*
X99670886Y-101051605D01*
X99640163Y-100930281D01*
X99576606Y-100833000D01*
X100666999Y-100833000D01*
X100666999Y-100683028D01*
X100666998Y-100683013D01*
X100656505Y-100580302D01*
X100601358Y-100413880D01*
X100601356Y-100413875D01*
X100509315Y-100264654D01*
X100385344Y-100140683D01*
X100385340Y-100140680D01*
X100321841Y-100101513D01*
X100275116Y-100049565D01*
X100263895Y-99980603D01*
X100291738Y-99916521D01*
X100310289Y-99898503D01*
X100323208Y-99888344D01*
X100329886Y-99883092D01*
X100467519Y-99724256D01*
X100572604Y-99542244D01*
X100641344Y-99343633D01*
X100671254Y-99135602D01*
X100661254Y-98925670D01*
X100611704Y-98721424D01*
X100610860Y-98719575D01*
X100524401Y-98530256D01*
X100524398Y-98530251D01*
X100524397Y-98530250D01*
X100524396Y-98530247D01*
X100402486Y-98359048D01*
X100402484Y-98359046D01*
X100402479Y-98359040D01*
X100250379Y-98214014D01*
X100209057Y-98187458D01*
X100163302Y-98134654D01*
X100153359Y-98065496D01*
X100182384Y-98001940D01*
X100199445Y-97985673D01*
X100286101Y-97917525D01*
X100329886Y-97883092D01*
X100467519Y-97724256D01*
X100470404Y-97719260D01*
X100557368Y-97568634D01*
X100572604Y-97542244D01*
X100641344Y-97343633D01*
X100671254Y-97135602D01*
X100661254Y-96925670D01*
X100611704Y-96721424D01*
X100603224Y-96702855D01*
X100524401Y-96530256D01*
X100524398Y-96530251D01*
X100524397Y-96530250D01*
X100524396Y-96530247D01*
X100402486Y-96359048D01*
X100402484Y-96359046D01*
X100402479Y-96359040D01*
X100250379Y-96214014D01*
X100209057Y-96187458D01*
X100163302Y-96134654D01*
X100153359Y-96065496D01*
X100182384Y-96001940D01*
X100199445Y-95985673D01*
X100250865Y-95945235D01*
X100329886Y-95883092D01*
X100467519Y-95724256D01*
X100486944Y-95690612D01*
X100572601Y-95542249D01*
X100572600Y-95542249D01*
X100572604Y-95542244D01*
X100641344Y-95343633D01*
X100671254Y-95135602D01*
X100661254Y-94925670D01*
X100611704Y-94721424D01*
X100611701Y-94721417D01*
X100524401Y-94530256D01*
X100524398Y-94530251D01*
X100524397Y-94530250D01*
X100524396Y-94530247D01*
X100402486Y-94359048D01*
X100402484Y-94359046D01*
X100402479Y-94359040D01*
X100250379Y-94214014D01*
X100073574Y-94100388D01*
X100052779Y-94092063D01*
X99928902Y-94042470D01*
X99878455Y-94022274D01*
X99672086Y-93982500D01*
X99672085Y-93982500D01*
X98964575Y-93982500D01*
X98807782Y-93997472D01*
X98807778Y-93997473D01*
X98606127Y-94056683D01*
X98419313Y-94152991D01*
X98254116Y-94282905D01*
X98254112Y-94282909D01*
X98116478Y-94441746D01*
X98011398Y-94623750D01*
X97942656Y-94822365D01*
X97942656Y-94822367D01*
X97927804Y-94925670D01*
X97912746Y-95030401D01*
X97922745Y-95240327D01*
X97972296Y-95444578D01*
X97972298Y-95444582D01*
X98059598Y-95635743D01*
X98059601Y-95635748D01*
X98059602Y-95635750D01*
X98059604Y-95635753D01*
X98122627Y-95724256D01*
X98181515Y-95806953D01*
X98181520Y-95806959D01*
X98333619Y-95951984D01*
X98333621Y-95951985D01*
X98333622Y-95951986D01*
X98373006Y-95977297D01*
X98374941Y-95978540D01*
X98420696Y-96031344D01*
X98430640Y-96100503D01*
X98401615Y-96164059D01*
X98384555Y-96180326D01*
X98254112Y-96282909D01*
X98116478Y-96441746D01*
X98011398Y-96623750D01*
X97942656Y-96822365D01*
X97942656Y-96822367D01*
X97914117Y-97020868D01*
X97912746Y-97030401D01*
X97922745Y-97240327D01*
X97972296Y-97444578D01*
X97972298Y-97444582D01*
X98059598Y-97635743D01*
X98059601Y-97635748D01*
X98059602Y-97635750D01*
X98059604Y-97635753D01*
X98176746Y-97800256D01*
X98181515Y-97806953D01*
X98181520Y-97806959D01*
X98333619Y-97951984D01*
X98333621Y-97951985D01*
X98333622Y-97951986D01*
X98373705Y-97977746D01*
X98374941Y-97978540D01*
X98420696Y-98031344D01*
X98430640Y-98100503D01*
X98401615Y-98164059D01*
X98384555Y-98180326D01*
X98254112Y-98282909D01*
X98116478Y-98441746D01*
X98011398Y-98623750D01*
X97942656Y-98822365D01*
X97942656Y-98822367D01*
X97918794Y-98988338D01*
X97912746Y-99030401D01*
X89408500Y-99030401D01*
X89408500Y-91284330D01*
X90505710Y-91284330D01*
X90535925Y-91507387D01*
X90535926Y-91507390D01*
X90605483Y-91721465D01*
X90712146Y-91919678D01*
X90712148Y-91919681D01*
X90852489Y-92095663D01*
X90852491Y-92095664D01*
X90852492Y-92095666D01*
X91022004Y-92243765D01*
X91215236Y-92359215D01*
X91418473Y-92435491D01*
X91425976Y-92438307D01*
X91647450Y-92478500D01*
X91647453Y-92478500D01*
X91816148Y-92478500D01*
X91816155Y-92478500D01*
X91984188Y-92463377D01*
X91984192Y-92463376D01*
X92201160Y-92403496D01*
X92201162Y-92403495D01*
X92201170Y-92403493D01*
X92403973Y-92305829D01*
X92586078Y-92173522D01*
X92741632Y-92010825D01*
X92865635Y-91822968D01*
X92954103Y-91615988D01*
X93004191Y-91396537D01*
X93014290Y-91171670D01*
X92984075Y-90948613D01*
X92914517Y-90734536D01*
X92807852Y-90536319D01*
X92693029Y-90392336D01*
X92667510Y-90360336D01*
X92642066Y-90338106D01*
X92497996Y-90212235D01*
X92304764Y-90096785D01*
X92179285Y-90049692D01*
X92094023Y-90017692D01*
X91872550Y-89977500D01*
X91872547Y-89977500D01*
X91703845Y-89977500D01*
X91665399Y-89980960D01*
X91535813Y-89992622D01*
X91535807Y-89992623D01*
X91318839Y-90052503D01*
X91318826Y-90052508D01*
X91116033Y-90150167D01*
X91116025Y-90150171D01*
X90933927Y-90282473D01*
X90933925Y-90282474D01*
X90778366Y-90445176D01*
X90654363Y-90633033D01*
X90565899Y-90840004D01*
X90565895Y-90840017D01*
X90515810Y-91059457D01*
X90515808Y-91059468D01*
X90507173Y-91251744D01*
X90505710Y-91284330D01*
X89408500Y-91284330D01*
X89408500Y-89024500D01*
X89428185Y-88957461D01*
X89480989Y-88911706D01*
X89532500Y-88900500D01*
X174276249Y-88900500D01*
X174343288Y-88920185D01*
G37*
%TD.AperFunction*%
%TD*%
M02*
