M48
; DRILL file {KiCad 7.0.10} date Tuesday, May 05, 2026 at 12:34:14 PM
; FORMAT={-:-/ absolute / metric / decimal}
; #@! TF.CreationDate,2026-05-05T12:34:14+02:00
; #@! TF.GenerationSoftware,Kicad,Pcbnew,7.0.10
; #@! TF.FileFunction,Plated,1,2,PTH
FMAT,2
METRIC
; #@! TA.AperFunction,Plated,PTH,ViaDrill
T1C0.400
; #@! TA.AperFunction,Plated,PTH,ComponentDrill
T2C0.750
; #@! TA.AperFunction,Plated,PTH,ComponentDrill
T3C0.900
; #@! TA.AperFunction,Plated,PTH,ComponentDrill
T4C1.000
; #@! TA.AperFunction,Plated,PTH,ComponentDrill
T5C2.500
%
G90
G05
T1
X117.983Y-92.583
X120.65Y-110.325
X122.301Y-93.599
X123.825Y-91.44
X123.825Y-95.631
X123.904Y-110.578
X123.907Y-109.776
X126.119Y-105.215
X137.225Y-105.225
T2
X99.292Y-95.083
X99.292Y-97.083
X99.292Y-99.083
X99.292Y-101.083
X106.912Y-95.083
X106.912Y-97.083
X106.912Y-99.083
X106.912Y-101.083
X114.532Y-95.083
X114.532Y-97.083
X114.532Y-99.083
X114.532Y-101.083
X133.328Y-95.083
X133.328Y-97.083
X133.328Y-99.083
X133.328Y-101.083
X140.948Y-95.083
X140.948Y-97.083
X140.948Y-99.083
X140.948Y-101.083
X148.568Y-95.083
X148.568Y-97.083
X148.568Y-99.083
X148.568Y-101.083
T3
X160.0Y-96.825
X160.0Y-99.365
T4
X101.092Y-112.825
X101.092Y-115.365
X103.632Y-112.825
X103.632Y-115.365
X106.172Y-112.825
X106.172Y-115.365
X126.863Y-112.825
X126.863Y-115.365
X129.403Y-112.825
X129.403Y-115.365
X131.943Y-112.825
X131.943Y-115.365
X134.483Y-112.825
X134.483Y-115.365
X137.023Y-112.825
X137.023Y-115.365
X157.734Y-112.825
X157.734Y-115.365
X160.274Y-112.825
X160.274Y-115.365
X162.814Y-112.825
X162.814Y-115.365
T5
X167.62Y-94.74
X167.62Y-102.106
M30
