%TF.GenerationSoftware,KiCad,Pcbnew,7.0.10*%
%TF.CreationDate,2026-05-05T12:34:15+02:00*%
%TF.ProjectId,FT I2C Hub,46542049-3243-4204-9875-622e6b696361,rev?*%
%TF.SameCoordinates,Original*%
%TF.FileFunction,Drillmap*%
%TF.FilePolarity,Positive*%
%FSLAX45Y45*%
G04 Gerber Fmt 4.5, Leading zero omitted, Abs format (unit mm)*
G04 Created by KiCad (PCBNEW 7.0.10) date 2026-05-05 12:34:15*
%MOMM*%
%LPD*%
G01*
G04 APERTURE LIST*
%ADD10C,0.100000*%
%ADD11C,0.200000*%
G04 APERTURE END LIST*
D10*
X8940800Y-8890000D02*
X17440800Y-8890000D01*
X17440800Y-12390000D01*
X8940800Y-12390000D01*
X8940800Y-8890000D01*
D11*
X9076000Y-9022800D02*
X9276000Y-9222800D01*
X9276000Y-9022800D02*
X9076000Y-9222800D01*
X9076000Y-12034200D02*
X9276000Y-12234200D01*
X9276000Y-12034200D02*
X9076000Y-12234200D01*
X17106000Y-9026000D02*
X17306000Y-9226000D01*
X17306000Y-9026000D02*
X17106000Y-9226000D01*
X17106000Y-12059000D02*
X17306000Y-12259000D01*
X17306000Y-12059000D02*
X17106000Y-12259000D01*
X9196577Y-12706484D02*
X9196577Y-12506484D01*
X9196577Y-12506484D02*
X9244196Y-12506484D01*
X9244196Y-12506484D02*
X9272767Y-12516008D01*
X9272767Y-12516008D02*
X9291815Y-12535055D01*
X9291815Y-12535055D02*
X9301339Y-12554103D01*
X9301339Y-12554103D02*
X9310863Y-12592198D01*
X9310863Y-12592198D02*
X9310863Y-12620769D01*
X9310863Y-12620769D02*
X9301339Y-12658865D01*
X9301339Y-12658865D02*
X9291815Y-12677912D01*
X9291815Y-12677912D02*
X9272767Y-12696960D01*
X9272767Y-12696960D02*
X9244196Y-12706484D01*
X9244196Y-12706484D02*
X9196577Y-12706484D01*
X9396577Y-12706484D02*
X9396577Y-12573150D01*
X9396577Y-12611246D02*
X9406101Y-12592198D01*
X9406101Y-12592198D02*
X9415624Y-12582674D01*
X9415624Y-12582674D02*
X9434672Y-12573150D01*
X9434672Y-12573150D02*
X9453720Y-12573150D01*
X9520386Y-12706484D02*
X9520386Y-12573150D01*
X9520386Y-12506484D02*
X9510863Y-12516008D01*
X9510863Y-12516008D02*
X9520386Y-12525531D01*
X9520386Y-12525531D02*
X9529910Y-12516008D01*
X9529910Y-12516008D02*
X9520386Y-12506484D01*
X9520386Y-12506484D02*
X9520386Y-12525531D01*
X9644196Y-12706484D02*
X9625148Y-12696960D01*
X9625148Y-12696960D02*
X9615624Y-12677912D01*
X9615624Y-12677912D02*
X9615624Y-12506484D01*
X9748958Y-12706484D02*
X9729910Y-12696960D01*
X9729910Y-12696960D02*
X9720386Y-12677912D01*
X9720386Y-12677912D02*
X9720386Y-12506484D01*
X9977529Y-12706484D02*
X9977529Y-12506484D01*
X9977529Y-12506484D02*
X10044196Y-12649341D01*
X10044196Y-12649341D02*
X10110863Y-12506484D01*
X10110863Y-12506484D02*
X10110863Y-12706484D01*
X10291815Y-12706484D02*
X10291815Y-12601722D01*
X10291815Y-12601722D02*
X10282291Y-12582674D01*
X10282291Y-12582674D02*
X10263244Y-12573150D01*
X10263244Y-12573150D02*
X10225148Y-12573150D01*
X10225148Y-12573150D02*
X10206101Y-12582674D01*
X10291815Y-12696960D02*
X10272767Y-12706484D01*
X10272767Y-12706484D02*
X10225148Y-12706484D01*
X10225148Y-12706484D02*
X10206101Y-12696960D01*
X10206101Y-12696960D02*
X10196577Y-12677912D01*
X10196577Y-12677912D02*
X10196577Y-12658865D01*
X10196577Y-12658865D02*
X10206101Y-12639817D01*
X10206101Y-12639817D02*
X10225148Y-12630293D01*
X10225148Y-12630293D02*
X10272767Y-12630293D01*
X10272767Y-12630293D02*
X10291815Y-12620769D01*
X10387053Y-12573150D02*
X10387053Y-12773150D01*
X10387053Y-12582674D02*
X10406101Y-12573150D01*
X10406101Y-12573150D02*
X10444196Y-12573150D01*
X10444196Y-12573150D02*
X10463244Y-12582674D01*
X10463244Y-12582674D02*
X10472767Y-12592198D01*
X10472767Y-12592198D02*
X10482291Y-12611246D01*
X10482291Y-12611246D02*
X10482291Y-12668388D01*
X10482291Y-12668388D02*
X10472767Y-12687436D01*
X10472767Y-12687436D02*
X10463244Y-12696960D01*
X10463244Y-12696960D02*
X10444196Y-12706484D01*
X10444196Y-12706484D02*
X10406101Y-12706484D01*
X10406101Y-12706484D02*
X10387053Y-12696960D01*
X10568005Y-12687436D02*
X10577529Y-12696960D01*
X10577529Y-12696960D02*
X10568005Y-12706484D01*
X10568005Y-12706484D02*
X10558482Y-12696960D01*
X10558482Y-12696960D02*
X10568005Y-12687436D01*
X10568005Y-12687436D02*
X10568005Y-12706484D01*
X10568005Y-12582674D02*
X10577529Y-12592198D01*
X10577529Y-12592198D02*
X10568005Y-12601722D01*
X10568005Y-12601722D02*
X10558482Y-12592198D01*
X10558482Y-12592198D02*
X10568005Y-12582674D01*
X10568005Y-12582674D02*
X10568005Y-12601722D01*
X8735800Y-12935000D02*
X8935800Y-13135000D01*
X8935800Y-12935000D02*
X8735800Y-13135000D01*
X9187053Y-12945531D02*
X9196577Y-12936008D01*
X9196577Y-12936008D02*
X9215624Y-12926484D01*
X9215624Y-12926484D02*
X9263244Y-12926484D01*
X9263244Y-12926484D02*
X9282291Y-12936008D01*
X9282291Y-12936008D02*
X9291815Y-12945531D01*
X9291815Y-12945531D02*
X9301339Y-12964579D01*
X9301339Y-12964579D02*
X9301339Y-12983627D01*
X9301339Y-12983627D02*
X9291815Y-13012198D01*
X9291815Y-13012198D02*
X9177529Y-13126484D01*
X9177529Y-13126484D02*
X9301339Y-13126484D01*
X9387053Y-13107436D02*
X9396577Y-13116960D01*
X9396577Y-13116960D02*
X9387053Y-13126484D01*
X9387053Y-13126484D02*
X9377529Y-13116960D01*
X9377529Y-13116960D02*
X9387053Y-13107436D01*
X9387053Y-13107436D02*
X9387053Y-13126484D01*
X9520386Y-12926484D02*
X9539434Y-12926484D01*
X9539434Y-12926484D02*
X9558482Y-12936008D01*
X9558482Y-12936008D02*
X9568005Y-12945531D01*
X9568005Y-12945531D02*
X9577529Y-12964579D01*
X9577529Y-12964579D02*
X9587053Y-13002674D01*
X9587053Y-13002674D02*
X9587053Y-13050293D01*
X9587053Y-13050293D02*
X9577529Y-13088388D01*
X9577529Y-13088388D02*
X9568005Y-13107436D01*
X9568005Y-13107436D02*
X9558482Y-13116960D01*
X9558482Y-13116960D02*
X9539434Y-13126484D01*
X9539434Y-13126484D02*
X9520386Y-13126484D01*
X9520386Y-13126484D02*
X9501339Y-13116960D01*
X9501339Y-13116960D02*
X9491815Y-13107436D01*
X9491815Y-13107436D02*
X9482291Y-13088388D01*
X9482291Y-13088388D02*
X9472767Y-13050293D01*
X9472767Y-13050293D02*
X9472767Y-13002674D01*
X9472767Y-13002674D02*
X9482291Y-12964579D01*
X9482291Y-12964579D02*
X9491815Y-12945531D01*
X9491815Y-12945531D02*
X9501339Y-12936008D01*
X9501339Y-12936008D02*
X9520386Y-12926484D01*
X9710863Y-12926484D02*
X9729910Y-12926484D01*
X9729910Y-12926484D02*
X9748958Y-12936008D01*
X9748958Y-12936008D02*
X9758482Y-12945531D01*
X9758482Y-12945531D02*
X9768005Y-12964579D01*
X9768005Y-12964579D02*
X9777529Y-13002674D01*
X9777529Y-13002674D02*
X9777529Y-13050293D01*
X9777529Y-13050293D02*
X9768005Y-13088388D01*
X9768005Y-13088388D02*
X9758482Y-13107436D01*
X9758482Y-13107436D02*
X9748958Y-13116960D01*
X9748958Y-13116960D02*
X9729910Y-13126484D01*
X9729910Y-13126484D02*
X9710863Y-13126484D01*
X9710863Y-13126484D02*
X9691815Y-13116960D01*
X9691815Y-13116960D02*
X9682291Y-13107436D01*
X9682291Y-13107436D02*
X9672767Y-13088388D01*
X9672767Y-13088388D02*
X9663244Y-13050293D01*
X9663244Y-13050293D02*
X9663244Y-13002674D01*
X9663244Y-13002674D02*
X9672767Y-12964579D01*
X9672767Y-12964579D02*
X9682291Y-12945531D01*
X9682291Y-12945531D02*
X9691815Y-12936008D01*
X9691815Y-12936008D02*
X9710863Y-12926484D01*
X9901339Y-12926484D02*
X9920386Y-12926484D01*
X9920386Y-12926484D02*
X9939434Y-12936008D01*
X9939434Y-12936008D02*
X9948958Y-12945531D01*
X9948958Y-12945531D02*
X9958482Y-12964579D01*
X9958482Y-12964579D02*
X9968005Y-13002674D01*
X9968005Y-13002674D02*
X9968005Y-13050293D01*
X9968005Y-13050293D02*
X9958482Y-13088388D01*
X9958482Y-13088388D02*
X9948958Y-13107436D01*
X9948958Y-13107436D02*
X9939434Y-13116960D01*
X9939434Y-13116960D02*
X9920386Y-13126484D01*
X9920386Y-13126484D02*
X9901339Y-13126484D01*
X9901339Y-13126484D02*
X9882291Y-13116960D01*
X9882291Y-13116960D02*
X9872767Y-13107436D01*
X9872767Y-13107436D02*
X9863244Y-13088388D01*
X9863244Y-13088388D02*
X9853720Y-13050293D01*
X9853720Y-13050293D02*
X9853720Y-13002674D01*
X9853720Y-13002674D02*
X9863244Y-12964579D01*
X9863244Y-12964579D02*
X9872767Y-12945531D01*
X9872767Y-12945531D02*
X9882291Y-12936008D01*
X9882291Y-12936008D02*
X9901339Y-12926484D01*
X10053720Y-13126484D02*
X10053720Y-12993150D01*
X10053720Y-13012198D02*
X10063244Y-13002674D01*
X10063244Y-13002674D02*
X10082291Y-12993150D01*
X10082291Y-12993150D02*
X10110863Y-12993150D01*
X10110863Y-12993150D02*
X10129910Y-13002674D01*
X10129910Y-13002674D02*
X10139434Y-13021722D01*
X10139434Y-13021722D02*
X10139434Y-13126484D01*
X10139434Y-13021722D02*
X10148958Y-13002674D01*
X10148958Y-13002674D02*
X10168005Y-12993150D01*
X10168005Y-12993150D02*
X10196577Y-12993150D01*
X10196577Y-12993150D02*
X10215625Y-13002674D01*
X10215625Y-13002674D02*
X10225148Y-13021722D01*
X10225148Y-13021722D02*
X10225148Y-13126484D01*
X10320386Y-13126484D02*
X10320386Y-12993150D01*
X10320386Y-13012198D02*
X10329910Y-13002674D01*
X10329910Y-13002674D02*
X10348958Y-12993150D01*
X10348958Y-12993150D02*
X10377529Y-12993150D01*
X10377529Y-12993150D02*
X10396577Y-13002674D01*
X10396577Y-13002674D02*
X10406101Y-13021722D01*
X10406101Y-13021722D02*
X10406101Y-13126484D01*
X10406101Y-13021722D02*
X10415625Y-13002674D01*
X10415625Y-13002674D02*
X10434672Y-12993150D01*
X10434672Y-12993150D02*
X10463244Y-12993150D01*
X10463244Y-12993150D02*
X10482291Y-13002674D01*
X10482291Y-13002674D02*
X10491815Y-13021722D01*
X10491815Y-13021722D02*
X10491815Y-13126484D01*
X10882291Y-12916960D02*
X10710863Y-13174103D01*
X11139434Y-12926484D02*
X11158482Y-12926484D01*
X11158482Y-12926484D02*
X11177529Y-12936008D01*
X11177529Y-12936008D02*
X11187053Y-12945531D01*
X11187053Y-12945531D02*
X11196577Y-12964579D01*
X11196577Y-12964579D02*
X11206101Y-13002674D01*
X11206101Y-13002674D02*
X11206101Y-13050293D01*
X11206101Y-13050293D02*
X11196577Y-13088388D01*
X11196577Y-13088388D02*
X11187053Y-13107436D01*
X11187053Y-13107436D02*
X11177529Y-13116960D01*
X11177529Y-13116960D02*
X11158482Y-13126484D01*
X11158482Y-13126484D02*
X11139434Y-13126484D01*
X11139434Y-13126484D02*
X11120387Y-13116960D01*
X11120387Y-13116960D02*
X11110863Y-13107436D01*
X11110863Y-13107436D02*
X11101339Y-13088388D01*
X11101339Y-13088388D02*
X11091815Y-13050293D01*
X11091815Y-13050293D02*
X11091815Y-13002674D01*
X11091815Y-13002674D02*
X11101339Y-12964579D01*
X11101339Y-12964579D02*
X11110863Y-12945531D01*
X11110863Y-12945531D02*
X11120387Y-12936008D01*
X11120387Y-12936008D02*
X11139434Y-12926484D01*
X11291815Y-13107436D02*
X11301339Y-13116960D01*
X11301339Y-13116960D02*
X11291815Y-13126484D01*
X11291815Y-13126484D02*
X11282291Y-13116960D01*
X11282291Y-13116960D02*
X11291815Y-13107436D01*
X11291815Y-13107436D02*
X11291815Y-13126484D01*
X11425148Y-12926484D02*
X11444196Y-12926484D01*
X11444196Y-12926484D02*
X11463244Y-12936008D01*
X11463244Y-12936008D02*
X11472767Y-12945531D01*
X11472767Y-12945531D02*
X11482291Y-12964579D01*
X11482291Y-12964579D02*
X11491815Y-13002674D01*
X11491815Y-13002674D02*
X11491815Y-13050293D01*
X11491815Y-13050293D02*
X11482291Y-13088388D01*
X11482291Y-13088388D02*
X11472767Y-13107436D01*
X11472767Y-13107436D02*
X11463244Y-13116960D01*
X11463244Y-13116960D02*
X11444196Y-13126484D01*
X11444196Y-13126484D02*
X11425148Y-13126484D01*
X11425148Y-13126484D02*
X11406101Y-13116960D01*
X11406101Y-13116960D02*
X11396577Y-13107436D01*
X11396577Y-13107436D02*
X11387053Y-13088388D01*
X11387053Y-13088388D02*
X11377529Y-13050293D01*
X11377529Y-13050293D02*
X11377529Y-13002674D01*
X11377529Y-13002674D02*
X11387053Y-12964579D01*
X11387053Y-12964579D02*
X11396577Y-12945531D01*
X11396577Y-12945531D02*
X11406101Y-12936008D01*
X11406101Y-12936008D02*
X11425148Y-12926484D01*
X11558482Y-12926484D02*
X11691815Y-12926484D01*
X11691815Y-12926484D02*
X11606101Y-13126484D01*
X11796577Y-13012198D02*
X11777529Y-13002674D01*
X11777529Y-13002674D02*
X11768006Y-12993150D01*
X11768006Y-12993150D02*
X11758482Y-12974103D01*
X11758482Y-12974103D02*
X11758482Y-12964579D01*
X11758482Y-12964579D02*
X11768006Y-12945531D01*
X11768006Y-12945531D02*
X11777529Y-12936008D01*
X11777529Y-12936008D02*
X11796577Y-12926484D01*
X11796577Y-12926484D02*
X11834672Y-12926484D01*
X11834672Y-12926484D02*
X11853720Y-12936008D01*
X11853720Y-12936008D02*
X11863244Y-12945531D01*
X11863244Y-12945531D02*
X11872767Y-12964579D01*
X11872767Y-12964579D02*
X11872767Y-12974103D01*
X11872767Y-12974103D02*
X11863244Y-12993150D01*
X11863244Y-12993150D02*
X11853720Y-13002674D01*
X11853720Y-13002674D02*
X11834672Y-13012198D01*
X11834672Y-13012198D02*
X11796577Y-13012198D01*
X11796577Y-13012198D02*
X11777529Y-13021722D01*
X11777529Y-13021722D02*
X11768006Y-13031246D01*
X11768006Y-13031246D02*
X11758482Y-13050293D01*
X11758482Y-13050293D02*
X11758482Y-13088388D01*
X11758482Y-13088388D02*
X11768006Y-13107436D01*
X11768006Y-13107436D02*
X11777529Y-13116960D01*
X11777529Y-13116960D02*
X11796577Y-13126484D01*
X11796577Y-13126484D02*
X11834672Y-13126484D01*
X11834672Y-13126484D02*
X11853720Y-13116960D01*
X11853720Y-13116960D02*
X11863244Y-13107436D01*
X11863244Y-13107436D02*
X11872767Y-13088388D01*
X11872767Y-13088388D02*
X11872767Y-13050293D01*
X11872767Y-13050293D02*
X11863244Y-13031246D01*
X11863244Y-13031246D02*
X11853720Y-13021722D01*
X11853720Y-13021722D02*
X11834672Y-13012198D01*
X11939434Y-12926484D02*
X12072767Y-12926484D01*
X12072767Y-12926484D02*
X11987053Y-13126484D01*
X12139434Y-12926484D02*
X12139434Y-12964579D01*
X12215625Y-12926484D02*
X12215625Y-12964579D01*
X12510863Y-13202674D02*
X12501339Y-13193150D01*
X12501339Y-13193150D02*
X12482291Y-13164579D01*
X12482291Y-13164579D02*
X12472768Y-13145531D01*
X12472768Y-13145531D02*
X12463244Y-13116960D01*
X12463244Y-13116960D02*
X12453720Y-13069341D01*
X12453720Y-13069341D02*
X12453720Y-13031246D01*
X12453720Y-13031246D02*
X12463244Y-12983627D01*
X12463244Y-12983627D02*
X12472768Y-12955055D01*
X12472768Y-12955055D02*
X12482291Y-12936008D01*
X12482291Y-12936008D02*
X12501339Y-12907436D01*
X12501339Y-12907436D02*
X12510863Y-12897912D01*
X12672768Y-12993150D02*
X12672768Y-13126484D01*
X12625148Y-12916960D02*
X12577529Y-13059817D01*
X12577529Y-13059817D02*
X12701339Y-13059817D01*
X12929910Y-13126484D02*
X12929910Y-12926484D01*
X13015625Y-13126484D02*
X13015625Y-13021722D01*
X13015625Y-13021722D02*
X13006101Y-13002674D01*
X13006101Y-13002674D02*
X12987053Y-12993150D01*
X12987053Y-12993150D02*
X12958482Y-12993150D01*
X12958482Y-12993150D02*
X12939434Y-13002674D01*
X12939434Y-13002674D02*
X12929910Y-13012198D01*
X13139434Y-13126484D02*
X13120387Y-13116960D01*
X13120387Y-13116960D02*
X13110863Y-13107436D01*
X13110863Y-13107436D02*
X13101339Y-13088388D01*
X13101339Y-13088388D02*
X13101339Y-13031246D01*
X13101339Y-13031246D02*
X13110863Y-13012198D01*
X13110863Y-13012198D02*
X13120387Y-13002674D01*
X13120387Y-13002674D02*
X13139434Y-12993150D01*
X13139434Y-12993150D02*
X13168006Y-12993150D01*
X13168006Y-12993150D02*
X13187053Y-13002674D01*
X13187053Y-13002674D02*
X13196577Y-13012198D01*
X13196577Y-13012198D02*
X13206101Y-13031246D01*
X13206101Y-13031246D02*
X13206101Y-13088388D01*
X13206101Y-13088388D02*
X13196577Y-13107436D01*
X13196577Y-13107436D02*
X13187053Y-13116960D01*
X13187053Y-13116960D02*
X13168006Y-13126484D01*
X13168006Y-13126484D02*
X13139434Y-13126484D01*
X13320387Y-13126484D02*
X13301339Y-13116960D01*
X13301339Y-13116960D02*
X13291815Y-13097912D01*
X13291815Y-13097912D02*
X13291815Y-12926484D01*
X13472768Y-13116960D02*
X13453720Y-13126484D01*
X13453720Y-13126484D02*
X13415625Y-13126484D01*
X13415625Y-13126484D02*
X13396577Y-13116960D01*
X13396577Y-13116960D02*
X13387053Y-13097912D01*
X13387053Y-13097912D02*
X13387053Y-13021722D01*
X13387053Y-13021722D02*
X13396577Y-13002674D01*
X13396577Y-13002674D02*
X13415625Y-12993150D01*
X13415625Y-12993150D02*
X13453720Y-12993150D01*
X13453720Y-12993150D02*
X13472768Y-13002674D01*
X13472768Y-13002674D02*
X13482291Y-13021722D01*
X13482291Y-13021722D02*
X13482291Y-13040769D01*
X13482291Y-13040769D02*
X13387053Y-13059817D01*
X13558482Y-13116960D02*
X13577530Y-13126484D01*
X13577530Y-13126484D02*
X13615625Y-13126484D01*
X13615625Y-13126484D02*
X13634672Y-13116960D01*
X13634672Y-13116960D02*
X13644196Y-13097912D01*
X13644196Y-13097912D02*
X13644196Y-13088388D01*
X13644196Y-13088388D02*
X13634672Y-13069341D01*
X13634672Y-13069341D02*
X13615625Y-13059817D01*
X13615625Y-13059817D02*
X13587053Y-13059817D01*
X13587053Y-13059817D02*
X13568006Y-13050293D01*
X13568006Y-13050293D02*
X13558482Y-13031246D01*
X13558482Y-13031246D02*
X13558482Y-13021722D01*
X13558482Y-13021722D02*
X13568006Y-13002674D01*
X13568006Y-13002674D02*
X13587053Y-12993150D01*
X13587053Y-12993150D02*
X13615625Y-12993150D01*
X13615625Y-12993150D02*
X13634672Y-13002674D01*
X13710863Y-13202674D02*
X13720387Y-13193150D01*
X13720387Y-13193150D02*
X13739434Y-13164579D01*
X13739434Y-13164579D02*
X13748958Y-13145531D01*
X13748958Y-13145531D02*
X13758482Y-13116960D01*
X13758482Y-13116960D02*
X13768006Y-13069341D01*
X13768006Y-13069341D02*
X13768006Y-13031246D01*
X13768006Y-13031246D02*
X13758482Y-12983627D01*
X13758482Y-12983627D02*
X13748958Y-12955055D01*
X13748958Y-12955055D02*
X13739434Y-12936008D01*
X13739434Y-12936008D02*
X13720387Y-12907436D01*
X13720387Y-12907436D02*
X13710863Y-12897912D01*
X14072768Y-13202674D02*
X14063244Y-13193150D01*
X14063244Y-13193150D02*
X14044196Y-13164579D01*
X14044196Y-13164579D02*
X14034672Y-13145531D01*
X14034672Y-13145531D02*
X14025149Y-13116960D01*
X14025149Y-13116960D02*
X14015625Y-13069341D01*
X14015625Y-13069341D02*
X14015625Y-13031246D01*
X14015625Y-13031246D02*
X14025149Y-12983627D01*
X14025149Y-12983627D02*
X14034672Y-12955055D01*
X14034672Y-12955055D02*
X14044196Y-12936008D01*
X14044196Y-12936008D02*
X14063244Y-12907436D01*
X14063244Y-12907436D02*
X14072768Y-12897912D01*
X14148958Y-12993150D02*
X14148958Y-13126484D01*
X14148958Y-13012198D02*
X14158482Y-13002674D01*
X14158482Y-13002674D02*
X14177530Y-12993150D01*
X14177530Y-12993150D02*
X14206101Y-12993150D01*
X14206101Y-12993150D02*
X14225149Y-13002674D01*
X14225149Y-13002674D02*
X14234672Y-13021722D01*
X14234672Y-13021722D02*
X14234672Y-13126484D01*
X14358482Y-13126484D02*
X14339434Y-13116960D01*
X14339434Y-13116960D02*
X14329911Y-13107436D01*
X14329911Y-13107436D02*
X14320387Y-13088388D01*
X14320387Y-13088388D02*
X14320387Y-13031246D01*
X14320387Y-13031246D02*
X14329911Y-13012198D01*
X14329911Y-13012198D02*
X14339434Y-13002674D01*
X14339434Y-13002674D02*
X14358482Y-12993150D01*
X14358482Y-12993150D02*
X14387053Y-12993150D01*
X14387053Y-12993150D02*
X14406101Y-13002674D01*
X14406101Y-13002674D02*
X14415625Y-13012198D01*
X14415625Y-13012198D02*
X14425149Y-13031246D01*
X14425149Y-13031246D02*
X14425149Y-13088388D01*
X14425149Y-13088388D02*
X14415625Y-13107436D01*
X14415625Y-13107436D02*
X14406101Y-13116960D01*
X14406101Y-13116960D02*
X14387053Y-13126484D01*
X14387053Y-13126484D02*
X14358482Y-13126484D01*
X14482292Y-12993150D02*
X14558482Y-12993150D01*
X14510863Y-12926484D02*
X14510863Y-13097912D01*
X14510863Y-13097912D02*
X14520387Y-13116960D01*
X14520387Y-13116960D02*
X14539434Y-13126484D01*
X14539434Y-13126484D02*
X14558482Y-13126484D01*
X14777530Y-12993150D02*
X14777530Y-13193150D01*
X14777530Y-13002674D02*
X14796577Y-12993150D01*
X14796577Y-12993150D02*
X14834673Y-12993150D01*
X14834673Y-12993150D02*
X14853720Y-13002674D01*
X14853720Y-13002674D02*
X14863244Y-13012198D01*
X14863244Y-13012198D02*
X14872768Y-13031246D01*
X14872768Y-13031246D02*
X14872768Y-13088388D01*
X14872768Y-13088388D02*
X14863244Y-13107436D01*
X14863244Y-13107436D02*
X14853720Y-13116960D01*
X14853720Y-13116960D02*
X14834673Y-13126484D01*
X14834673Y-13126484D02*
X14796577Y-13126484D01*
X14796577Y-13126484D02*
X14777530Y-13116960D01*
X14987053Y-13126484D02*
X14968006Y-13116960D01*
X14968006Y-13116960D02*
X14958482Y-13097912D01*
X14958482Y-13097912D02*
X14958482Y-12926484D01*
X15148958Y-13126484D02*
X15148958Y-13021722D01*
X15148958Y-13021722D02*
X15139434Y-13002674D01*
X15139434Y-13002674D02*
X15120387Y-12993150D01*
X15120387Y-12993150D02*
X15082292Y-12993150D01*
X15082292Y-12993150D02*
X15063244Y-13002674D01*
X15148958Y-13116960D02*
X15129911Y-13126484D01*
X15129911Y-13126484D02*
X15082292Y-13126484D01*
X15082292Y-13126484D02*
X15063244Y-13116960D01*
X15063244Y-13116960D02*
X15053720Y-13097912D01*
X15053720Y-13097912D02*
X15053720Y-13078865D01*
X15053720Y-13078865D02*
X15063244Y-13059817D01*
X15063244Y-13059817D02*
X15082292Y-13050293D01*
X15082292Y-13050293D02*
X15129911Y-13050293D01*
X15129911Y-13050293D02*
X15148958Y-13040769D01*
X15215625Y-12993150D02*
X15291815Y-12993150D01*
X15244196Y-12926484D02*
X15244196Y-13097912D01*
X15244196Y-13097912D02*
X15253720Y-13116960D01*
X15253720Y-13116960D02*
X15272768Y-13126484D01*
X15272768Y-13126484D02*
X15291815Y-13126484D01*
X15434673Y-13116960D02*
X15415625Y-13126484D01*
X15415625Y-13126484D02*
X15377530Y-13126484D01*
X15377530Y-13126484D02*
X15358482Y-13116960D01*
X15358482Y-13116960D02*
X15348958Y-13097912D01*
X15348958Y-13097912D02*
X15348958Y-13021722D01*
X15348958Y-13021722D02*
X15358482Y-13002674D01*
X15358482Y-13002674D02*
X15377530Y-12993150D01*
X15377530Y-12993150D02*
X15415625Y-12993150D01*
X15415625Y-12993150D02*
X15434673Y-13002674D01*
X15434673Y-13002674D02*
X15444196Y-13021722D01*
X15444196Y-13021722D02*
X15444196Y-13040769D01*
X15444196Y-13040769D02*
X15348958Y-13059817D01*
X15615625Y-13126484D02*
X15615625Y-12926484D01*
X15615625Y-13116960D02*
X15596577Y-13126484D01*
X15596577Y-13126484D02*
X15558482Y-13126484D01*
X15558482Y-13126484D02*
X15539434Y-13116960D01*
X15539434Y-13116960D02*
X15529911Y-13107436D01*
X15529911Y-13107436D02*
X15520387Y-13088388D01*
X15520387Y-13088388D02*
X15520387Y-13031246D01*
X15520387Y-13031246D02*
X15529911Y-13012198D01*
X15529911Y-13012198D02*
X15539434Y-13002674D01*
X15539434Y-13002674D02*
X15558482Y-12993150D01*
X15558482Y-12993150D02*
X15596577Y-12993150D01*
X15596577Y-12993150D02*
X15615625Y-13002674D01*
X15691815Y-13202674D02*
X15701339Y-13193150D01*
X15701339Y-13193150D02*
X15720387Y-13164579D01*
X15720387Y-13164579D02*
X15729911Y-13145531D01*
X15729911Y-13145531D02*
X15739434Y-13116960D01*
X15739434Y-13116960D02*
X15748958Y-13069341D01*
X15748958Y-13069341D02*
X15748958Y-13031246D01*
X15748958Y-13031246D02*
X15739434Y-12983627D01*
X15739434Y-12983627D02*
X15729911Y-12955055D01*
X15729911Y-12955055D02*
X15720387Y-12936008D01*
X15720387Y-12936008D02*
X15701339Y-12907436D01*
X15701339Y-12907436D02*
X15691815Y-12897912D01*
M02*
