%TF.GenerationSoftware,KiCad,Pcbnew,7.0.10*%
%TF.CreationDate,2026-05-05T12:34:12+02:00*%
%TF.ProjectId,FT I2C Hub,46542049-3243-4204-9875-622e6b696361,rev?*%
%TF.SameCoordinates,Original*%
%TF.FileFunction,Soldermask,Top*%
%TF.FilePolarity,Negative*%
%FSLAX46Y46*%
G04 Gerber Fmt 4.6, Leading zero omitted, Abs format (unit mm)*
G04 Created by KiCad (PCBNEW 7.0.10) date 2026-05-05 12:34:12*
%MOMM*%
%LPD*%
G01*
G04 APERTURE LIST*
G04 Aperture macros list*
%AMRoundRect*
0 Rectangle with rounded corners*
0 $1 Rounding radius*
0 $2 $3 $4 $5 $6 $7 $8 $9 X,Y pos of 4 corners*
0 Add a 4 corners polygon primitive as box body*
4,1,4,$2,$3,$4,$5,$6,$7,$8,$9,$2,$3,0*
0 Add four circle primitives for the rounded corners*
1,1,$1+$1,$2,$3*
1,1,$1+$1,$4,$5*
1,1,$1+$1,$6,$7*
1,1,$1+$1,$8,$9*
0 Add four rect primitives between the rounded corners*
20,1,$1+$1,$2,$3,$4,$5,0*
20,1,$1+$1,$4,$5,$6,$7,0*
20,1,$1+$1,$6,$7,$8,$9,0*
20,1,$1+$1,$8,$9,$2,$3,0*%
G04 Aperture macros list end*
%ADD10RoundRect,0.250000X0.625000X-0.350000X0.625000X0.350000X-0.625000X0.350000X-0.625000X-0.350000X0*%
%ADD11O,1.750000X1.200000*%
%ADD12R,1.700000X1.700000*%
%ADD13O,1.700000X1.700000*%
%ADD14C,2.000000*%
%ADD15R,1.800000X1.800000*%
%ADD16C,1.800000*%
%ADD17C,4.000000*%
G04 APERTURE END LIST*
D10*
%TO.C,J4*%
X99292000Y-101083000D03*
D11*
X99292000Y-99083000D03*
X99292000Y-97083000D03*
X99292000Y-95083000D03*
%TD*%
D10*
%TO.C,J2*%
X140948000Y-101083000D03*
D11*
X140948000Y-99083000D03*
X140948000Y-97083000D03*
X140948000Y-95083000D03*
%TD*%
D10*
%TO.C,J3*%
X148568000Y-101083000D03*
D11*
X148568000Y-99083000D03*
X148568000Y-97083000D03*
X148568000Y-95083000D03*
%TD*%
D12*
%TO.C,J9*%
X157734000Y-115365000D03*
D13*
X157734000Y-112825000D03*
X160274000Y-115365000D03*
X160274000Y-112825000D03*
X162814000Y-115365000D03*
X162814000Y-112825000D03*
%TD*%
D14*
%TO.C,H2*%
X172060000Y-91260000D03*
%TD*%
%TO.C,H1*%
X91760000Y-91228000D03*
%TD*%
D15*
%TO.C,D1*%
X160000000Y-99365000D03*
D16*
X160000000Y-96825000D03*
%TD*%
D12*
%TO.C,J8*%
X126863000Y-115365000D03*
D13*
X126863000Y-112825000D03*
X129403000Y-115365000D03*
X129403000Y-112825000D03*
X131943000Y-115365000D03*
X131943000Y-112825000D03*
X134483000Y-115365000D03*
X134483000Y-112825000D03*
X137023000Y-115365000D03*
X137023000Y-112825000D03*
%TD*%
D14*
%TO.C,H4*%
X172060000Y-121590000D03*
%TD*%
D17*
%TO.C,O1*%
X167620000Y-94740000D03*
%TD*%
D14*
%TO.C,H3*%
X91760000Y-121342000D03*
%TD*%
D10*
%TO.C,J6*%
X114532000Y-101083000D03*
D11*
X114532000Y-99083000D03*
X114532000Y-97083000D03*
X114532000Y-95083000D03*
%TD*%
D10*
%TO.C,J5*%
X106912000Y-101083000D03*
D11*
X106912000Y-99083000D03*
X106912000Y-97083000D03*
X106912000Y-95083000D03*
%TD*%
D12*
%TO.C,J7*%
X101092000Y-115365000D03*
D13*
X101092000Y-112825000D03*
X103632000Y-115365000D03*
X103632000Y-112825000D03*
X106172000Y-115365000D03*
X106172000Y-112825000D03*
%TD*%
D10*
%TO.C,J1*%
X133328000Y-101083000D03*
D11*
X133328000Y-99083000D03*
X133328000Y-97083000D03*
X133328000Y-95083000D03*
%TD*%
D17*
%TO.C,O2*%
X167620000Y-102106000D03*
%TD*%
M02*
